<svg width="39" height="38" viewBox="0 0 39 38" fill="none" xmlns="http://www.w3.org/2000/svg">
<path d="M26.1342 3.16699H12.8659C7.10258 3.16699 3.66675 6.60283 3.66675 12.3662V25.6187C3.66675 31.3978 7.10258 34.8337 12.8659 34.8337H26.1184C31.8817 34.8337 35.3176 31.3978 35.3176 25.6345V12.3662C35.3334 6.60283 31.8976 3.16699 26.1342 3.16699ZM17.8376 27.7245C17.3784 28.1837 16.5076 28.627 15.8742 28.722L11.9792 29.2762C11.8367 29.292 11.6942 29.3078 11.5517 29.3078C10.9026 29.3078 10.3009 29.0862 9.87341 28.6587C9.35091 28.1362 9.12925 27.3762 9.25592 26.537L9.81008 22.642C9.90508 21.9928 10.3326 21.1378 10.8076 20.6787L17.8692 13.617C17.9959 13.9495 18.1226 14.282 18.2967 14.662C18.4551 14.9945 18.6292 15.3428 18.8192 15.6595C18.9776 15.9287 19.1517 16.182 19.2942 16.372C19.4684 16.6412 19.6742 16.8945 19.8009 17.037C19.8801 17.1478 19.9434 17.227 19.9751 17.2587C20.3709 17.7337 20.8301 18.177 21.2259 18.5095C21.3367 18.6203 21.4001 18.6837 21.4317 18.6995C21.6692 18.8895 21.9067 19.0795 22.1126 19.222C22.3659 19.412 22.6192 19.5862 22.8884 19.7287C23.2051 19.9187 23.5534 20.0928 23.9017 20.267C24.2659 20.4253 24.5984 20.5678 24.9309 20.6787L17.8376 27.7245ZM28.0026 17.5595L26.5459 19.032C26.4509 19.127 26.3242 19.1745 26.1976 19.1745C26.1501 19.1745 26.0867 19.1745 26.0551 19.1587C22.8409 18.2403 20.2759 15.6753 19.3576 12.4612C19.3101 12.287 19.3576 12.097 19.4842 11.9862L20.9567 10.5137C23.3634 8.10699 25.6592 8.15449 28.0184 10.5137C29.2217 11.717 29.8076 12.8728 29.8076 14.0762C29.7917 15.2162 29.2059 16.3562 28.0026 17.5595Z" fill="white"/>
</svg>
