<svg width="20" height="21" viewBox="0 0 20 21" fill="none" xmlns="http://www.w3.org/2000/svg">
<path d="M10 0.4375C4.49 0.4375 0 4.9275 0 10.4375C0 15.9475 4.49 20.4375 10 20.4375C15.51 20.4375 20 15.9475 20 10.4375C20 4.9275 15.51 0.4375 10 0.4375ZM9.25 6.4375C9.25 6.0275 9.59 5.6875 10 5.6875C10.41 5.6875 10.75 6.0275 10.75 6.4375V11.4375C10.75 11.8475 10.41 12.1875 10 12.1875C9.59 12.1875 9.25 11.8475 9.25 11.4375V6.4375ZM10.92 14.8175C10.87 14.9475 10.8 15.0475 10.71 15.1475C10.61 15.2375 10.5 15.3075 10.38 15.3575C10.26 15.4075 10.13 15.4375 10 15.4375C9.87 15.4375 9.74 15.4075 9.62 15.3575C9.5 15.3075 9.39 15.2375 9.29 15.1475C9.2 15.0475 9.13 14.9475 9.08 14.8175C9.03 14.6975 9 14.5675 9 14.4375C9 14.3075 9.03 14.1775 9.08 14.0575C9.13 13.9375 9.2 13.8275 9.29 13.7275C9.39 13.6375 9.5 13.5675 9.62 13.5175C9.86 13.4175 10.14 13.4175 10.38 13.5175C10.5 13.5675 10.61 13.6375 10.71 13.7275C10.8 13.8275 10.87 13.9375 10.92 14.0575C10.97 14.1775 11 14.3075 11 14.4375C11 14.5675 10.97 14.6975 10.92 14.8175Z"/>
</svg>
