<svg width="232" height="68" viewBox="0 0 232 68" fill="none" xmlns="http://www.w3.org/2000/svg">
<path d="M213.525 0.000221H18.4855C17.7745 0.000221 17.0721 0.000221 16.363 0.003621C15.7695 0.007021 15.1807 0.016898 14.5814 0.025211C13.2796 0.0386441 11.9808 0.139071 10.6963 0.325618C9.4137 0.516226 8.17124 0.875578 7.01099 1.39152C5.85215 1.91182 4.79329 2.58791 3.87281 3.39524C2.9475 4.2003 2.17619 5.13085 1.58852 6.15109C0.999238 7.16931 0.590625 8.26042 0.376798 9.38674C0.160938 10.5116 0.0447822 11.6495 0.0293722 12.7901C0.0113805 13.3114 0.00948054 13.8343 0 14.3556V53.6498C0.00948054 54.1777 0.0113805 54.6891 0.0293722 55.2171C0.044787 56.3576 0.160943 57.4955 0.376798 58.6203C0.590035 59.7473 0.998672 60.839 1.58852 61.8576C2.17592 62.8746 2.94734 63.8013 3.87281 64.6019C4.7898 65.4128 5.84934 66.0894 7.01099 66.6057C8.17123 67.123 9.41356 67.4845 10.6963 67.6781C11.981 67.8631 13.2797 67.9636 14.5814 67.9786C15.1807 67.9902 15.7695 67.9968 16.363 67.9968C17.0721 68.0002 17.7746 68.0002 18.4855 68.0002H213.525C214.222 68.0002 214.93 68.0002 215.627 67.9968C216.217 67.9968 216.823 67.9902 217.414 67.9786C218.713 67.9644 220.009 67.8639 221.291 67.6781C222.578 67.4832 223.825 67.1218 224.991 66.6057C226.152 66.0891 227.21 65.4126 228.126 64.6019C229.049 63.7982 229.823 62.8721 230.417 61.8576C231.003 60.8383 231.407 59.7466 231.617 58.6203C231.834 57.4953 231.954 56.3577 231.977 55.2171C231.985 54.6891 231.985 54.1777 231.985 53.6498C232 53.0322 232 52.418 232 51.7904V16.2116C232 15.5891 232 14.9715 231.985 14.3556C231.985 13.8343 231.985 13.3114 231.977 12.7901C231.954 11.6493 231.834 10.5117 231.617 9.38667C231.407 8.261 231.002 7.16998 230.417 6.15102C229.22 4.10605 227.323 2.44146 224.991 1.39137C223.825 0.876686 222.578 0.51743 221.291 0.325465C220.01 0.138096 218.713 0.0376342 217.414 0.024973C216.823 0.016677 216.217 0.006715 215.627 0.0034C214.93 0 214.222 0 213.525 0V0.000221Z" fill="#A6A6A6"/>
<path d="M16.3723 66.5123C15.7816 66.5123 15.2052 66.5057 14.6191 66.4941C13.405 66.4802 12.1938 66.3876 10.9953 66.2168C9.87779 66.0481 8.79522 65.7341 7.78329 65.2854C6.78064 64.8404 5.86615 64.2569 5.07484 63.5572C4.27208 62.8658 3.60374 62.0638 3.09632 61.1831C2.5833 60.2967 2.22826 59.3466 2.04357 58.3659C1.84412 57.3121 1.73621 56.2465 1.72077 55.1784C1.70847 54.8199 1.69238 53.6261 1.69238 53.6261V14.3552C1.69238 14.3552 1.70952 13.1798 1.72086 12.8345C1.73565 11.768 1.84293 10.7041 2.04179 9.65195C2.22682 8.66853 2.58213 7.71568 3.09543 6.82637C3.60099 5.94631 4.26561 5.14377 5.06354 4.44986C5.86057 3.74936 6.77799 3.16283 7.78234 2.71166C8.79194 2.26436 9.87247 1.95265 10.9877 1.78696C12.1901 1.61453 13.4056 1.5213 14.6239 1.50806L16.3733 1.4873H215.617L217.387 1.50889C218.594 1.52147 219.799 1.61387 220.99 1.7853C222.117 1.95306 223.209 2.26695 224.23 2.71664C226.242 3.62588 227.879 5.06438 228.912 6.83052C229.417 7.71369 229.767 8.65876 229.949 9.63369C230.151 10.6945 230.263 11.7668 230.286 12.8419C230.292 13.3234 230.292 13.8405 230.292 14.3552C230.307 14.9927 230.307 15.5995 230.307 16.2112V51.79C230.307 52.4076 230.307 53.0102 230.292 53.6178C230.292 54.1706 230.292 54.6771 230.284 55.1983C230.262 56.2543 230.151 57.3074 229.953 58.3492C229.772 59.337 229.419 60.2946 228.906 61.1882C228.395 62.0594 227.731 62.8543 226.937 63.5439C226.145 64.2474 225.229 64.8343 224.224 65.2822C223.206 65.7344 222.116 66.0495 220.99 66.2168C219.792 66.3885 218.58 66.4812 217.366 66.4941C216.798 66.5057 216.204 66.5123 215.626 66.5123L213.525 66.5157L16.3723 66.5123Z" fill="#181818"/>
<path d="M56.2261 34.511C56.2444 33.092 56.6223 31.7008 57.3247 30.4667C58.0272 29.2325 59.0312 28.1956 60.2434 27.4524C59.4733 26.3557 58.4574 25.4531 57.2763 24.8163C56.0952 24.1796 54.7814 23.8263 53.4394 23.7844C50.5767 23.4848 47.8014 25.4926 46.3426 25.4926C44.8556 25.4926 42.6096 23.8141 40.191 23.8638C38.6265 23.9142 37.1019 24.3678 35.7655 25.1805C34.4292 25.9932 33.3268 27.1372 32.5657 28.5011C29.2686 34.1935 31.7279 42.5592 34.8862 47.1605C36.4663 49.4136 38.3131 51.9303 40.7295 51.8411C43.0941 51.7433 43.9773 50.3375 46.8316 50.3375C49.6594 50.3375 50.488 51.8411 52.9534 51.7843C55.4908 51.7433 57.0894 49.5212 58.6141 47.2468C59.7495 45.6414 60.6231 43.8671 61.2027 41.9895C59.7286 41.3678 58.4706 40.3271 57.5856 38.9972C56.7006 37.6673 56.2278 36.107 56.2261 34.511Z" fill="white"/>
<path d="M51.5693 20.7583C52.9528 19.1021 53.6344 16.9734 53.4693 14.8242C51.3557 15.0456 49.4033 16.0529 48.0011 17.6456C47.3156 18.4236 46.7905 19.3287 46.4559 20.3092C46.1214 21.2897 45.9839 22.3264 46.0514 23.3599C47.1085 23.3708 48.1544 23.1423 49.1102 22.6916C50.066 22.241 50.9068 21.5799 51.5693 20.7583Z" fill="white"/>
<path d="M86.1165 46.1371H78.0471L76.1093 51.843H72.6914L80.3346 30.7324H83.8856L91.5288 51.843H88.0527L86.1165 46.1371ZM78.8829 43.504H85.2792L82.126 34.2437H82.0378L78.8829 43.504Z" fill="white"/>
<path d="M108.035 44.1485C108.035 48.9314 105.468 52.0043 101.594 52.0043C100.613 52.0555 99.637 51.8301 98.7781 51.3538C97.9193 50.8776 97.2122 50.1698 96.738 49.3115H96.6647V56.935H93.4966V36.452H96.5632V39.0119H96.6215C97.1175 38.1577 97.8365 37.4536 98.7019 36.9745C99.5672 36.4953 100.547 36.2591 101.536 36.2909C105.453 36.2909 108.035 39.3788 108.035 44.1485ZM104.779 44.1485C104.779 41.0324 103.164 38.9837 100.7 38.9837C98.2796 38.9837 96.6514 41.0755 96.6514 44.1485C96.6514 47.2496 98.2796 49.3265 100.7 49.3265C103.164 49.3265 104.779 47.2928 104.779 44.1485Z" fill="white"/>
<path d="M125.023 44.1484C125.023 48.9314 122.456 52.0043 118.582 52.0043C117.601 52.0555 116.625 51.8301 115.766 51.3538C114.907 50.8776 114.2 50.1698 113.726 49.3115H113.653V56.9349H110.484V36.4519H113.551V39.0119H113.609C114.105 38.1577 114.824 37.4536 115.69 36.9745C116.555 36.4953 117.534 36.2591 118.524 36.2909C122.441 36.2909 125.023 39.3788 125.023 44.1484ZM121.767 44.1484C121.767 41.0323 120.152 38.9837 117.688 38.9837C115.267 38.9837 113.639 41.0755 113.639 44.1484C113.639 47.2496 115.267 49.3265 117.688 49.3265C120.152 49.3265 121.767 47.2928 121.767 44.1484H121.767Z" fill="white"/>
<path d="M136.251 45.9615C136.486 48.055 138.525 49.4295 141.312 49.4295C143.982 49.4295 145.904 48.0549 145.904 46.1673C145.904 44.5287 144.745 43.5476 142.001 42.8752L139.258 42.2161C135.37 41.2798 133.566 39.4669 133.566 36.5251C133.566 32.8827 136.749 30.3809 141.269 30.3809C145.742 30.3809 148.809 32.8827 148.912 36.5251H145.714C145.522 34.4184 143.776 33.1467 141.224 33.1467C138.672 33.1467 136.925 34.4333 136.925 36.306C136.925 37.7985 138.041 38.6767 140.769 39.349L143.102 39.9201C147.445 40.9444 149.25 42.6843 149.25 45.7721C149.25 49.7216 146.095 52.1953 141.077 52.1953C136.382 52.1953 133.213 49.7797 133.008 45.9614L136.251 45.9615Z" fill="white"/>
<path d="M156.087 32.8096V36.452H159.022V38.9538H156.087V47.4389C156.087 48.757 156.675 49.3713 157.965 49.3713C158.313 49.3652 158.661 49.3408 159.007 49.2982V51.7851C158.427 51.8932 157.837 51.9421 157.247 51.9312C154.122 51.9312 152.904 50.7608 152.904 47.7758V38.9538H150.66V36.452H152.904V32.8096H156.087Z" fill="white"/>
<path d="M160.722 44.1484C160.722 39.3058 163.582 36.2627 168.042 36.2627C172.517 36.2627 175.364 39.3057 175.364 44.1484C175.364 49.0044 172.532 52.0342 168.042 52.0342C163.553 52.0342 160.722 49.0044 160.722 44.1484ZM172.136 44.1484C172.136 40.8265 170.609 38.8658 168.042 38.8658C165.475 38.8658 163.95 40.8414 163.95 44.1484C163.95 47.4837 165.475 49.4294 168.042 49.4294C170.609 49.4294 172.136 47.4837 172.136 44.1484H172.136Z" fill="white"/>
<path d="M177.976 36.4518H180.998V39.0715H181.071C181.275 38.2533 181.756 37.5303 182.432 37.0239C183.108 36.5175 183.939 36.2586 184.784 36.2908C185.149 36.2895 185.513 36.329 185.869 36.4086V39.3637C185.408 39.2233 184.927 39.1588 184.446 39.1728C183.985 39.1542 183.526 39.2351 183.101 39.41C182.675 39.5849 182.292 39.8497 181.978 40.1861C181.664 40.5225 181.428 40.9226 181.284 41.3589C181.14 41.7953 181.092 42.2575 181.144 42.7139V51.8431H177.976L177.976 36.4518Z" fill="white"/>
<path d="M200.476 47.3227C200.05 50.1167 197.321 52.0342 193.83 52.0342C189.34 52.0342 186.553 49.0343 186.553 44.2215C186.553 39.3938 189.355 36.2627 193.697 36.2627C197.967 36.2627 200.653 39.1879 200.653 43.8546V44.937H189.751V45.1279C189.701 45.6944 189.772 46.265 189.96 46.8019C190.148 47.3389 190.448 47.8298 190.841 48.2421C191.233 48.6544 191.71 48.9787 192.238 49.1935C192.766 49.4082 193.334 49.5084 193.903 49.4875C194.652 49.5574 195.403 49.3845 196.046 48.9945C196.688 48.6044 197.187 48.0181 197.468 47.3226L200.476 47.3227ZM189.766 42.729H197.483C197.511 42.2197 197.434 41.71 197.255 41.232C197.077 40.7539 196.801 40.3178 196.446 39.951C196.09 39.5842 195.663 39.2946 195.19 39.1004C194.717 38.9063 194.208 38.8117 193.697 38.8227C193.181 38.8196 192.67 38.9184 192.192 39.1135C191.715 39.3086 191.281 39.596 190.915 39.9591C190.55 40.3223 190.26 40.7541 190.063 41.2295C189.866 41.7049 189.765 42.2145 189.766 42.729V42.729Z" fill="white"/>
<path d="M78.4858 14.8426C79.15 14.795 79.8165 14.8951 80.4372 15.1355C81.0579 15.376 81.6174 15.7508 82.0753 16.2329C82.5332 16.7151 82.878 17.2926 83.085 17.9238C83.292 18.5549 83.3559 19.224 83.2721 19.8828C83.2721 23.1234 81.5158 24.9862 78.4858 24.9862H74.8115V14.8426H78.4858ZM76.3914 23.5517H78.3093C78.7839 23.58 79.2589 23.5024 79.6996 23.3245C80.1404 23.1467 80.5358 22.8731 80.8572 22.5236C81.1785 22.1741 81.4176 21.7576 81.5572 21.3044C81.6968 20.8511 81.7332 20.3725 81.6639 19.9035C81.7282 19.4362 81.688 18.9606 81.5463 18.5107C81.4046 18.0608 81.1649 17.6477 80.8443 17.301C80.5237 16.9543 80.1301 16.6826 79.6919 16.5054C79.2536 16.3282 78.7815 16.2499 78.3093 16.276H76.3914V23.5517Z" fill="white"/>
<path d="M85.0572 21.1554C85.0089 20.6524 85.0666 20.1448 85.2266 19.6653C85.3866 19.1858 85.6453 18.7449 85.9861 18.3709C86.327 17.997 86.7425 17.6982 87.2059 17.4937C87.6694 17.2892 88.1705 17.1836 88.6773 17.1836C89.1841 17.1836 89.6853 17.2892 90.1487 17.4937C90.6122 17.6982 91.0276 17.997 91.3685 18.3709C91.7093 18.7449 91.9681 19.1858 92.128 19.6653C92.288 20.1448 92.3457 20.6524 92.2975 21.1554C92.3466 21.659 92.2896 22.1673 92.1301 22.6476C91.9705 23.1279 91.7119 23.5696 91.371 23.9443C91.0301 24.319 90.6143 24.6184 90.1504 24.8233C89.6865 25.0282 89.1847 25.1341 88.6773 25.1341C88.1699 25.1341 87.6682 25.0282 87.2043 24.8233C86.7403 24.6184 86.3246 24.319 85.9836 23.9443C85.6427 23.5696 85.3841 23.1279 85.2246 22.6476C85.065 22.1673 85.008 21.659 85.0572 21.1554ZM90.7392 21.1554C90.7392 19.4961 89.9917 18.5258 88.6798 18.5258C87.3629 18.5258 86.6221 19.4961 86.6221 21.1555C86.6221 22.8281 87.363 23.7909 88.6798 23.7909C89.9917 23.7909 90.7392 22.8214 90.7392 21.1554H90.7392Z" fill="white"/>
<path d="M101.922 24.986H100.35L98.7635 19.3481H98.6436L97.0637 24.986H95.5071L93.3911 17.3311H94.9277L96.3029 23.1723H96.4161L97.9943 17.3311H99.4477L101.026 23.1723H101.146L102.514 17.3311H104.029L101.922 24.986Z" fill="white"/>
<path d="M105.809 17.3311H107.267V18.5471H107.38C107.572 18.1104 107.896 17.7442 108.307 17.4998C108.717 17.2553 109.194 17.1447 109.671 17.1833C110.044 17.1553 110.42 17.2115 110.768 17.3476C111.117 17.4838 111.431 17.6965 111.686 17.9699C111.941 18.2433 112.131 18.5705 112.242 18.9272C112.354 19.2839 112.383 19.661 112.328 20.0305V24.986H110.813V20.4098C110.813 19.1797 110.277 18.5679 109.157 18.5679C108.903 18.5561 108.65 18.5992 108.414 18.6941C108.179 18.789 107.967 18.9335 107.793 19.1178C107.619 19.302 107.487 19.5216 107.406 19.7616C107.325 20.0015 107.297 20.256 107.324 20.5078V24.9861H105.809L105.809 17.3311Z" fill="white"/>
<path d="M114.742 14.3428H116.257V24.986H114.742V14.3428Z" fill="white"/>
<path d="M118.363 21.1556C118.315 20.6525 118.372 20.1449 118.532 19.6654C118.692 19.1858 118.951 18.7449 119.292 18.3709C119.633 17.997 120.048 17.6982 120.512 17.4937C120.975 17.2892 121.477 17.1836 121.983 17.1836C122.49 17.1836 122.991 17.2892 123.455 17.4937C123.918 17.6982 124.334 17.997 124.675 18.3709C125.016 18.7449 125.274 19.1858 125.434 19.6654C125.594 20.1449 125.652 20.6525 125.604 21.1556C125.653 21.6592 125.596 22.1675 125.436 22.6477C125.277 23.128 125.018 23.5697 124.677 23.9444C124.336 24.3191 123.92 24.6185 123.456 24.8234C122.993 25.0283 122.491 25.1342 121.983 25.1342C121.476 25.1342 120.974 25.0283 120.51 24.8234C120.046 24.6185 119.631 24.3191 119.29 23.9444C118.949 23.5697 118.69 23.128 118.53 22.6477C118.371 22.1675 118.314 21.6592 118.363 21.1556ZM124.045 21.1556C124.045 19.4963 123.297 18.5259 121.985 18.5259C120.669 18.5259 119.928 19.4963 119.928 21.1556C119.928 22.8282 120.669 23.7911 121.985 23.7911C123.297 23.7911 124.045 22.8215 124.045 21.1556H124.045Z" fill="white"/>
<path d="M127.199 22.8215C127.199 21.4435 128.228 20.6492 130.054 20.5363L132.134 20.4167V19.756C132.134 18.9475 131.598 18.491 130.562 18.491C129.716 18.491 129.13 18.8006 128.962 19.3418H127.496C127.65 18.0269 128.891 17.1836 130.632 17.1836C132.557 17.1836 133.642 18.139 133.642 19.756V24.9863H132.184V23.9105H132.064C131.821 24.2964 131.479 24.611 131.074 24.8222C130.669 25.0333 130.215 25.1335 129.758 25.1124C129.436 25.1459 129.11 25.1116 128.802 25.0118C128.494 24.912 128.21 24.7489 127.969 24.5331C127.728 24.3172 127.535 24.0534 127.402 23.7586C127.27 23.4638 127.2 23.1446 127.199 22.8215ZM132.134 22.1674V21.5274L130.259 21.6469C129.202 21.7175 128.723 22.0761 128.723 22.7509C128.723 23.4399 129.322 23.8408 130.146 23.8408C130.387 23.8652 130.631 23.8409 130.863 23.7693C131.095 23.6977 131.31 23.5804 131.496 23.4243C131.681 23.2682 131.833 23.0764 131.943 22.8605C132.052 22.6446 132.117 22.4088 132.134 22.1674Z" fill="white"/>
<path d="M135.633 21.1552C135.633 18.7364 136.88 17.2041 138.82 17.2041C139.3 17.182 139.776 17.2966 140.193 17.5344C140.609 17.7723 140.95 18.1235 141.174 18.5471H141.287V14.3428H142.802V24.986H141.35V23.7766H141.23C140.989 24.1973 140.637 24.5442 140.212 24.7796C139.787 25.015 139.306 25.13 138.82 25.1122C136.867 25.1123 135.633 23.5799 135.633 21.1552ZM137.198 21.1552C137.198 22.7789 137.966 23.7559 139.249 23.7559C140.526 23.7559 141.315 22.7648 141.315 21.1619C141.315 19.5665 140.518 18.5613 139.249 18.5613C137.974 18.5613 137.198 19.5449 137.198 21.1552H137.198Z" fill="white"/>
<path d="M149.07 21.1554C149.022 20.6524 149.079 20.1448 149.239 19.6653C149.399 19.1858 149.658 18.7449 149.999 18.3709C150.34 17.997 150.755 17.6982 151.219 17.4937C151.682 17.2892 152.183 17.1836 152.69 17.1836C153.197 17.1836 153.698 17.2892 154.161 17.4937C154.625 17.6982 155.04 17.997 155.381 18.3709C155.722 18.7449 155.981 19.1858 156.141 19.6653C156.301 20.1448 156.358 20.6524 156.31 21.1554C156.359 21.659 156.302 22.1673 156.143 22.6476C155.983 23.1279 155.725 23.5696 155.384 23.9443C155.043 24.319 154.627 24.6184 154.163 24.8233C153.699 25.0282 153.197 25.1341 152.69 25.1341C152.183 25.1341 151.681 25.0282 151.217 24.8233C150.753 24.6184 150.337 24.319 149.996 23.9443C149.655 23.5696 149.397 23.1279 149.237 22.6476C149.078 22.1673 149.021 21.659 149.07 21.1554ZM154.752 21.1554C154.752 19.4961 154.004 18.5258 152.693 18.5258C151.376 18.5258 150.635 19.4961 150.635 21.1555C150.635 22.8281 151.376 23.7909 152.693 23.7909C154.004 23.7909 154.752 22.8214 154.752 21.1554Z" fill="white"/>
<path d="M158.343 17.3311H159.801V18.5471H159.914C160.106 18.1104 160.43 17.7442 160.841 17.4998C161.252 17.2553 161.728 17.1447 162.205 17.1833C162.579 17.1553 162.954 17.2115 163.303 17.3476C163.651 17.4838 163.965 17.6965 164.22 17.9699C164.475 18.2433 164.665 18.5705 164.777 18.9272C164.888 19.2839 164.917 19.661 164.862 20.0305V24.986H163.347V20.4098C163.347 19.1797 162.811 18.5679 161.691 18.5679C161.437 18.5561 161.184 18.5992 160.949 18.6941C160.713 18.789 160.501 18.9335 160.327 19.1178C160.153 19.302 160.021 19.5216 159.94 19.7616C159.859 20.0015 159.831 20.256 159.858 20.5078V24.9861H158.343V17.3311Z" fill="white"/>
<path d="M173.423 15.4248V17.3655H175.086V18.638H173.423V22.5743C173.423 23.3761 173.754 23.7272 174.508 23.7272C174.701 23.7266 174.894 23.715 175.086 23.6924V24.9508C174.814 24.9993 174.538 25.0251 174.262 25.028C172.577 25.028 171.906 24.4369 171.906 22.9611V18.638H170.688V17.3655H171.906V15.4248H173.423Z" fill="white"/>
<path d="M177.155 14.3428H178.657V18.5612H178.777C178.978 18.1204 179.311 17.7522 179.73 17.5068C180.149 17.2614 180.633 17.1508 181.117 17.1899C181.489 17.1698 181.86 17.2316 182.205 17.3711C182.55 17.5106 182.86 17.7242 183.112 17.9968C183.365 18.2694 183.554 18.5942 183.666 18.948C183.778 19.3018 183.811 19.676 183.761 20.0438V24.986H182.245V20.4164C182.245 19.1937 181.674 18.5745 180.603 18.5745C180.343 18.5532 180.081 18.5889 179.836 18.6791C179.591 18.7693 179.368 18.9118 179.184 19.0966C179 19.2815 178.859 19.5042 178.77 19.7493C178.681 19.9943 178.647 20.2557 178.67 20.5152V24.986H177.155L177.155 14.3428Z" fill="white"/>
<path d="M192.595 22.9196C192.389 23.6192 191.943 24.2243 191.335 24.6292C190.727 25.0341 189.995 25.2128 189.268 25.1342C188.763 25.1475 188.26 25.0509 187.795 24.8511C187.331 24.6513 186.915 24.3531 186.578 23.9772C186.241 23.6012 185.989 23.1566 185.842 22.6741C185.694 22.1916 185.653 21.6828 185.722 21.183C185.655 20.6817 185.696 20.1719 185.844 19.6879C185.991 19.204 186.241 18.7573 186.577 18.378C186.912 17.9988 187.326 17.6959 187.789 17.4899C188.252 17.2838 188.754 17.1794 189.262 17.1837C191.398 17.1837 192.686 18.6389 192.686 21.0427V21.5699H187.265V21.6545C187.242 21.9355 187.277 22.2182 187.369 22.4847C187.462 22.7512 187.609 22.9955 187.801 23.2019C187.994 23.4084 188.227 23.5725 188.487 23.6837C188.747 23.7949 189.027 23.8507 189.31 23.8475C189.672 23.8909 190.039 23.8258 190.365 23.6606C190.69 23.4953 190.958 23.2374 191.136 22.9195L192.595 22.9196ZM187.265 20.4526H191.143C191.162 20.1956 191.127 19.9376 191.04 19.695C190.953 19.4523 190.816 19.2305 190.638 19.0438C190.46 18.857 190.245 18.7094 190.007 18.6106C189.768 18.5117 189.511 18.4636 189.253 18.4695C188.991 18.4662 188.731 18.5153 188.488 18.6138C188.246 18.7123 188.025 18.8583 187.84 19.0431C187.655 19.2279 187.508 19.4478 187.41 19.6899C187.311 19.932 187.262 20.1913 187.265 20.4526H187.265Z" fill="white"/>
</svg>
