<svg width="155" height="163" viewBox="0 0 155 163" fill="none" xmlns="http://www.w3.org/2000/svg">
<g filter="url(#filter0_iii_392_2718)">
<path d="M134.657 126.574C133.453 129.511 132.114 132.282 130.642 134.885C129.17 137.489 127.564 139.992 125.825 142.396C123.55 145.6 121.475 148.337 119.602 150.607C117.728 152.877 116.056 154.679 114.584 156.015C112.442 158.017 110.134 159.553 107.658 160.621C105.182 161.689 102.673 162.223 100.131 162.223C98.257 162.223 96.2163 161.956 94.0082 161.422C91.8001 160.888 89.3578 160.087 86.6813 159.019C84.1387 157.951 81.663 157.183 79.2541 156.715C76.8453 156.248 74.5703 156.015 72.4291 156.015C70.0203 156.015 67.6115 156.248 65.2027 156.715C62.7938 157.183 60.2512 157.951 57.5747 159.019C54.8983 160.087 52.4895 160.921 50.3483 161.522C48.2071 162.123 46.3336 162.423 44.7277 162.423C42.3189 162.557 39.8766 162.09 37.4009 161.021C34.9251 159.953 32.416 158.284 29.8733 156.015C28.4012 154.546 26.6615 152.643 24.6542 150.307C22.6468 147.97 20.5057 145.133 18.2307 141.795C15.688 138.324 13.3796 134.518 11.3053 130.379C9.23103 126.24 7.32406 121.834 5.58435 117.161C3.84463 112.087 2.53987 107.081 1.67001 102.14C0.800156 97.2002 0.365234 92.3937 0.365234 87.7206C0.365234 82.2463 0.967433 77.1727 2.17185 72.4996C3.37627 67.8265 5.18286 63.4872 7.5917 59.4817C9.46523 56.4108 11.6064 53.607 14.0152 51.0701C16.4241 48.5333 19.1674 46.397 22.2454 44.6613C25.4571 42.7921 28.7023 41.3902 31.981 40.4555C35.2597 39.5209 38.7056 38.9868 42.3189 38.8533C44.3262 38.8533 46.6347 39.1537 49.2442 39.7546C51.8538 40.3554 54.7644 41.2566 57.9762 42.4583C61.0542 43.6599 63.6302 44.5612 65.7045 45.162C67.7788 45.7628 69.2843 46.0632 70.2211 46.0632C70.8902 46.0632 72.3622 45.7295 74.6372 45.0619C76.9122 44.3943 79.9901 43.3262 83.871 41.8575C87.4843 40.5223 90.8298 39.5877 93.9078 39.0536C96.9857 38.5195 99.796 38.386 102.339 38.653C109.164 39.1871 115.152 40.7893 120.304 43.4597C125.457 46.13 129.772 49.9352 133.252 54.8754C127.096 58.4804 122.513 62.8864 119.502 68.0936C116.49 73.3008 114.985 79.2422 114.985 85.9181C114.985 91.1253 115.955 95.8651 117.896 100.138C119.836 104.41 122.613 108.282 126.226 111.754C127.966 113.356 129.772 114.758 131.646 115.959C133.52 117.161 135.46 118.229 137.467 119.164C137.066 120.365 136.631 121.601 136.163 122.869C135.694 124.137 135.192 125.372 134.657 126.574Z" fill="url(#paint0_radial_392_2718)"/>
</g>
<g opacity="0.5">
<mask id="mask0_392_2718" style="mask-type:alpha" maskUnits="userSpaceOnUse" x="0" y="38" width="138" height="125">
<path d="M134.429 126.575C133.224 129.512 131.886 132.282 130.414 134.886C128.942 137.49 127.336 139.993 125.596 142.396C123.321 145.601 121.247 148.338 119.373 150.608C117.5 152.877 115.827 154.68 114.355 156.015C112.214 158.018 109.905 159.553 107.43 160.621C104.954 161.689 102.445 162.224 99.9021 162.224C98.0285 162.224 95.9877 161.957 93.7796 161.422C91.5715 160.888 89.1293 160.087 86.4528 159.019C83.9102 157.951 81.4344 157.183 79.0256 156.716C76.6168 156.249 74.3418 156.015 72.2006 156.015C69.7918 156.015 67.383 156.249 64.9742 156.716C62.5653 157.183 60.0227 157.951 57.3462 159.019C54.6697 160.087 52.2609 160.922 50.1198 161.523C47.9786 162.123 46.1051 162.424 44.4992 162.424C42.0903 162.557 39.6481 162.09 37.1723 161.022C34.6966 159.954 32.1874 158.285 29.6448 156.015C28.1727 154.546 26.433 152.644 24.4257 150.307C22.4183 147.971 20.2772 145.133 18.0021 141.795C15.4595 138.324 13.1511 134.519 11.0768 130.38C9.00251 126.241 7.09554 121.835 5.35583 117.162C3.61612 112.088 2.31135 107.081 1.4415 102.141C0.57164 97.2007 0.136719 92.3942 0.136719 87.7211C0.136719 82.2468 0.738918 77.1732 1.94334 72.5001C3.14775 67.827 4.95435 63.4877 7.36318 59.4822C9.23672 56.4113 11.3779 53.6075 13.7867 51.0706C16.1955 48.5338 18.9389 46.3975 22.0168 44.6618C25.2286 42.7926 28.4738 41.3906 31.7525 40.456C35.0312 39.5214 38.4771 38.9873 42.0904 38.8538C44.0977 38.8538 46.4061 39.1542 49.0157 39.7551C51.6253 40.3559 54.5359 41.2571 57.7477 42.4588C60.8256 43.6604 63.4017 44.5617 65.476 45.1625C67.5503 45.7633 69.0558 46.0637 69.9925 46.0637C70.6617 46.0637 72.1337 45.7299 74.4087 45.0624C76.6837 44.3948 79.7616 43.3266 83.6425 41.8579C87.2558 40.5228 90.6013 39.5882 93.6793 39.0541C96.7572 38.52 99.5675 38.3865 102.11 38.6535C108.935 39.1876 114.924 40.7898 120.076 43.4602C125.228 46.1305 129.544 49.9357 133.023 54.8759C126.867 58.4808 122.284 62.8869 119.273 68.0941C116.262 73.3012 114.756 79.2427 114.756 85.9186C114.756 91.1258 115.727 95.8656 117.667 100.138C119.608 104.411 122.384 108.283 125.998 111.754C127.737 113.356 129.544 114.758 131.417 115.96C133.291 117.162 135.231 118.23 137.239 119.164C136.837 120.366 136.402 121.601 135.934 122.869C135.466 124.138 134.964 125.373 134.429 126.575Z" fill="#303638"/>
</mask>
<g mask="url(#mask0_392_2718)">
<g opacity="0.6" filter="url(#filter1_d_392_2718)">
<path d="M54.1527 46.0726C50.8666 42.6033 42.594 38.8458 35.0264 39.6682C23.3396 36.9737 57.1248 33.5474 71.0602 33.5474C84.9956 33.5474 104.081 37.9583 98.1386 38.5641C92.3434 39.155 88.0675 41.1838 83.5222 46.7427C78.9768 52.3016 74.1776 57.0206 68.8992 57.0206C63.6208 57.0206 59.4904 51.7078 54.1527 46.0726Z" fill="url(#paint1_linear_392_2718)"/>
</g>
<g opacity="0.7" filter="url(#filter2_i_392_2718)">
<ellipse cx="129.559" cy="87.3842" rx="32.7845" ry="32.7094" fill="url(#paint2_linear_392_2718)"/>
</g>
</g>
</g>
<mask id="mask1_392_2718" style="mask-type:alpha" maskUnits="userSpaceOnUse" x="69" y="0" width="35" height="39">
<path d="M103.342 3.40468C103.342 7.41021 102.572 11.3156 101.033 15.1208C99.4944 18.9261 97.2529 22.5644 94.3087 26.0358C90.6955 30.1749 86.7812 33.3792 82.5657 35.649C78.3503 37.9189 73.9007 38.8535 69.2168 38.4529C69.083 37.9188 69.0161 37.4182 69.0161 36.9508C69.0161 36.4835 69.0161 35.9828 69.0161 35.4488C69.0161 31.4432 69.819 27.4378 71.4249 23.4322C73.0308 19.4267 75.3727 15.755 78.4507 12.4171C79.9227 10.6814 81.629 9.07916 83.5694 7.61047C85.5099 6.14178 87.6176 4.87338 89.8926 3.80523C92.3014 2.60358 94.5764 1.70234 96.7176 1.10152C98.8587 0.500687 101 0.133517 103.141 0C103.141 0.534071 103.175 1.10151 103.241 1.70234C103.308 2.30317 103.342 2.87061 103.342 3.40468Z" fill="#303638"/>
</mask>
<g mask="url(#mask1_392_2718)">
<g filter="url(#filter3_iii_392_2718)">
<path d="M103.342 3.40468C103.342 7.41021 102.572 11.3156 101.033 15.1208C99.4944 18.9261 97.2529 22.5644 94.3087 26.0358C90.6955 30.1749 86.7812 33.3792 82.5657 35.649C78.3503 37.9189 73.9007 38.8535 69.2168 38.4529C69.083 37.9188 69.0161 37.4182 69.0161 36.9508C69.0161 36.4835 69.0161 35.9828 69.0161 35.4488C69.0161 31.4432 69.819 27.4378 71.4249 23.4322C73.0308 19.4267 75.3727 15.755 78.4507 12.4171C79.9227 10.6814 81.629 9.07916 83.5694 7.61047C85.5099 6.14178 87.6176 4.87338 89.8926 3.80523C92.3014 2.60358 94.5764 1.70234 96.7176 1.10152C98.8587 0.500687 101 0.133517 103.141 0C103.141 0.534071 103.175 1.10151 103.241 1.70234C103.308 2.30317 103.342 2.87061 103.342 3.40468Z" fill="#303638"/>
</g>
<path opacity="0.5" d="M116.303 11.8981C116.303 18.0242 115.126 23.9971 112.772 29.8169C110.419 35.6367 106.99 41.2012 102.488 46.5105C96.9614 52.8408 90.9748 57.7416 84.5277 61.2131C78.0805 64.6846 71.2752 66.114 64.1117 65.5014C63.907 64.6845 63.8047 63.9188 63.8047 63.2041C63.8047 62.4894 63.8047 61.7236 63.8047 60.9068C63.8047 54.7807 65.0327 48.6547 67.4888 42.5285C69.9448 36.4024 73.5266 30.7869 78.234 25.6818C80.4854 23.0271 83.0949 20.5767 86.0627 18.3305C89.0304 16.0842 92.254 14.1443 95.7334 12.5107C99.4175 10.6729 102.897 9.29451 106.172 8.37559C109.446 7.45668 112.721 6.89512 115.996 6.69092C115.996 7.50773 116.047 8.37559 116.149 9.2945C116.252 10.2134 116.303 11.0813 116.303 11.8981Z" fill="url(#paint3_linear_392_2718)"/>
<g opacity="0.2">
<g filter="url(#filter4_f_392_2718)">
<path d="M82.7676 20.999C76.4621 25.3754 68.4242 37.7474 67.3608 40.8392H70.5394C73.6171 32.4949 79.5552 23.9782 82.7676 20.999Z" fill="white"/>
</g>
<g filter="url(#filter5_f_392_2718)">
<path d="M82.7676 20.999C76.4621 25.3754 68.4242 37.7474 67.3608 40.8392H70.5394C73.6171 32.4949 79.5552 23.9782 82.7676 20.999Z" fill="white"/>
</g>
</g>
</g>
<g opacity="0.15">
<g filter="url(#filter6_f_392_2718)">
<path d="M108.819 112.165C101.724 105.435 99.1999 99.8362 98.6431 97.4429C105.985 110.57 112.163 114.123 121.685 117.605C129.303 120.389 135.909 119.2 138.259 118.257L137.605 119.78C132.516 122.971 117.688 120.578 108.819 112.165Z" fill="white"/>
</g>
<g opacity="0.5" filter="url(#filter7_f_392_2718)">
<path d="M108.819 112.165C101.724 105.435 99.1999 99.8362 98.6431 97.4429C105.985 110.57 112.163 114.123 121.685 117.605C129.303 120.389 135.909 119.2 138.259 118.257L137.605 119.78C132.516 122.971 117.688 120.578 108.819 112.165Z" fill="white"/>
</g>
</g>
<defs>
<filter id="filter0_iii_392_2718" x="0.365234" y="38.5195" width="137.102" height="161.926" filterUnits="userSpaceOnUse" color-interpolation-filters="sRGB">
<feFlood flood-opacity="0" result="BackgroundImageFix"/>
<feBlend mode="normal" in="SourceGraphic" in2="BackgroundImageFix" result="shape"/>
<feColorMatrix in="SourceAlpha" type="matrix" values="0 0 0 0 0 0 0 0 0 0 0 0 0 0 0 0 0 0 127 0" result="hardAlpha"/>
<feOffset dy="4"/>
<feGaussianBlur stdDeviation="56"/>
<feComposite in2="hardAlpha" operator="arithmetic" k2="-1" k3="1"/>
<feColorMatrix type="matrix" values="0 0 0 0 0 0 0 0 0 0 0 0 0 0 0 0 0 0 0.54 0"/>
<feBlend mode="normal" in2="shape" result="effect1_innerShadow_392_2718"/>
<feColorMatrix in="SourceAlpha" type="matrix" values="0 0 0 0 0 0 0 0 0 0 0 0 0 0 0 0 0 0 127 0" result="hardAlpha"/>
<feOffset dy="38"/>
<feGaussianBlur stdDeviation="36"/>
<feComposite in2="hardAlpha" operator="arithmetic" k2="-1" k3="1"/>
<feColorMatrix type="matrix" values="0 0 0 0 0.366667 0 0 0 0 0.391667 0 0 0 0 0.4 0 0 0 1 0"/>
<feBlend mode="normal" in2="effect1_innerShadow_392_2718" result="effect2_innerShadow_392_2718"/>
<feColorMatrix in="SourceAlpha" type="matrix" values="0 0 0 0 0 0 0 0 0 0 0 0 0 0 0 0 0 0 127 0" result="hardAlpha"/>
<feOffset dy="6"/>
<feGaussianBlur stdDeviation="11"/>
<feComposite in2="hardAlpha" operator="arithmetic" k2="-1" k3="1"/>
<feColorMatrix type="matrix" values="0 0 0 0 0.187292 0 0 0 0 0.240573 0 0 0 0 0.258333 0 0 0 0.54 0"/>
<feBlend mode="normal" in2="effect2_innerShadow_392_2718" result="effect3_innerShadow_392_2718"/>
</filter>
<filter id="filter1_d_392_2718" x="14.6113" y="32.5474" width="84.6421" height="39.4731" filterUnits="userSpaceOnUse" color-interpolation-filters="sRGB">
<feFlood flood-opacity="0" result="BackgroundImageFix"/>
<feColorMatrix in="SourceAlpha" type="matrix" values="0 0 0 0 0 0 0 0 0 0 0 0 0 0 0 0 0 0 127 0" result="hardAlpha"/>
<feOffset dx="-10" dy="7"/>
<feGaussianBlur stdDeviation="4"/>
<feColorMatrix type="matrix" values="0 0 0 0 0.439375 0 0 0 0 0.452589 0 0 0 0 0.4625 0 0 0 0.45 0"/>
<feBlend mode="normal" in2="BackgroundImageFix" result="effect1_dropShadow_392_2718"/>
<feBlend mode="normal" in="SourceGraphic" in2="effect1_dropShadow_392_2718" result="shape"/>
</filter>
<filter id="filter2_i_392_2718" x="96.7744" y="54.6748" width="74.5688" height="74.4189" filterUnits="userSpaceOnUse" color-interpolation-filters="sRGB">
<feFlood flood-opacity="0" result="BackgroundImageFix"/>
<feBlend mode="normal" in="SourceGraphic" in2="BackgroundImageFix" result="shape"/>
<feColorMatrix in="SourceAlpha" type="matrix" values="0 0 0 0 0 0 0 0 0 0 0 0 0 0 0 0 0 0 127 0" result="hardAlpha"/>
<feOffset dx="25" dy="36"/>
<feGaussianBlur stdDeviation="4.5"/>
<feComposite in2="hardAlpha" operator="arithmetic" k2="-1" k3="1"/>
<feColorMatrix type="matrix" values="0 0 0 0 0 0 0 0 0 0 0 0 0 0 0 0 0 0 0.13 0"/>
<feBlend mode="normal" in2="shape" result="effect1_innerShadow_392_2718"/>
</filter>
<filter id="filter3_iii_392_2718" x="69.0161" y="0" width="34.3257" height="52.543" filterUnits="userSpaceOnUse" color-interpolation-filters="sRGB">
<feFlood flood-opacity="0" result="BackgroundImageFix"/>
<feBlend mode="normal" in="SourceGraphic" in2="BackgroundImageFix" result="shape"/>
<feColorMatrix in="SourceAlpha" type="matrix" values="0 0 0 0 0 0 0 0 0 0 0 0 0 0 0 0 0 0 127 0" result="hardAlpha"/>
<feOffset dy="4"/>
<feGaussianBlur stdDeviation="56"/>
<feComposite in2="hardAlpha" operator="arithmetic" k2="-1" k3="1"/>
<feColorMatrix type="matrix" values="0 0 0 0 0 0 0 0 0 0 0 0 0 0 0 0 0 0 0.54 0"/>
<feBlend mode="normal" in2="shape" result="effect1_innerShadow_392_2718"/>
<feColorMatrix in="SourceAlpha" type="matrix" values="0 0 0 0 0 0 0 0 0 0 0 0 0 0 0 0 0 0 127 0" result="hardAlpha"/>
<feOffset dy="14"/>
<feGaussianBlur stdDeviation="20"/>
<feComposite in2="hardAlpha" operator="arithmetic" k2="-1" k3="1"/>
<feColorMatrix type="matrix" values="0 0 0 0 0.366667 0 0 0 0 0.391667 0 0 0 0 0.4 0 0 0 1 0"/>
<feBlend mode="normal" in2="effect1_innerShadow_392_2718" result="effect2_innerShadow_392_2718"/>
<feColorMatrix in="SourceAlpha" type="matrix" values="0 0 0 0 0 0 0 0 0 0 0 0 0 0 0 0 0 0 127 0" result="hardAlpha"/>
<feOffset dy="6"/>
<feGaussianBlur stdDeviation="11"/>
<feComposite in2="hardAlpha" operator="arithmetic" k2="-1" k3="1"/>
<feColorMatrix type="matrix" values="0 0 0 0 0.366667 0 0 0 0 0.391667 0 0 0 0 0.4 0 0 0 1 0"/>
<feBlend mode="normal" in2="effect2_innerShadow_392_2718" result="effect3_innerShadow_392_2718"/>
</filter>
<filter id="filter4_f_392_2718" x="51.3608" y="4.99902" width="47.4067" height="51.8403" filterUnits="userSpaceOnUse" color-interpolation-filters="sRGB">
<feFlood flood-opacity="0" result="BackgroundImageFix"/>
<feBlend mode="normal" in="SourceGraphic" in2="BackgroundImageFix" result="shape"/>
<feGaussianBlur stdDeviation="8" result="effect1_foregroundBlur_392_2718"/>
</filter>
<filter id="filter5_f_392_2718" x="60.3608" y="13.999" width="29.4067" height="33.8403" filterUnits="userSpaceOnUse" color-interpolation-filters="sRGB">
<feFlood flood-opacity="0" result="BackgroundImageFix"/>
<feBlend mode="normal" in="SourceGraphic" in2="BackgroundImageFix" result="shape"/>
<feGaussianBlur stdDeviation="3.5" result="effect1_foregroundBlur_392_2718"/>
</filter>
<filter id="filter6_f_392_2718" x="82.6431" y="81.4429" width="71.6157" height="55.6948" filterUnits="userSpaceOnUse" color-interpolation-filters="sRGB">
<feFlood flood-opacity="0" result="BackgroundImageFix"/>
<feBlend mode="normal" in="SourceGraphic" in2="BackgroundImageFix" result="shape"/>
<feGaussianBlur stdDeviation="8" result="effect1_foregroundBlur_392_2718"/>
</filter>
<filter id="filter7_f_392_2718" x="95.6431" y="94.4429" width="45.6157" height="29.6948" filterUnits="userSpaceOnUse" color-interpolation-filters="sRGB">
<feFlood flood-opacity="0" result="BackgroundImageFix"/>
<feBlend mode="normal" in="SourceGraphic" in2="BackgroundImageFix" result="shape"/>
<feGaussianBlur stdDeviation="1.5" result="effect1_foregroundBlur_392_2718"/>
</filter>
<radialGradient id="paint0_radial_392_2718" cx="0" cy="0" r="1" gradientUnits="userSpaceOnUse" gradientTransform="translate(29.1077 59.7582) rotate(42.4905) scale(84.6644 93.4331)">
<stop stop-color="#3C4143"/>
<stop offset="1" stop-color="#1D2022"/>
</radialGradient>
<linearGradient id="paint1_linear_392_2718" x1="60.8466" y1="43.6082" x2="83.7999" y2="49.6772" gradientUnits="userSpaceOnUse">
<stop stop-color="#2A2E30"/>
<stop offset="1" stop-color="#1E2123" stop-opacity="0"/>
</linearGradient>
<linearGradient id="paint2_linear_392_2718" x1="107.106" y1="73.7782" x2="135.146" y2="100.23" gradientUnits="userSpaceOnUse">
<stop stop-color="#1A1E1F"/>
<stop offset="1" stop-color="#5D656A"/>
</linearGradient>
<linearGradient id="paint3_linear_392_2718" x1="70.992" y1="36.8088" x2="97.6215" y2="16.3339" gradientUnits="userSpaceOnUse">
<stop stop-color="#0F1112"/>
<stop offset="1" stop-opacity="0"/>
</linearGradient>
</defs>
</svg>
