<svg width="38" height="38" viewBox="0 0 38 38" fill="none" xmlns="http://www.w3.org/2000/svg">
<path d="M35.6439 16.806L33.2751 14.0548C32.8222 13.5325 32.4565 12.5574 32.4565 11.8609V8.90078C32.4565 7.05507 30.9411 5.5402 29.0948 5.5402H26.1338C25.4545 5.5402 24.4617 5.17454 23.9392 4.72182L21.1872 2.35375C19.9853 1.32642 18.0171 1.32642 16.7979 2.35375L14.0633 4.73923C13.5408 5.17454 12.548 5.5402 11.8687 5.5402H8.85541C7.00912 5.5402 5.49378 7.05507 5.49378 8.90078V11.8783C5.49378 12.5574 5.12801 13.5325 4.69256 14.0548L2.34117 16.8234C1.33094 18.0248 1.33094 19.975 2.34117 21.1765L4.69256 23.945C5.12801 24.4674 5.49378 25.4425 5.49378 26.1216V29.0991C5.49378 30.9448 7.00912 32.4596 8.85541 32.4596H11.8687C12.548 32.4596 13.5408 32.8253 14.0633 33.278L16.8153 35.6461C18.0171 36.6734 19.9853 36.6734 21.2046 35.6461L23.9566 33.278C24.4791 32.8253 25.4545 32.4596 26.1512 32.4596H29.1122C30.9585 32.4596 32.4739 30.9448 32.4739 29.0991V26.139C32.4739 25.4599 32.8396 24.4674 33.2925 23.945L35.6613 21.1939C36.6716 19.9924 36.6716 18.0074 35.6439 16.806ZM27.144 18.9999L25.1062 25.1987C24.8449 26.226 23.7476 27.0618 22.6328 27.0618H19.4106C18.8532 27.0618 18.0694 26.8703 17.721 26.522L15.1606 24.5196C15.1084 25.634 14.6033 26.1041 13.3666 26.1041H12.5306C11.2416 26.1041 10.7191 25.5992 10.7191 24.3803V16.0572C10.7191 14.8384 11.2416 14.3334 12.5306 14.3334H13.384C14.6729 14.3334 15.1955 14.8384 15.1955 16.0572V16.6841L18.5745 11.6693C18.9229 11.1296 19.8112 10.7465 20.5601 11.0425C21.3788 11.3211 21.9013 12.2265 21.7271 13.0275L21.3091 15.7438C21.2743 15.9876 21.3265 16.2139 21.4833 16.3881C21.6226 16.5448 21.8316 16.6493 22.0581 16.6493H25.4545C26.1164 16.6493 26.6738 16.9104 27.0047 17.3806C27.3008 17.8333 27.3531 18.4079 27.144 18.9999Z" fill="white"/>
</svg>
