<svg width="33" height="38" viewBox="0 0 33 38" fill="none" xmlns="http://www.w3.org/2000/svg">
<rect x="4" y="1.00049" width="28" height="36" rx="2" fill="white" stroke="#181818"/>
<path d="M6 5.50049C6 4.11978 4.88071 3.00049 3.5 3.00049C2.11929 3.00049 1 4.11978 1 5.50049C1 6.8812 2.11929 8.00049 3.5 8.00049" stroke="#0047FE"/>
<path d="M6 7.50049C6 6.11978 4.88071 5.00049 3.5 5.00049C2.11929 5.00049 1 6.11978 1 7.50049C1 8.8812 2.11929 10.0005 3.5 10.0005" stroke="#0047FE"/>
<path d="M6 13.5005C6 12.1198 4.88071 11.0005 3.5 11.0005C2.11929 11.0005 1 12.1198 1 13.5005C1 14.8812 2.11929 16.0005 3.5 16.0005" stroke="#0047FE"/>
<path d="M6 15.5005C6 14.1198 4.88071 13.0005 3.5 13.0005C2.11929 13.0005 1 14.1198 1 15.5005C1 16.8812 2.11929 18.0005 3.5 18.0005" stroke="#0047FE"/>
<path d="M6 21.5005C6 20.1198 4.88071 19.0005 3.5 19.0005C2.11929 19.0005 1 20.1198 1 21.5005C1 22.8812 2.11929 24.0005 3.5 24.0005" stroke="#0047FE"/>
<path d="M6 23.5005C6 22.1198 4.88071 21.0005 3.5 21.0005C2.11929 21.0005 1 22.1198 1 23.5005C1 24.8812 2.11929 26.0005 3.5 26.0005" stroke="#0047FE"/>
<path d="M6 29.5005C6 28.1198 4.88071 27.0005 3.5 27.0005C2.11929 27.0005 1 28.1198 1 29.5005C1 30.8812 2.11929 32.0005 3.5 32.0005" stroke="#0047FE"/>
<path d="M6 31.5005C6 30.1198 4.88071 29.0005 3.5 29.0005C2.11929 29.0005 1 30.1198 1 31.5005C1 32.8812 2.11929 34.0005 3.5 34.0005" stroke="#0047FE"/>
</svg>
