<svg width="14" height="15" viewBox="0 0 14 15" fill="none" xmlns="http://www.w3.org/2000/svg">
<path d="M1.1665 5.05575V9.94408C1.1665 10.8132 1.3765 11.5366 1.779 12.0907C1.94817 12.3357 2.164 12.5516 2.409 12.7207C2.88734 13.0707 3.494 13.2749 4.2115 13.3216V1.68408C2.29817 1.80658 1.1665 3.04908 1.1665 5.05575Z"/>
<path d="M12.2206 2.909C12.0514 2.664 11.8356 2.44817 11.5906 2.279C11.0364 1.8765 10.3131 1.6665 9.44393 1.6665H5.08643V13.3332H9.44393C11.5673 13.3332 12.8331 12.0673 12.8331 9.944V5.05567C12.8331 4.1865 12.6231 3.46317 12.2206 2.909ZM9.04143 8.684C9.21059 8.85317 9.21059 9.13317 9.04143 9.30234C8.95393 9.38984 8.84309 9.43067 8.73226 9.43067C8.62143 9.43067 8.51059 9.38984 8.42309 9.30234L6.92976 7.809C6.76059 7.63984 6.76059 7.35984 6.92976 7.19067L8.42309 5.69734C8.59226 5.52817 8.87226 5.52817 9.04143 5.69734C9.21059 5.8665 9.21059 6.1465 9.04143 6.31567L7.86309 7.49984L9.04143 8.684Z"/>
</svg>
