<svg width="33" height="38" viewBox="0 0 33 38" fill="none" xmlns="http://www.w3.org/2000/svg">
<rect x="4" y="1.00049" width="28" height="36" rx="2" fill="white" stroke="#181818"/>
<path d="M7 5.50049C7 6.32892 5.65685 7.00049 4 7.00049C2.34315 7.00049 1 6.32892 1 5.50049C1 4.67206 2.34315 4.00049 4 4.00049" stroke="#0047FE"/>
<path d="M7 8.50049C7 9.32892 5.65685 10.0005 4 10.0005C2.34315 10.0005 1 9.32892 1 8.50049C1 7.67206 2.34315 7.00049 4 7.00049" stroke="#0047FE"/>
<path d="M7 11.5005C7 12.3289 5.65685 13.0005 4 13.0005C2.34315 13.0005 1 12.3289 1 11.5005C1 10.6721 2.34315 10.0005 4 10.0005" stroke="#0047FE"/>
<path d="M7 14.5005C7 15.3289 5.65685 16.0005 4 16.0005C2.34315 16.0005 1 15.3289 1 14.5005C1 13.6721 2.34315 13.0005 4 13.0005" stroke="#0047FE"/>
<path d="M7 17.5005C7 18.3289 5.65685 19.0005 4 19.0005C2.34315 19.0005 1 18.3289 1 17.5005C1 16.6721 2.34315 16.0005 4 16.0005" stroke="#0047FE"/>
<path d="M7 20.5005C7 21.3289 5.65685 22.0005 4 22.0005C2.34315 22.0005 1 21.3289 1 20.5005C1 19.6721 2.34315 19.0005 4 19.0005" stroke="#0047FE"/>
<path d="M7 23.5005C7 24.3289 5.65685 25.0005 4 25.0005C2.34315 25.0005 1 24.3289 1 23.5005C1 22.6721 2.34315 22.0005 4 22.0005" stroke="#0047FE"/>
<path d="M7 26.5005C7 27.3289 5.65685 28.0005 4 28.0005C2.34315 28.0005 1 27.3289 1 26.5005C1 25.6721 2.34315 25.0005 4 25.0005" stroke="#0047FE"/>
<path d="M7 29.5005C7 30.3289 5.65685 31.0005 4 31.0005C2.34315 31.0005 1 30.3289 1 29.5005C1 28.6721 2.34315 28.0005 4 28.0005" stroke="#0047FE"/>
<path d="M7 32.5005C7 33.3289 5.65685 34.0005 4 34.0005C2.34315 34.0005 1 33.3289 1 32.5005C1 31.6721 2.34315 31.0005 4 31.0005" stroke="#0047FE"/>
</svg>
