<svg width="38" height="38" viewBox="0 0 38 38" fill="none" xmlns="http://www.w3.org/2000/svg">
<path d="M34.0416 17.2587V6.49199C34.0416 4.11699 33.0283 3.16699 30.5108 3.16699H24.1141C21.5966 3.16699 20.5833 4.11699 20.5833 6.49199V17.2587C20.5833 19.6337 21.5966 20.5837 24.1141 20.5837H30.5108C33.0283 20.5837 34.0416 19.6337 34.0416 17.2587Z" fill="white"/>
<path d="M17.4166 20.742V31.5087C17.4166 33.8837 16.4033 34.8337 13.8858 34.8337H7.48909C4.97159 34.8337 3.95825 33.8837 3.95825 31.5087V20.742C3.95825 18.367 4.97159 17.417 7.48909 17.417H13.8858C16.4033 17.417 17.4166 18.367 17.4166 20.742Z" fill="white"/>
<path d="M34.0416 31.5083V27.075C34.0416 24.7 33.0283 23.75 30.5108 23.75H24.1141C21.5966 23.75 20.5833 24.7 20.5833 27.075V31.5083C20.5833 33.8833 21.5966 34.8333 24.1141 34.8333H30.5108C33.0283 34.8333 34.0416 33.8833 34.0416 31.5083Z" fill="white"/>
<path d="M17.4166 10.9253V6.49199C17.4166 4.11699 16.4033 3.16699 13.8858 3.16699H7.48909C4.97159 3.16699 3.95825 4.11699 3.95825 6.49199V10.9253C3.95825 13.3003 4.97159 14.2503 7.48909 14.2503H13.8858C16.4033 14.2503 17.4166 13.3003 17.4166 10.9253Z" fill="white"/>
</svg>
