<svg width="28" height="28" viewBox="0 0 28 28" fill="none" xmlns="http://www.w3.org/2000/svg">
<path d="M13.2819 17.8215C14.5781 17.8168 17.4121 17.8063 17.3794 16.0038C17.3479 14.1604 14.626 14.2712 13.2994 14.3261C13.1513 14.3319 13.0194 14.3377 12.9121 14.3389L12.9728 17.8238C13.0603 17.8215 13.1653 17.8215 13.2819 17.8215ZM13.1443 12.7429C14.2258 12.7417 16.586 12.7394 16.558 11.1002C16.5277 9.42369 14.2608 9.52285 13.1536 9.57186C13.0288 9.57769 12.9203 9.58236 12.8293 9.58352L12.8841 12.7441L13.1443 12.7429Z" fill="white"/>
<path fill-rule="evenodd" clip-rule="evenodd" d="M10.6114 27.5819C18.1132 29.4521 25.7108 24.8869 27.581 17.3875C29.4512 9.88686 24.8848 2.28943 17.3829 0.420405C9.88567 -1.45095 2.28812 3.11544 0.419065 10.6172C-1.45116 18.1166 3.11414 25.7141 10.6125 27.5831L10.6114 27.5819ZM15.6072 7.725C17.6536 7.86967 19.2823 8.46934 19.4958 10.3407C19.6545 11.7104 19.0944 12.5446 18.1856 13.0276C19.7023 13.3636 20.6648 14.2444 20.5131 16.2604C20.3253 18.763 18.4738 19.4665 15.816 19.6648L15.8603 22.2899L14.2783 22.319L14.2328 19.729C13.8233 19.736 13.4033 19.7407 12.9681 19.7383L13.0148 22.34L11.4327 22.368L11.386 19.7383L10.9392 19.7418C10.7129 19.743 10.4842 19.7442 10.2555 19.7488L8.19512 19.7838L8.4763 17.8891C8.4763 17.8891 9.64767 17.8868 9.62666 17.8693C10.0747 17.86 10.1878 17.5368 10.2123 17.3338L10.1412 13.1839L10.2543 13.1816H10.308C10.2523 13.1752 10.1961 13.1725 10.14 13.1734L10.0887 10.21C10.0222 9.89036 9.8075 9.52169 9.16698 9.53335C9.18448 9.51002 8.01662 9.55319 8.01662 9.55319L7.98628 7.86383L10.1703 7.8265V7.83467C10.4982 7.82883 10.8354 7.81717 11.1772 7.80433L11.1329 5.2038L12.7149 5.17697L12.7593 7.725C13.1816 7.70983 13.6063 7.6935 14.0228 7.6865L13.9785 5.1548L15.5617 5.1268L15.6072 7.72733V7.725Z" fill="white"/>
</svg>
