<svg width="30" height="32" viewBox="0 0 30 32" fill="none" xmlns="http://www.w3.org/2000/svg">
<path d="M21.3333 0.166748H8.66667C4.29667 0.166748 0.75 3.71341 0.75 8.08341V23.9167C0.75 28.2867 4.29667 31.8334 8.66667 31.8334H21.3333C25.7033 31.8334 29.25 28.2867 29.25 23.9167V8.08341C29.25 3.71341 25.7033 0.166748 21.3333 0.166748ZM10.0283 26.4976C9.7275 26.7984 9.33167 26.9567 8.92 26.9567C8.4925 26.9567 8.09667 26.7984 7.79583 26.4976C7.495 26.1967 7.32083 25.8009 7.32083 25.3734C7.32083 24.9617 7.495 24.5501 7.79583 24.2492C7.93833 24.1067 8.1125 23.9959 8.3025 23.9167C8.69833 23.7584 9.12583 23.7584 9.52167 23.9167C9.61667 23.9484 9.71167 23.9959 9.79083 24.0592C9.88583 24.1067 9.965 24.1859 10.0283 24.2492C10.3292 24.5501 10.5033 24.9617 10.5033 25.3734C10.5033 25.8009 10.3292 26.1967 10.0283 26.4976ZM7.32083 19.0401C7.32083 18.8342 7.36833 18.6284 7.4475 18.4384C7.52667 18.2326 7.6375 18.0742 7.79583 17.9159C8.16 17.5517 8.71417 17.3776 9.22083 17.4884C9.31583 17.5042 9.42667 17.5359 9.52167 17.5834C9.61667 17.6151 9.71167 17.6626 9.79083 17.7259C9.88583 17.7734 9.965 17.8526 10.0283 17.9159C10.1708 18.0742 10.2975 18.2326 10.3767 18.4384C10.4558 18.6284 10.4875 18.8342 10.4875 19.0401C10.4875 19.4676 10.3292 19.8634 10.0283 20.1642C9.7275 20.4651 9.33167 20.6234 8.92 20.6234C8.69833 20.6234 8.4925 20.5759 8.3025 20.4967C8.1125 20.4176 7.93833 20.3067 7.79583 20.1642C7.495 19.8634 7.32083 19.4676 7.32083 19.0401ZM16.3617 26.4976C16.2192 26.6401 16.045 26.7509 15.855 26.8301C15.665 26.9092 15.4592 26.9567 15.2375 26.9567C14.8258 26.9567 14.43 26.7984 14.1292 26.4976C13.8283 26.1967 13.6542 25.8009 13.6542 25.3734C13.6542 25.2626 13.67 25.1676 13.6858 25.0567C13.7175 24.9617 13.7492 24.8667 13.7808 24.7717C13.8283 24.6767 13.8758 24.5817 13.9233 24.4867C13.9867 24.4076 14.05 24.3284 14.1292 24.2492C14.2717 24.1067 14.4458 23.9959 14.6358 23.9167C15.2217 23.6792 15.9183 23.8059 16.3617 24.2492C16.6625 24.5501 16.8208 24.9617 16.8208 25.3734C16.8208 25.8009 16.6625 26.1967 16.3617 26.4976ZM16.3617 20.1642C16.0608 20.4651 15.665 20.6234 15.2375 20.6234C14.8258 20.6234 14.43 20.4651 14.1292 20.1642C13.8283 19.8634 13.6542 19.4676 13.6542 19.0401C13.6542 18.6284 13.8283 18.2167 14.1292 17.9159C14.715 17.3301 15.7758 17.3301 16.3617 17.9159C16.5042 18.0742 16.6308 18.2326 16.71 18.4384C16.7892 18.6284 16.8208 18.8342 16.8208 19.0401C16.8208 19.4676 16.6625 19.8634 16.3617 20.1642ZM10.25 13.5617C8.61917 13.5617 7.27333 12.2317 7.27333 10.5851V9.00175C7.27333 7.37091 8.60333 6.02508 10.25 6.02508H19.75C21.3808 6.02508 22.7267 7.35508 22.7267 9.00175V10.5851C22.7267 12.2159 21.3967 13.5617 19.75 13.5617H10.25ZM22.695 26.4976C22.3942 26.7984 21.9983 26.9567 21.5708 26.9567C21.365 26.9567 21.1592 26.9092 20.9692 26.8301C20.7792 26.7509 20.605 26.6401 20.4625 26.4976C20.1617 26.1967 20.0033 25.8009 20.0033 25.3734C20.0033 24.9617 20.1617 24.5501 20.4625 24.2492C20.89 23.8059 21.6025 23.6792 22.1883 23.9167C22.3783 23.9959 22.5525 24.1067 22.695 24.2492C22.9958 24.5501 23.1542 24.9617 23.1542 25.3734C23.1542 25.8009 22.9958 26.1967 22.695 26.4976ZM23.0433 19.6417C22.9642 19.8317 22.8533 20.0059 22.695 20.1642C22.3942 20.4651 21.9983 20.6234 21.5708 20.6234C21.1592 20.6234 20.7633 20.4651 20.4625 20.1642C20.1617 19.8634 19.9875 19.4676 19.9875 19.0401C19.9875 18.6284 20.1617 18.2167 20.4625 17.9159C21.0483 17.3301 22.1092 17.3301 22.695 17.9159C22.9958 18.2167 23.17 18.6284 23.17 19.0401C23.17 19.2459 23.1225 19.4517 23.0433 19.6417Z" fill="white"/>
</svg>
