<svg width="39" height="39" viewBox="0 0 39 39" fill="none" xmlns="http://www.w3.org/2000/svg">
<path d="M3.66602 20.4033H30.5827" stroke-width="2" stroke-miterlimit="10" stroke-linecap="round" stroke-linejoin="round"/>
<path d="M30.5827 16.7144V28.0353C30.5352 32.5478 29.3001 33.6878 24.5976 33.6878H9.65106C4.8694 33.6878 3.66602 32.5003 3.66602 27.7819V16.7144C3.66602 12.4394 4.66352 11.0619 8.41602 10.8403C8.79602 10.8244 9.20773 10.8086 9.65106 10.8086H24.5976C29.3793 10.8086 30.5827 11.9961 30.5827 16.7144Z" stroke-width="2" stroke-linecap="round" stroke-linejoin="round"/>
<path opacity="0.4" d="M35.3327 11.0933V22.1608C35.3327 26.4358 34.3352 27.8133 30.5827 28.035V16.7142C30.5827 11.9958 29.3793 10.8083 24.5976 10.8083H9.65106C9.20773 10.8083 8.79602 10.8242 8.41602 10.84C8.46352 6.3275 9.69856 5.1875 14.4011 5.1875H29.3476C34.1293 5.1875 35.3327 6.375 35.3327 11.0933Z" stroke-width="2" stroke-linecap="round" stroke-linejoin="round"/>
<path opacity="0.4" d="M8.8125 28.6367H11.5358" stroke-width="2" stroke-miterlimit="10" stroke-linecap="round" stroke-linejoin="round"/>
<path opacity="0.4" d="M14.9238 28.6367H20.3705" stroke-width="2" stroke-miterlimit="10" stroke-linecap="round" stroke-linejoin="round"/>
</svg>
