<svg width="12" height="12" viewBox="0 0 12 12" fill="none" xmlns="http://www.w3.org/2000/svg">
<path d="M9.87957 1.6779C8.8529 0.74457 7.49374 0.18457 6.0004 0.18457C2.79207 0.18457 0.18457 2.79207 0.18457 6.0004C0.18457 9.20874 2.79207 11.8162 6.0004 11.8162C7.49374 11.8162 8.8529 11.2562 9.87957 10.3229C11.0696 9.26707 11.8162 7.7154 11.8162 6.0004C11.8162 4.2854 11.0696 2.73374 9.87957 1.6779ZM5.9829 8.56124C5.97124 9.52374 5.25374 9.75707 4.5829 9.48874C3.2004 8.93457 2.22624 7.58124 2.22624 6.0004C2.22624 4.41957 3.2004 3.06624 4.5829 2.50624C5.25374 2.2379 5.97124 2.47707 5.9829 3.43374V8.56124Z"/>
</svg>
