<svg width="24" height="24" viewBox="0 0 24 24" fill="none" xmlns="http://www.w3.org/2000/svg">
<path d="M21 22.0005H3C2.59 22.0005 2.25 21.6605 2.25 21.2505C2.25 20.8405 2.59 20.5005 3 20.5005H21C21.41 20.5005 21.75 20.8405 21.75 21.2505C21.75 21.6605 21.41 22.0005 21 22.0005Z"/>
<path d="M19.0206 3.48065C17.0806 1.54065 15.1806 1.49065 13.1906 3.48065L11.9806 4.69065C11.8806 4.79065 11.8406 4.95065 11.8806 5.09065C12.6406 7.74065 14.7606 9.86065 17.4106 10.6206C17.4506 10.6306 17.4906 10.6406 17.5306 10.6406C17.6406 10.6406 17.7406 10.6006 17.8206 10.5206L19.0206 9.31065C20.0106 8.33065 20.4906 7.38065 20.4906 6.42065C20.5006 5.43065 20.0206 4.47065 19.0206 3.48065Z"/>
<path d="M15.6103 11.5303C15.3203 11.3903 15.0403 11.2503 14.7703 11.0903C14.5503 10.9603 14.3403 10.8203 14.1303 10.6703C13.9603 10.5603 13.7603 10.4003 13.5703 10.2403C13.5503 10.2303 13.4803 10.1703 13.4003 10.0903C13.0703 9.81029 12.7003 9.45029 12.3703 9.05029C12.3403 9.03029 12.2903 8.96029 12.2203 8.87029C12.1203 8.75029 11.9503 8.55029 11.8003 8.32029C11.6803 8.17029 11.5403 7.95029 11.4103 7.73029C11.2503 7.46029 11.1103 7.19029 10.9703 6.91029C10.9491 6.8649 10.9286 6.81973 10.9088 6.77483C10.7612 6.44151 10.3265 6.34407 10.0688 6.60182L4.34032 12.3303C4.21032 12.4603 4.09032 12.7103 4.06032 12.8803L3.52032 16.7103C3.42032 17.3903 3.61032 18.0303 4.03032 18.4603C4.39032 18.8103 4.89032 19.0003 5.43032 19.0003C5.55032 19.0003 5.67032 18.9903 5.79032 18.9703L9.63032 18.4303C9.81032 18.4003 10.0603 18.2803 10.1803 18.1503L15.9016 12.429C16.1612 12.1694 16.0633 11.724 15.7257 11.5799C15.6877 11.5637 15.6492 11.5472 15.6103 11.5303Z"/>
</svg>
