<svg width="39" height="39" viewBox="0 0 39 39" fill="none" xmlns="http://www.w3.org/2000/svg">
<path d="M19.4994 35.2712C28.2439 35.2712 35.3327 28.1823 35.3327 19.4378C35.3327 10.6933 28.2439 3.60449 19.4994 3.60449C10.7548 3.60449 3.66602 10.6933 3.66602 19.4378C3.66602 28.1823 10.7548 35.2712 19.4994 35.2712Z" stroke-width="2" stroke-miterlimit="10"/>
<g opacity="0.4">
<path d="M14.4004 12.5811H22.9821C24.8821 12.5811 26.4179 14.2911 26.4179 16.0169C26.4179 17.9169 24.8821 19.4527 22.9821 19.4527H14.4004V12.5811Z" stroke-width="2" stroke-miterlimit="10" stroke-linecap="round" stroke-linejoin="round"/>
<path d="M14.4004 19.4375H24.2012C26.3704 19.4375 28.1279 20.9733 28.1279 22.8733C28.1279 24.7733 26.3704 26.3092 24.2012 26.3092H14.4004V19.4375Z" stroke-width="2" stroke-miterlimit="10" stroke-linecap="round" stroke-linejoin="round"/>
<path d="M20.4023 26.293V29.7288" stroke-width="2" stroke-miterlimit="10" stroke-linecap="round" stroke-linejoin="round"/>
<path d="M16.127 26.293V29.7288" stroke-width="2" stroke-miterlimit="10" stroke-linecap="round" stroke-linejoin="round"/>
<path d="M20.4023 9.14551V12.5813" stroke-width="2" stroke-miterlimit="10" stroke-linecap="round" stroke-linejoin="round"/>
<path d="M16.127 9.14551V12.5813" stroke-width="2" stroke-miterlimit="10" stroke-linecap="round" stroke-linejoin="round"/>
<path d="M17.6629 12.5811H11.6621" stroke-width="2" stroke-miterlimit="10" stroke-linecap="round" stroke-linejoin="round"/>
<path d="M17.6629 26.293H11.6621" stroke-width="2" stroke-miterlimit="10" stroke-linecap="round" stroke-linejoin="round"/>
</g>
</svg>
