<svg width="24" height="25" viewBox="0 0 24 25" fill="none" xmlns="http://www.w3.org/2000/svg">
<path d="M20.9995 6.47998C17.6695 6.14998 14.3195 5.97998 10.9795 5.97998C8.99951 5.97998 7.01951 6.07998 5.03951 6.27998L2.99951 6.47998" stroke-width="1.5" stroke-linecap="round" stroke-linejoin="round"/>
<path opacity="0.34" d="M8.49951 5.47L8.71951 4.16C8.87951 3.21 8.99951 2.5 10.6895 2.5H13.3095C14.9995 2.5 15.1295 3.25 15.2795 4.17L15.4995 5.47" stroke-width="1.5" stroke-linecap="round" stroke-linejoin="round"/>
<path d="M18.8499 9.64014L18.1999 19.7101C18.0899 21.2801 17.9999 22.5001 15.2099 22.5001H8.7899C5.9999 22.5001 5.9099 21.2801 5.7999 19.7101L5.1499 9.64014" stroke-width="1.5" stroke-linecap="round" stroke-linejoin="round"/>
<path opacity="0.34" d="M10.3296 17H13.6596" stroke-width="1.5" stroke-linecap="round" stroke-linejoin="round"/>
<path opacity="0.34" d="M9.49951 13H14.4995" stroke-width="1.5" stroke-linecap="round" stroke-linejoin="round"/>
</svg>
