<svg width="24" height="25" viewBox="0 0 24 25" fill="none" xmlns="http://www.w3.org/2000/svg">
<path opacity="0.5" d="M10.9995 2.5H8.99951C3.99951 2.5 1.99951 4.5 1.99951 9.5V15.5C1.99951 20.5 3.99951 22.5 8.99951 22.5H14.9995C19.9995 22.5 21.9995 20.5 21.9995 15.5V13.5" stroke-width="1.5" stroke-linecap="round" stroke-linejoin="round"/>
<path d="M16.0394 3.51976L8.15939 11.3998C7.85939 11.6998 7.55939 12.2898 7.49939 12.7198L7.06939 15.7298C6.90939 16.8198 7.67939 17.5798 8.76939 17.4298L11.7794 16.9998C12.1994 16.9398 12.7894 16.6398 13.0994 16.3398L20.9794 8.45976C22.3394 7.09976 22.9794 5.51976 20.9794 3.51976C18.9794 1.51976 17.3994 2.15976 16.0394 3.51976Z" stroke-width="1.5" stroke-miterlimit="10" stroke-linecap="round" stroke-linejoin="round"/>
<path opacity="0.5" d="M14.9097 4.6499C15.5797 7.0399 17.4497 8.9099 19.8497 9.5899" stroke-width="1.5" stroke-miterlimit="10" stroke-linecap="round" stroke-linejoin="round"/>
</svg>
