<svg width="62" height="68" viewBox="0 0 62 68" fill="none" xmlns="http://www.w3.org/2000/svg">
<path d="M56.0334 13.4998L36.2334 2.0665C33.0001 0.199837 29.0001 0.199837 25.7334 2.0665L5.96673 13.4998C2.7334 15.3665 0.733398 18.8332 0.733398 22.5998V45.3998C0.733398 49.1332 2.7334 52.5998 5.96673 54.4998L25.7667 65.9332C29.0001 67.7998 33.0001 67.7998 36.2667 65.9332L56.0667 54.4998C59.3001 52.6332 61.3001 49.1665 61.3001 45.3998V22.5998C61.2667 18.8332 59.2667 15.3998 56.0334 13.4998ZM28.5001 19.8332C28.5001 18.4665 29.6334 17.3332 31.0001 17.3332C32.3667 17.3332 33.5001 18.4665 33.5001 19.8332V37.3332C33.5001 38.6998 32.3667 39.8332 31.0001 39.8332C29.6334 39.8332 28.5001 38.6998 28.5001 37.3332V19.8332ZM34.0667 49.4332C33.9001 49.8332 33.6667 50.1998 33.3667 50.5332C32.7334 51.1665 31.9001 51.4998 31.0001 51.4998C30.5667 51.4998 30.1334 51.3998 29.7334 51.2332C29.3001 51.0665 28.9667 50.8332 28.6334 50.5332C28.3334 50.1998 28.1001 49.8332 27.9001 49.4332C27.7334 49.0332 27.6667 48.5998 27.6667 48.1665C27.6667 47.2998 28.0001 46.4332 28.6334 45.7998C28.9667 45.4998 29.3001 45.2665 29.7334 45.0998C30.9667 44.5665 32.4334 44.8665 33.3667 45.7998C33.6667 46.1332 33.9001 46.4665 34.0667 46.8998C34.2334 47.2998 34.3334 47.7332 34.3334 48.1665C34.3334 48.5998 34.2334 49.0332 34.0667 49.4332Z" fill="#0047FE"/>
</svg>
