<svg width="38" height="38" viewBox="0 0 38 38" fill="none" xmlns="http://www.w3.org/2000/svg">
<path fill-rule="evenodd" clip-rule="evenodd" d="M19.0001 34.8337C27.7446 34.8337 34.8334 27.7448 34.8334 19.0003C34.8334 10.2558 27.7446 3.16699 19.0001 3.16699C10.2556 3.16699 3.16675 10.2558 3.16675 19.0003C3.16675 27.7448 10.2556 34.8337 19.0001 34.8337ZM17.622 21.3974C17.622 22.1229 18.2101 22.711 18.9355 22.711H19.2978C19.7503 22.711 20.1348 22.3801 20.2022 21.9326C20.2648 21.5596 20.429 21.1704 20.6948 20.765C20.9763 20.3434 21.5002 19.8488 22.2664 19.2812C22.7043 18.9406 23.0874 18.5595 23.4158 18.1379C23.7599 17.7163 24.0335 17.2541 24.2368 16.7514C24.4401 16.2487 24.5417 15.7216 24.5417 15.1702C24.5417 14.181 24.315 13.3864 23.8615 12.7864C23.408 12.1864 22.7903 11.7566 22.0084 11.4972C21.2265 11.2215 20.343 11.0837 19.3578 11.0837C18.6385 11.0837 17.88 11.1891 17.0825 11.3999C16.602 11.5195 16.1599 11.6727 15.7562 11.8597C15.2949 12.0733 15.0417 12.5584 15.0417 13.0666V13.8674C15.0417 14.7105 16.002 15.2449 16.801 14.9757C17.4265 14.7486 18.0442 14.6351 18.6541 14.6351C19.2014 14.6351 19.6158 14.7405 19.8973 14.9513C20.1788 15.1459 20.3195 15.4297 20.3195 15.8027C20.3195 16.0946 20.2335 16.4027 20.0615 16.727C19.9051 17.0352 19.6315 17.3919 19.2405 17.7973C18.6463 18.3974 18.2241 18.9812 17.9738 19.5487C17.7393 20.1001 17.622 20.7163 17.622 21.3974ZM16.6603 26.3188C16.6603 27.5236 17.6369 28.5003 18.8417 28.5003C20.0465 28.5003 21.0232 27.5236 21.0232 26.3188V26.2547C21.0232 25.0499 20.0465 24.0732 18.8417 24.0732C17.6369 24.0732 16.6603 25.0499 16.6603 26.2547V26.3188Z" fill="white"/>
</svg>
