<svg width="38" height="38" viewBox="0 0 38 38" fill="none" xmlns="http://www.w3.org/2000/svg">
<path d="M28.5 3.1665H9.5C6.87167 3.1665 4.75 5.27234 4.75 7.869V25.1432C4.75 27.7398 6.87167 29.8457 9.5 29.8457H10.7033C11.97 29.8457 13.1733 30.3365 14.06 31.2232L16.7675 33.899C18.0025 35.1182 20.0133 35.1182 21.2483 33.899L23.9558 31.2232C24.8425 30.3365 26.0617 29.8457 27.3125 29.8457H28.5C31.1283 29.8457 33.25 27.7398 33.25 25.1432V7.869C33.25 5.27234 31.1283 3.1665 28.5 3.1665ZM26.41 16.6248L24.5575 22.2615C24.32 23.1957 23.3225 23.9557 22.3092 23.9557H19.38C18.8733 23.9557 18.1608 23.7815 17.8442 23.4648L15.5167 21.644C15.4692 22.6573 15.01 23.0848 13.8858 23.0848H13.1258C11.9542 23.0848 11.4792 22.6257 11.4792 21.5173V13.9648C11.4792 12.8565 11.9542 12.3973 13.1258 12.3973H13.9017C15.0733 12.3973 15.5483 12.8565 15.5483 13.9648V14.5348L18.62 9.97484C18.9367 9.484 19.7442 9.13567 20.425 9.40484C21.1692 9.65817 21.6442 10.4815 21.4858 11.2098L21.1058 13.6798C21.0583 13.8857 21.1058 14.1073 21.2483 14.2498C21.375 14.3923 21.565 14.4873 21.7708 14.4873H24.8583C25.46 14.4873 25.9667 14.7248 26.2675 15.1523C26.5525 15.564 26.6 16.0865 26.41 16.6248Z" fill="white"/>
</svg>
