<svg width="25" height="24" viewBox="0 0 25 24" fill="none" xmlns="http://www.w3.org/2000/svg">
<path d="M24.2636 9.7497C24.4167 10.553 24.5 11.3929 24.5 12.2694C24.5 19.1252 19.8177 24 12.7457 24C11.1374 24.0005 9.54482 23.6904 8.05888 23.0875C6.57295 22.4846 5.2228 21.6007 4.08558 20.4864C2.94837 19.372 2.04638 18.0489 1.43115 16.5928C0.81592 15.1366 0.49951 13.576 0.500001 12C0.49951 10.424 0.81592 8.86335 1.43115 7.40723C2.04638 5.95111 2.94837 4.62805 4.08558 3.51365C5.2228 2.39925 6.57295 1.51535 8.05888 0.912468C9.54482 0.309581 11.1374 -0.000479954 12.7457 5.57642e-07C16.0522 5.57642e-07 18.815 1.1922 20.9348 3.128L17.4827 6.51077V6.50223C16.1977 5.30272 14.5669 4.68712 12.7457 4.68712C8.70526 4.68712 5.42116 8.0321 5.42116 11.9927C5.42116 15.9521 8.70526 19.3043 12.7457 19.3043C16.4117 19.3043 18.9071 17.2503 19.4196 14.4295H12.7457V9.7497H24.2649H24.2636Z"/>
</svg>
