<svg width="58" height="66" viewBox="0 0 58 66" fill="none" xmlns="http://www.w3.org/2000/svg">
<rect x="1" y="1" width="56" height="64" rx="4" fill="white" stroke="#ADB4B8"/>
<path d="M15.1309 38L18.9589 29.54H20.2549L24.1309 38H22.5589L21.5269 35.624L22.1509 36.044H17.0749L17.7229 35.624L16.6909 38H15.1309ZM19.5949 31.196L17.9029 35.204L17.5909 34.832H21.6229L21.3709 35.204L19.6429 31.196H19.5949ZM27.1309 38.12C26.3869 38.12 25.8309 37.916 25.4629 37.508C25.0949 37.1 24.9109 36.476 24.9109 35.636V31.94H26.4109V35.624C26.4109 36.072 26.5029 36.404 26.6869 36.62C26.8709 36.828 27.1509 36.932 27.5269 36.932C27.9509 36.932 28.2949 36.788 28.5589 36.5C28.8309 36.212 28.9669 35.832 28.9669 35.36V31.94H30.4669V38H29.0029V36.764H29.1709C28.9949 37.196 28.7269 37.532 28.3669 37.772C28.0149 38.004 27.6029 38.12 27.1309 38.12ZM34.6873 38.12C33.9673 38.12 33.4233 37.932 33.0553 37.556C32.6873 37.18 32.5033 36.616 32.5033 35.864V33.068H31.3393V31.94H32.5033V30.392L34.0033 30.008V31.94H35.6233V33.068H34.0033V35.768C34.0033 36.184 34.0833 36.476 34.2433 36.644C34.4033 36.812 34.6233 36.896 34.9033 36.896C35.0553 36.896 35.1833 36.884 35.2873 36.86C35.3993 36.836 35.5073 36.804 35.6113 36.764V37.952C35.4753 38.008 35.3233 38.048 35.1553 38.072C34.9953 38.104 34.8393 38.12 34.6873 38.12ZM39.3196 38.12C38.6956 38.12 38.1556 37.992 37.6996 37.736C37.2436 37.48 36.8876 37.116 36.6316 36.644C36.3836 36.172 36.2596 35.612 36.2596 34.964C36.2596 34.316 36.3836 33.76 36.6316 33.296C36.8876 32.824 37.2436 32.46 37.6996 32.204C38.1556 31.948 38.6956 31.82 39.3196 31.82C39.9436 31.82 40.4836 31.948 40.9396 32.204C41.4036 32.46 41.7596 32.824 42.0076 33.296C42.2636 33.76 42.3916 34.316 42.3916 34.964C42.3916 35.612 42.2636 36.172 42.0076 36.644C41.7596 37.116 41.4036 37.48 40.9396 37.736C40.4836 37.992 39.9436 38.12 39.3196 38.12ZM39.3196 36.968C39.7916 36.968 40.1676 36.804 40.4476 36.476C40.7276 36.14 40.8676 35.636 40.8676 34.964C40.8676 34.292 40.7276 33.792 40.4476 33.464C40.1676 33.136 39.7916 32.972 39.3196 32.972C38.8476 32.972 38.4716 33.136 38.1916 33.464C37.9116 33.792 37.7716 34.292 37.7716 34.964C37.7716 35.636 37.9116 36.14 38.1916 36.476C38.4716 36.804 38.8476 36.968 39.3196 36.968Z" fill="#0047FE"/>
</svg>
