<svg width="58" height="66" viewBox="0 0 58 66" fill="none" xmlns="http://www.w3.org/2000/svg">
<rect x="1" y="1" width="56" height="64" rx="4" fill="white" stroke="#ADB4B8"/>
<path d="M7 7L4.11325 12H9.88675L7 7ZM51 59L46 56.1132V61.8867L51 59ZM6.5 11.5V56H7.5V11.5H6.5ZM10 59.5H46.5V58.5H10V59.5ZM6.5 56C6.5 57.933 8.067 59.5 10 59.5V58.5C8.61929 58.5 7.5 57.3807 7.5 56H6.5Z" fill="#0047FE"/>
<path d="M18 38L22.785 27.425H24.405L29.25 38H27.285L25.995 35.03L26.775 35.555H20.43L21.24 35.03L19.95 38H18ZM23.58 29.495L21.465 34.505L21.075 34.04H26.115L25.8 34.505L23.64 29.495H23.58ZM33.585 38.15C32.855 38.15 32.155 38.045 31.485 37.835C30.815 37.615 30.265 37.315 29.835 36.935L30.465 35.48C30.935 35.84 31.42 36.105 31.92 36.275C32.43 36.445 32.965 36.53 33.525 36.53C34.205 36.53 34.72 36.395 35.07 36.125C35.42 35.855 35.595 35.46 35.595 34.94C35.595 34.44 35.42 34.065 35.07 33.815C34.73 33.555 34.23 33.425 33.57 33.425H31.86V31.88H33.405C33.975 31.88 34.43 31.74 34.77 31.46C35.11 31.18 35.28 30.795 35.28 30.305C35.28 29.845 35.12 29.495 34.8 29.255C34.49 29.015 34.04 28.895 33.45 28.895C32.39 28.895 31.455 29.255 30.645 29.975L30.015 28.535C30.445 28.135 30.975 27.825 31.605 27.605C32.245 27.385 32.915 27.275 33.615 27.275C34.715 27.275 35.575 27.525 36.195 28.025C36.825 28.515 37.14 29.2 37.14 30.08C37.14 30.71 36.96 31.255 36.6 31.715C36.25 32.165 35.765 32.465 35.145 32.615V32.435C35.875 32.555 36.44 32.855 36.84 33.335C37.25 33.805 37.455 34.395 37.455 35.105C37.455 36.045 37.11 36.79 36.42 37.34C35.73 37.88 34.785 38.15 33.585 38.15Z" fill="#0047FE"/>
</svg>
