<svg width="58" height="66" viewBox="0 0 58 66" fill="none" xmlns="http://www.w3.org/2000/svg">
<rect x="1" y="1" width="56" height="64" rx="4" fill="white" stroke="#ADB4B8"/>
<path d="M7 7L4.11325 12H9.88675L7 7ZM51 59L46 56.1132V61.8867L51 59ZM6.5 11.5V56H7.5V11.5H6.5ZM10 59.5H46.5V58.5H10V59.5ZM6.5 56C6.5 57.933 8.067 59.5 10 59.5V58.5C8.61929 58.5 7.5 57.3807 7.5 56H6.5Z" fill="#0047FE"/>
<path d="M18 38L22.785 27.425H24.405L29.25 38H27.285L25.995 35.03L26.775 35.555H20.43L21.24 35.03L19.95 38H18ZM23.58 29.495L21.465 34.505L21.075 34.04H26.115L25.8 34.505L23.64 29.495H23.58ZM33.75 38.15C32.51 38.15 31.555 37.68 30.885 36.74C30.215 35.79 29.88 34.44 29.88 32.69C29.88 30.92 30.215 29.575 30.885 28.655C31.555 27.735 32.51 27.275 33.75 27.275C35 27.275 35.955 27.735 36.615 28.655C37.285 29.575 37.62 30.915 37.62 32.675C37.62 34.435 37.285 35.79 36.615 36.74C35.955 37.68 35 38.15 33.75 38.15ZM33.75 36.56C34.43 36.56 34.935 36.25 35.265 35.63C35.595 35 35.76 34.015 35.76 32.675C35.76 31.335 35.595 30.365 35.265 29.765C34.935 29.155 34.43 28.85 33.75 28.85C33.08 28.85 32.575 29.155 32.235 29.765C31.905 30.365 31.74 31.335 31.74 32.675C31.74 34.015 31.905 35 32.235 35.63C32.575 36.25 33.08 36.56 33.75 36.56ZM42.0691 37.415V34.355H39.0541V33.035H42.0691V30.05H43.4341V33.035H46.4341V34.355H43.4341V37.415H42.0691Z" fill="#0047FE"/>
</svg>
