<svg width="58" height="66" viewBox="0 0 58 66" fill="none" xmlns="http://www.w3.org/2000/svg">
<rect x="1" y="1" width="56" height="64" rx="4" fill="white" stroke="#ADB4B8"/>
<path d="M7 7L4.11325 12H9.88675L7 7ZM51 59L46 56.1132V61.8867L51 59ZM6.5 11.5V56H7.5V11.5H6.5ZM10 59.5H46.5V58.5H10V59.5ZM6.5 56C6.5 57.933 8.067 59.5 10 59.5V58.5C8.61929 58.5 7.5 57.3807 7.5 56H6.5Z" fill="#0047FE"/>
<path d="M18 38L22.785 27.425H24.405L29.25 38H27.285L25.995 35.03L26.775 35.555H20.43L21.24 35.03L19.95 38H18ZM23.58 29.495L21.465 34.505L21.075 34.04H26.115L25.8 34.505L23.64 29.495H23.58ZM30.915 38V36.395H33.345V29.045H34.275L31.155 30.905V29.075L33.9 27.425H35.28V36.395H37.56V38H30.915Z" fill="#0047FE"/>
</svg>
