<svg width="58" height="66" viewBox="0 0 58 66" fill="none" xmlns="http://www.w3.org/2000/svg">
<rect x="1" y="1" width="56" height="64" rx="4" fill="white" stroke="#ADB4B8"/>
<path d="M7 7L4.11325 12H9.88675L7 7ZM51 59L46 56.1132V61.8867L51 59ZM6.5 11.5V56H7.5V11.5H6.5ZM10 59.5H46.5V58.5H10V59.5ZM6.5 56C6.5 57.933 8.067 59.5 10 59.5V58.5C8.61929 58.5 7.5 57.3807 7.5 56H6.5Z" fill="#0047FE"/>
<path d="M18 38L22.785 27.425H24.405L29.25 38H27.285L25.995 35.03L26.775 35.555H20.43L21.24 35.03L19.95 38H18ZM23.58 29.495L21.465 34.505L21.075 34.04H26.115L25.8 34.505L23.64 29.495H23.58ZM30.42 38V36.575L33.93 32.915C34.37 32.455 34.695 32.03 34.905 31.64C35.115 31.25 35.22 30.85 35.22 30.44C35.22 29.93 35.06 29.545 34.74 29.285C34.42 29.025 33.955 28.895 33.345 28.895C32.855 28.895 32.385 28.985 31.935 29.165C31.485 29.335 31.045 29.605 30.615 29.975L29.985 28.535C30.415 28.155 30.945 27.85 31.575 27.62C32.215 27.39 32.885 27.275 33.585 27.275C34.725 27.275 35.6 27.53 36.21 28.04C36.82 28.55 37.125 29.28 37.125 30.23C37.125 30.89 36.97 31.52 36.66 32.12C36.35 32.71 35.87 33.33 35.22 33.98L32.295 36.905V36.395H37.545V38H30.42Z" fill="#0047FE"/>
</svg>
