<svg width="58" height="66" viewBox="0 0 58 66" fill="none" xmlns="http://www.w3.org/2000/svg">
<rect x="1" y="1" width="56" height="64" rx="4" fill="white" stroke="#ADB4B8"/>
<path d="M7 7L4.11325 12H9.88675L7 7ZM51 59L46 56.1132V61.8867L51 59ZM6.5 11.5V56H7.5V11.5H6.5ZM10 59.5H46.5V58.5H10V59.5ZM6.5 56C6.5 57.933 8.067 59.5 10 59.5V58.5C8.61929 58.5 7.5 57.3807 7.5 56H6.5Z" fill="#0047FE"/>
<path d="M18 38L22.785 27.425H24.405L29.25 38H27.285L25.995 35.03L26.775 35.555H20.43L21.24 35.03L19.95 38H18ZM23.58 29.495L21.465 34.505L21.075 34.04H26.115L25.8 34.505L23.64 29.495H23.58ZM33.825 38.15C33.365 38.15 32.905 38.1 32.445 38C31.995 37.9 31.57 37.76 31.17 37.58C30.78 37.4 30.445 37.185 30.165 36.935L30.795 35.48C31.265 35.83 31.745 36.095 32.235 36.275C32.735 36.445 33.255 36.53 33.795 36.53C34.445 36.53 34.95 36.37 35.31 36.05C35.68 35.72 35.865 35.28 35.865 34.73C35.865 34.17 35.69 33.72 35.34 33.38C34.99 33.03 34.51 32.855 33.9 32.855C33.47 32.855 33.075 32.94 32.715 33.11C32.365 33.27 32.05 33.52 31.77 33.86H30.495V27.425H37.065V29.015H32.325V32.375H31.86C32.12 32.025 32.465 31.755 32.895 31.565C33.335 31.375 33.825 31.28 34.365 31.28C35.045 31.28 35.635 31.42 36.135 31.7C36.635 31.98 37.025 32.375 37.305 32.885C37.585 33.385 37.725 33.975 37.725 34.655C37.725 35.345 37.565 35.955 37.245 36.485C36.935 37.005 36.485 37.415 35.895 37.715C35.315 38.005 34.625 38.15 33.825 38.15Z" fill="#0047FE"/>
</svg>
