<svg width="58" height="66" viewBox="0 0 58 66" fill="none" xmlns="http://www.w3.org/2000/svg">
<rect x="1" y="1" width="56" height="64" rx="4" fill="white" stroke="#ADB4B8"/>
<path d="M16.6689 40L15.7579 39.5878L15.1189 41H16.6689V40ZM22.4109 27.31V26.31H21.7658L21.4999 26.8978L22.4109 27.31ZM24.3549 27.31L25.2641 26.8935L24.9967 26.31H24.3549V27.31ZM30.1689 40V41H31.7271L31.0781 39.5835L30.1689 40ZM27.8109 40L26.8937 40.3984L27.155 41H27.8109V40ZM26.2629 36.436L26.8213 35.6064L23.9824 33.6956L25.3457 36.8344L26.2629 36.436ZM27.1989 37.066V38.066H30.4756L27.7573 36.2364L27.1989 37.066ZM19.5849 37.066L19.041 36.2268L16.2035 38.066H19.5849V37.066ZM20.5569 36.436L21.4742 36.8344L22.7948 33.7939L20.013 35.5968L20.5569 36.436ZM19.0089 40V41H19.6649L19.9262 40.3984L19.0089 40ZM23.3649 29.794V28.794H22.7016L22.4437 29.4051L23.3649 29.794ZM20.8269 35.806L20.0608 36.4486L21.112 37.702L21.7482 36.1949L20.8269 35.806ZM20.3589 35.248V34.248H18.2151L19.5928 35.8906L20.3589 35.248ZM26.4069 35.248L27.2349 35.8088L28.2922 34.248H26.4069V35.248ZM26.0289 35.806L25.1107 36.2019L25.8332 37.8779L26.8569 36.3668L26.0289 35.806ZM23.4369 29.794L24.3552 29.3981L24.0948 28.794H23.4369V29.794ZM17.58 40.4122L23.322 27.7222L21.4999 26.8978L15.7579 39.5878L17.58 40.4122ZM22.4109 28.31H24.3549V26.31H22.4109V28.31ZM23.4458 27.7265L29.2598 40.4165L31.0781 39.5835L25.2641 26.8935L23.4458 27.7265ZM30.1689 39H27.8109V41H30.1689V39ZM28.7282 39.6016L27.1802 36.0376L25.3457 36.8344L26.8937 40.3984L28.7282 39.6016ZM25.7046 37.2656L26.6406 37.8956L27.7573 36.2364L26.8213 35.6064L25.7046 37.2656ZM27.1989 36.066H19.5849V38.066H27.1989V36.066ZM20.1288 37.9052L21.1008 37.2752L20.013 35.5968L19.041 36.2268L20.1288 37.9052ZM19.6397 36.0376L18.0917 39.6016L19.9262 40.3984L21.4742 36.8344L19.6397 36.0376ZM19.0089 39H16.6689V41H19.0089V39ZM22.4437 29.4051L19.9057 35.4171L21.7482 36.1949L24.2862 30.1829L22.4437 29.4051ZM21.5931 35.1634L21.1251 34.6054L19.5928 35.8906L20.0608 36.4486L21.5931 35.1634ZM20.3589 36.248H26.4069V34.248H20.3589V36.248ZM25.579 34.6872L25.201 35.2452L26.8569 36.3668L27.2349 35.8088L25.579 34.6872ZM26.9472 35.4101L24.3552 29.3981L22.5187 30.1899L25.1107 36.2019L26.9472 35.4101ZM23.4369 28.794H23.3649V30.794H23.4369V28.794ZM32.8149 39.622L32.2759 40.4643L32.2819 40.4681L32.288 40.4719L32.8149 39.622ZM31.4109 37.984L32.3144 37.5553L32.3144 37.5553L31.4109 37.984ZM31.4109 32.926L32.3115 33.3608L32.3144 33.3547L31.4109 32.926ZM32.8149 31.306L33.3419 32.1559L33.348 32.1521L33.354 32.1483L32.8149 31.306ZM36.9189 31.306L36.3642 32.138L36.3742 32.1447L36.3843 32.1511L36.9189 31.306ZM38.0889 32.818V33.818H39.4354L39.0463 32.529L38.0889 32.818ZM37.8909 32.818L36.8963 32.7148L36.7818 33.818H37.8909V32.818ZM38.0889 30.91V29.91H37.1873L37.0943 30.8068L38.0889 30.91ZM40.2489 30.91L41.2443 31.0063L41.3504 29.91H40.2489V30.91ZM40.1409 32.044L39.1453 31.9507L39.1439 31.9661L39.1429 31.9816L40.1409 32.044ZM40.1049 40V41H41.1049V40H40.1049ZM37.8729 40L36.873 40.0096L36.8825 41H37.8729V40ZM37.8549 38.128V37.128H36.8453L36.855 38.1376L37.8549 38.128ZM38.0709 38.128L39.0267 38.4221L39.4249 37.128H38.0709V38.128ZM36.9009 39.622L36.3663 38.7769L36.3663 38.7769L36.9009 39.622ZM37.2429 37.714L37.9944 38.3738L38.0022 38.3648L37.2429 37.714ZM37.2429 33.196L36.4915 33.8558L36.4915 33.8558L37.2429 33.196ZM33.8049 37.714L33.0367 38.3542L33.045 38.3641L33.0535 38.3738L33.8049 37.714ZM34.9029 39.18C34.2738 39.18 33.7649 39.0344 33.3419 38.7721L32.288 40.4719C33.065 40.9536 33.9481 41.18 34.9029 41.18V39.18ZM33.354 38.7797C32.9274 38.5067 32.5784 38.1115 32.3144 37.5553L30.5075 38.4127C30.9155 39.2725 31.5025 39.9693 32.2759 40.4643L33.354 38.7797ZM32.3144 37.5553C32.0561 37.011 31.9069 36.3185 31.9069 35.446H29.9069C29.9069 36.5415 30.0938 37.541 30.5075 38.4127L32.3144 37.5553ZM31.9069 35.446C31.9069 34.5727 32.0563 33.8894 32.3115 33.3607L30.5104 32.4913C30.0936 33.3546 29.9069 34.3513 29.9069 35.446H31.9069ZM32.3144 33.3547C32.5774 32.8006 32.9229 32.4157 33.3419 32.1559L32.288 30.4561C31.507 30.9403 30.9165 31.6354 30.5075 32.4973L32.3144 33.3547ZM33.354 32.1483C33.7754 31.8786 34.2799 31.73 34.9029 31.73V29.73C33.942 29.73 33.0545 29.9654 32.2759 30.4637L33.354 32.1483ZM34.9029 31.73C35.496 31.73 35.9702 31.8754 36.3642 32.138L37.4736 30.4739C36.7157 29.9686 35.8459 29.73 34.9029 29.73V31.73ZM36.3843 32.1511C36.7796 32.4012 37.0126 32.7127 37.1316 33.107L39.0463 32.529C38.7813 31.6513 38.2343 30.9548 37.4536 30.4609L36.3843 32.1511ZM38.0889 31.818H37.8909V33.818H38.0889V31.818ZM38.8856 32.9212L39.0836 31.0132L37.0943 30.8068L36.8963 32.7148L38.8856 32.9212ZM38.0889 31.91H40.2489V29.91H38.0889V31.91ZM39.2536 30.8137C39.2175 31.1867 39.1814 31.5657 39.1453 31.9507L41.1366 32.1373C41.1725 31.7543 41.2084 31.3773 41.2443 31.0063L39.2536 30.8137ZM39.1429 31.9816C39.1176 32.3857 39.1049 32.7845 39.1049 33.178H41.1049C41.1049 32.8275 41.1163 32.4703 41.139 32.1064L39.1429 31.9816ZM39.1049 33.178V40H41.1049V33.178H39.1049ZM40.1049 39H37.8729V41H40.1049V39ZM38.8729 39.9904L38.8549 38.1184L36.855 38.1376L36.873 40.0096L38.8729 39.9904ZM37.8549 39.128H38.0709V37.128H37.8549V39.128ZM37.1152 37.8339C36.9982 38.2142 36.7671 38.5234 36.3663 38.7769L37.4356 40.4671C38.2108 39.9766 38.7597 39.2898 39.0267 38.4221L37.1152 37.8339ZM36.3663 38.7769C35.9495 39.0406 35.4714 39.18 34.9029 39.18V41.18C35.8225 41.18 36.6764 40.9474 37.4356 40.4671L36.3663 38.7769ZM35.5329 39.452C36.5023 39.452 37.3558 39.1011 37.9944 38.3738L36.4915 37.0542C36.2661 37.3109 35.9796 37.452 35.5329 37.452V39.452ZM38.0022 38.3648C38.6526 37.606 38.8909 36.5737 38.8909 35.446H36.8909C36.8909 36.3343 36.6973 36.814 36.4837 37.0632L38.0022 38.3648ZM38.8909 35.446C38.8909 34.3209 38.6536 33.287 37.9944 32.5362L36.4915 33.8558C36.6962 34.089 36.8909 34.5551 36.8909 35.446H38.8909ZM37.9944 32.5362C37.3558 31.8089 36.5023 31.458 35.5329 31.458V33.458C35.9796 33.458 36.2661 33.5991 36.4915 33.8558L37.9944 32.5362ZM35.5329 31.458C34.5636 31.458 33.7101 31.8089 33.0715 32.5362L34.5744 33.8558C34.7998 33.5991 35.0863 33.458 35.5329 33.458V31.458ZM33.0715 32.5362C32.4122 33.287 32.1749 34.3209 32.1749 35.446H34.1749C34.1749 34.5551 34.3696 34.089 34.5744 33.8558L33.0715 32.5362ZM32.1749 35.446C32.1749 36.5682 32.405 37.5961 33.0367 38.3542L34.5732 37.0738C34.3649 36.8239 34.1749 36.3398 34.1749 35.446H32.1749ZM33.0535 38.3738C33.6956 39.1051 34.5574 39.452 35.5329 39.452V37.452C35.0685 37.452 34.7783 37.3069 34.5564 37.0542L33.0535 38.3738Z" fill="#0047FE"/>
<rect x="9" y="9" width="40" height="48" rx="2" stroke="#98BEFE"/>
</svg>
