<svg width="38" height="38" viewBox="0 0 38 38" fill="none" xmlns="http://www.w3.org/2000/svg">
<path d="M5.61364 3H32.3864C33.8202 2.99991 35.1998 3.5469 36.242 4.52877C37.2843 5.51064 37.9102 6.85295 37.9914 8.28033L38 8.59722V28.4028C38.0001 29.8325 37.4515 31.208 36.4667 32.2472C35.482 33.2864 34.1358 33.9104 32.7042 33.9914L32.3864 34H5.61364C4.17976 34.0001 2.80021 33.4531 1.75797 32.4712C0.715725 31.4894 0.0898159 30.1471 0.00863657 28.7197L1.20507e-08 28.4028V8.59722C-9.38716e-05 7.16754 0.548503 5.79202 1.53325 4.75282C2.518 3.71363 3.86424 3.08955 5.29582 3.00861L5.61364 3ZM35.4091 13.1697L19.5976 21.3675C19.4445 21.4469 19.277 21.4949 19.1049 21.5088C18.9329 21.5227 18.7598 21.5022 18.5958 21.4484L18.4024 21.3675L2.59091 13.1697V28.4028C2.59094 29.1592 2.8762 29.8879 3.39008 30.4443C3.90396 31.0007 4.60888 31.3441 5.36491 31.4063L5.61364 31.4167H32.3864C33.1452 31.4166 33.8763 31.1319 34.4344 30.6192C34.9925 30.1065 35.3367 29.4032 35.3987 28.6491L35.4091 28.4028V13.1697ZM32.3864 5.58333H5.61364C4.85504 5.58336 4.12418 5.86779 3.56614 6.38017C3.00811 6.89255 2.66369 7.5954 2.60127 8.34922L2.59091 8.59722V10.2574L19 18.7652L35.4091 10.2574V8.59722C35.409 7.84057 35.1235 7.11162 34.6093 6.55517C34.095 5.99872 33.3897 5.6555 32.6334 5.59367L32.3864 5.58333Z"/>
</svg>
