<svg width="25" height="24" viewBox="0 0 25 24" fill="none" xmlns="http://www.w3.org/2000/svg">
<path opacity="0.5" d="M13.5002 22H9.50035C8.28035 22 7.24035 21.88 6.36035 21.62C6.58035 19.02 9.25035 16.97 12.5004 16.97"  stroke-width="1.5" stroke-linecap="round" stroke-linejoin="round"/>
<path d="M22.5 13V9C22.5 4 20.5 2 15.5 2H9.5C4.5 2 2.5 4 2.5 9V15C2.5 18.78 3.64 20.85 6.36 21.62C7.24 21.88 8.28 22 9.5 22H13.5" stroke-width="1.5" stroke-linecap="round" stroke-linejoin="round"/>
<path opacity="0.5" d="M16.0799 10.58C16.0799 12.56 14.4799 14.17 12.4999 14.17C10.5199 14.17 8.91992 12.56 8.91992 10.58C8.91992 8.60002 10.5199 7 12.4999 7C14.4799 7 16.0799 8.60002 16.0799 10.58Z" stroke-width="1.5" stroke-linecap="round" stroke-linejoin="round"/>
<path d="M23.5 19C23.5 19.75 23.29 20.46 22.92 21.06C22.71 21.42 22.44 21.74 22.13 22C21.43 22.63 20.51 23 19.5 23C18.04 23 16.77 22.22 16.08 21.06C15.71 20.46 15.5 19.75 15.5 19C15.5 17.74 16.08 16.61 17 15.88C17.69 15.33 18.56 15 19.5 15C21.71 15 23.5 16.79 23.5 19Z" stroke-width="1.5" stroke-miterlimit="10" stroke-linecap="round" stroke-linejoin="round"/>
<path d="M17.9404 19L18.9304 19.99L21.0604 18.02" stroke-width="1.5" stroke-linecap="round" stroke-linejoin="round"/>
</svg>
