<svg width="25" height="24" viewBox="0 0 25 24" fill="none" xmlns="http://www.w3.org/2000/svg">
<path opacity="0.5" d="M18.6404 21.62C17.7604 21.88 16.7204 22 15.5004 22H9.50035C8.28035 22 7.24035 21.88 6.36035 21.62C6.58035 19.02 9.25035 16.97 12.5004 16.97C15.7504 16.97 18.4204 19.02 18.6404 21.62Z" stroke="white" stroke-width="1.5" stroke-linecap="round" stroke-linejoin="round"/>
<path d="M22.5 9V15C22.5 18.78 21.36 20.85 18.64 21.62C17.76 21.88 16.72 22 15.5 22H9.5C8.28 22 7.24 21.88 6.36 21.62C3.64 20.85 2.5 18.78 2.5 15L2.5 9C2.5 4 4.5 2 9.5 2L15.5 2C20.5 2 22.5 4 22.5 9Z" stroke="white" stroke-width="1.5" stroke-linecap="round" stroke-linejoin="round"/>
<path opacity="0.5" d="M16.08 10.58C16.08 12.56 14.48 14.17 12.5 14.17C10.52 14.17 8.91998 12.56 8.91998 10.58C8.91998 8.60002 10.52 7 12.5 7C14.48 7 16.08 8.60002 16.08 10.58Z" stroke="white" stroke-width="1.5" stroke-linecap="round" stroke-linejoin="round"/>
</svg>
