<svg width="167" height="50" viewBox="0 0 167 50" fill="none" xmlns="http://www.w3.org/2000/svg">
<g clip-path="url(#clip0_1205_14148)">
<path d="M36.7344 0H8.03666C3.59814 0 0 3.6225 0 8.09108V36.9832C0 41.4518 3.59814 45.0743 8.03666 45.0743H36.7344C41.173 45.0743 44.7711 41.4518 44.7711 36.9832V8.09108C44.7711 3.6225 41.173 0 36.7344 0Z" fill="#0047FE"/>
<path d="M67.908 4.97416C66.8386 4.97416 66.1755 5.60939 65.9509 6.89061L65.8654 7.31051H69.4479L68.7207 11.3426H65.1649L63.4592 21.2371H58.2779L59.9836 11.3426H57.6362L58.3634 7.31051H60.6841L60.8552 6.32537C61.0699 4.78349 61.8547 3.38003 63.0528 2.39556C64.3366 1.42582 65.9141 0.933188 67.5176 1.00129C69.3606 1.00129 70.733 1.50732 71.6349 2.51938L69.5121 5.62015C69.3016 5.40946 69.051 5.24366 68.7754 5.13267C68.4998 5.02168 68.2048 4.96776 67.908 4.97416Z" fill="#181818"/>
<path d="M81.4038 7.31051H85.9382L83.5052 21.2371H78.9656V19.7405C77.777 20.8721 76.206 21.507 74.5703 21.517C73.7146 21.5646 72.8603 21.4006 72.082 21.0393C71.3038 20.6781 70.6252 20.1305 70.1055 19.4444C69.0717 18.0663 68.7402 16.306 69.1109 14.1634C69.3905 12.1838 70.3226 10.3562 71.7577 8.97394C73.0993 7.69669 74.8843 6.99911 76.7305 7.03058C78.5592 7.03058 79.9405 7.64068 80.8745 8.86089L81.4038 7.31051ZM74.5168 16.4621C74.7368 16.7386 75.0199 16.9574 75.3421 17.0999C75.6642 17.2424 76.0158 17.3043 76.3669 17.2804C77.1617 17.2886 77.9287 16.9856 78.5057 16.4352C79.123 15.8537 79.5326 15.0837 79.6714 14.2442C79.7674 13.88 79.7846 13.4993 79.7219 13.1278C79.6591 12.7563 79.5179 12.4027 79.3078 12.0909C79.0886 11.8148 78.8064 11.5962 78.4852 11.4537C78.164 11.3113 77.8133 11.2491 77.463 11.2726C76.6591 11.2671 75.8832 11.5692 75.2921 12.1178C74.6618 12.6928 74.2513 13.4717 74.1318 14.3196C74.0427 14.6856 74.0309 15.0664 74.0972 15.4374C74.1635 15.8083 74.3065 16.1611 74.5168 16.4729V16.4621Z" fill="#181818"/>
<path d="M92.2104 21.6301C91.0161 21.6311 89.8278 21.4607 88.6813 21.124C87.6766 20.8582 86.7288 20.4094 85.8848 19.7997L87.9274 16.2468C89.1572 17.1296 90.8183 17.5711 92.9108 17.5711C93.8787 17.5711 94.3652 17.3288 94.3652 16.8389C94.3652 16.3491 93.7984 16.1337 92.6595 16.0799C91.3602 16.0823 90.0939 15.6675 89.0449 14.8956C88.6212 14.5622 88.2814 14.1332 88.0529 13.6431C87.8244 13.1531 87.7136 12.6158 87.7295 12.0747C87.7093 11.3366 87.8729 10.6051 88.2054 9.9469C88.5379 9.28871 89.0287 8.72475 89.6331 8.30642C90.9021 7.3769 92.5918 6.91214 94.7021 6.91214C96.634 6.8692 98.5435 7.33497 100.242 8.26335L98.1991 11.7894C97.0481 11.1782 95.7562 10.8865 94.4561 10.9442C93.2958 10.9442 92.7183 11.1972 92.7183 11.7033C92.7183 12.0801 93.1033 12.2954 93.868 12.3493C97.561 12.6364 99.4075 13.9337 99.4075 16.2414C99.4075 18.0681 98.7641 19.4211 97.4772 20.3004C96.1904 21.1797 94.4348 21.6229 92.2104 21.6301Z" fill="#181818"/>
<path d="M108.781 11.3049L108.011 15.6815C107.824 16.6774 108.177 17.1781 109.08 17.1781C109.634 17.1683 110.18 17.0437 110.684 16.812L111.134 20.6449C109.828 21.2814 108.392 21.6004 106.942 21.5762C105.337 21.5762 104.172 21.1402 103.455 20.2789C102.739 19.4175 102.514 18.1255 102.798 16.5106L103.685 11.3049H101.477L102.177 7.29974H104.386L104.974 3.94595L110.182 3.40762L109.481 7.32128H112.62L111.92 11.3049H108.781Z" fill="#181818"/>
<path d="M68.3839 29.9903C69.2391 29.9426 70.0929 30.1059 70.871 30.4662C71.6492 30.8265 72.3281 31.3728 72.8487 32.0575C73.886 33.4428 74.2175 35.2049 73.8433 37.3439C73.5649 39.3223 72.6325 41.1486 71.1964 42.528C69.8556 43.8029 68.0731 44.5003 66.229 44.4714C64.5144 44.4714 63.2453 43.9546 62.4219 42.921L61.1921 49.9946H56.0107L59.4543 30.2649H63.9886V31.7614C65.1803 30.6355 66.7497 30.0031 68.3839 29.9903ZM67.6727 39.4003C68.3041 38.8284 68.715 38.0507 68.833 37.2039C68.9214 36.8375 68.9323 36.4565 68.8651 36.0855C68.7979 35.7146 68.6539 35.362 68.4427 35.0506C68.2227 34.7741 67.9396 34.5553 67.6174 34.4128C67.2953 34.2703 66.9437 34.2084 66.5926 34.2323C65.7973 34.2218 65.0296 34.5252 64.4538 35.0775C63.8362 35.6609 63.4265 36.4328 63.2881 37.2739C63.1959 37.6385 63.1806 38.0185 63.2432 38.3894C63.3058 38.7603 63.445 39.1138 63.6517 39.4272C63.872 39.7031 64.1553 39.9211 64.4775 40.0627C64.7997 40.2042 65.1511 40.2651 65.5018 40.2401C66.3055 40.2498 67.0823 39.9493 67.6727 39.4003Z" fill="#181818"/>
<path d="M85.6336 29.958C86.271 29.9224 86.9076 30.0395 87.4914 30.2996C88.0751 30.5598 88.5892 30.9556 88.9915 31.4546L86.2485 35.2229C85.7117 34.6873 84.9883 34.384 84.2326 34.3777C83.8632 34.3701 83.496 34.4388 83.1539 34.5795C82.8118 34.7202 82.502 34.93 82.2435 35.1959C81.6621 35.8171 81.2882 36.6058 81.1741 37.4515L79.9978 44.213H74.8218L77.2547 30.2918H81.9869L81.6821 32.2997C82.0693 31.5865 82.6411 30.9922 83.3369 30.5799C84.0326 30.1676 84.8263 29.9527 85.6336 29.958Z" fill="#181818"/>
<path d="M88.0129 44.1914L90.4459 30.2702H95.6272L93.1889 44.1914H88.0129ZM93.3012 29.2851C92.931 29.3148 92.5587 29.2628 92.2105 29.1326C91.8623 29.0024 91.5466 28.7973 91.2853 28.5314C91.0568 28.2525 90.895 27.9244 90.8124 27.5725C90.7299 27.2206 90.7289 26.8543 90.8095 26.5019C90.9215 25.7844 91.3047 25.1383 91.8789 24.6985C92.4871 24.2143 93.2424 23.9558 94.0177 23.9664C94.3911 23.9386 94.7661 23.9925 95.1168 24.1245C95.4676 24.2564 95.7858 24.4633 96.0496 24.7308C96.2825 25.0125 96.4456 25.3458 96.5255 25.7033C96.6054 26.0608 96.6 26.4323 96.5094 26.7873C96.3799 27.5031 95.984 28.1423 95.4026 28.5745C94.8037 29.0467 94.0618 29.2976 93.3012 29.2851Z" fill="#181818"/>
<path d="M107.664 29.958C109.546 29.958 110.834 30.5322 111.529 31.6807C112.225 32.8291 112.403 34.3687 112.064 36.2995L110.685 44.1914H105.509L106.851 36.4987C106.977 35.9432 106.907 35.3606 106.653 34.8514C106.524 34.6291 106.335 34.4486 106.108 34.3312C105.88 34.2138 105.624 34.1646 105.37 34.1893C104.709 34.1916 104.072 34.4366 103.578 34.8783C103.008 35.3944 102.64 36.0991 102.541 36.8648L101.252 44.1914H96.071L98.5093 30.2702H103.044V31.7937C104.282 30.591 105.943 29.9309 107.664 29.958Z" fill="#181818"/>
<path d="M121.523 34.27L120.764 38.6413C120.577 39.6372 120.935 40.1378 121.833 40.1378C122.388 40.1275 122.934 40.001 123.437 39.7664L123.881 43.6047C122.573 44.2401 121.136 44.5573 119.684 44.5306C118.08 44.5306 116.914 44.0999 116.197 43.2332C115.481 42.3665 115.262 41.1122 115.54 39.4649L116.438 34.2754H114.214L114.914 30.2756H117.128L117.716 26.9218L122.919 26.3835L122.218 30.3025H125.357L124.656 34.3023L121.523 34.27Z" fill="#181818"/>
<path opacity="0.5" d="M10.6942 31.8475C10.3509 32.3992 10.1554 33.031 10.1267 33.6814C10.0981 34.3318 10.2373 34.9785 10.5308 35.5586C10.8242 36.1387 11.262 36.6323 11.8013 36.9914C12.3407 37.3505 12.9633 37.5629 13.6084 37.6077H18.4207V28.9944H15.6563C14.6547 28.9974 13.6711 29.2618 12.8013 29.7619C11.9316 30.2619 11.2056 30.9806 10.6942 31.8475Z" fill="white"/>
<path d="M28.7618 8.65095H15.9288C14.3902 8.65095 12.9145 9.26632 11.8265 10.3617C10.7385 11.4571 10.1273 12.9427 10.1273 14.4918V33.9632C10.0968 33.2206 10.2826 32.4852 10.662 31.8475C11.1754 30.9792 11.9043 30.2602 12.777 29.7609C13.6497 29.2617 14.6363 28.9994 15.6401 28.9998H28.7618C29.5246 28.9998 30.2799 28.8484 30.9845 28.5541C31.689 28.2599 32.3291 27.8287 32.8679 27.2852C33.4068 26.7417 33.8339 26.0965 34.1249 25.3867C34.4158 24.6768 34.5648 23.9161 34.5634 23.1481V14.4918C34.5634 12.9427 33.9522 11.4571 32.8642 10.3617C31.7762 9.26632 30.3005 8.65095 28.7618 8.65095ZM26.4893 20.7903C26.4893 21.1686 26.34 21.5315 26.0743 21.799C25.8086 22.0665 25.4481 22.2168 25.0723 22.2168H18.4152V15.4339H25.0723C25.4472 15.4339 25.8068 15.5835 26.0724 15.8498C26.338 16.1162 26.4879 16.4777 26.4893 16.8551V20.7903Z" fill="url(#logo-mask)"/>
<path opacity="0.6" d="M29.4518 15.4339H25.0725C25.4474 15.4339 25.807 15.5835 26.0726 15.8498C26.3382 16.1162 26.4881 16.4777 26.4895 16.8551V20.7903C26.4895 21.1686 26.3402 21.5315 26.0745 21.799C25.8087 22.0665 25.4483 22.2168 25.0725 22.2168H29.4518C30.4507 22.2169 31.4277 22.5117 32.262 23.0647C33.0964 23.6177 33.7515 24.4047 34.1465 25.3284C34.4196 24.6437 34.5612 23.9129 34.5636 23.1751V20.5803C34.5636 19.2154 34.025 17.9064 33.0664 16.9412C32.1077 15.9761 30.8075 15.4339 29.4518 15.4339Z" fill="url(#logo-mask1)"/>
<path d="M160.129 45.5642H134.051C133.42 45.5798 132.793 45.4555 132.215 45.2002C131.636 44.9448 131.121 44.5646 130.704 44.0865C130.288 43.6083 129.981 43.0439 129.806 42.4332C129.63 41.8225 129.59 41.1804 129.688 40.5523L130.934 30.3241C131.126 28.9587 131.793 27.7062 132.816 26.7895C133.839 25.8727 135.152 25.3511 136.522 25.3176H162.599C163.23 25.3021 163.857 25.4263 164.435 25.6813C165.012 25.9364 165.528 26.3161 165.944 26.7936C166.36 27.2711 166.667 27.8348 166.843 28.4448C167.019 29.0549 167.06 29.6964 166.963 30.3241L165.717 40.5523C165.525 41.9182 164.858 43.1714 163.835 44.089C162.812 45.0067 161.499 45.5294 160.129 45.5642Z" fill="#0047FE"/>
<path d="M141.698 37.0963C140.987 37.0506 140.278 37.2053 139.65 37.5431C139.393 37.7356 139.177 37.9774 139.013 38.2546C138.85 38.5318 138.743 38.8389 138.698 39.1581H146.719L146.157 42.318H134.394L134.891 39.4003C135.032 38.4401 135.336 37.5115 135.789 36.6548C136.153 35.9862 136.688 35.4283 137.34 35.0398C137.928 34.6853 138.572 34.4323 139.243 34.2916C140.008 34.148 140.786 34.0813 141.564 34.0924C142.235 34.1363 142.905 34.0046 143.51 33.7102C143.72 33.5773 143.89 33.3892 144.001 33.1662C144.112 32.9432 144.161 32.6938 144.141 32.4451C144.152 32.2589 144.111 32.0733 144.022 31.9096C143.933 31.7459 143.8 31.6106 143.639 31.5192C143.268 31.3062 142.846 31.2018 142.42 31.2177C141.143 31.2177 140.384 31.713 140.142 32.7035H136.27C136.737 29.6207 138.947 28.0792 142.901 28.0792C144.224 28.0143 145.534 28.3723 146.644 29.1021C147.119 29.4447 147.5 29.9028 147.751 30.4337C148.003 30.9647 148.116 31.5511 148.082 32.1382C148.122 32.8547 147.981 33.5696 147.674 34.217C147.366 34.8643 146.902 35.4232 146.323 35.8419C144.953 36.7442 143.333 37.1835 141.698 37.0963Z" fill="white"/>
<path d="M161.236 28.2461L159.739 36.7948H161.193L160.658 39.8956H159.22L158.798 42.3288H155.146L155.563 39.8956H148.349L148.649 36.6064L157.578 28.2461H161.236ZM152.787 36.8594H156.135L156.792 33.0911L152.787 36.8594Z" fill="white"/>
</g>
<defs>
<linearGradient id="logo-mask" x1="10.1273" y1="21.3232" x2="34.5634" y2="21.3232" gradientUnits="userSpaceOnUse">
<stop offset="0.74" stop-color="white"/>
<stop offset="0.79" stop-color="white" stop-opacity="0.89"/>
<stop offset="0.88" stop-color="white" stop-opacity="0.73"/>
<stop offset="0.96" stop-color="white" stop-opacity="0.64"/>
<stop offset="1" stop-color="white" stop-opacity="0.6"/>
</linearGradient>
<linearGradient id="logo-mask1" x1="26.5001" y1="20.0001" x2="34.9996" y2="19.9407" gradientUnits="userSpaceOnUse">
<stop offset="0.0001" stop-color="#0047FE" stop-opacity="0.59"/>
<stop offset="1" stop-color="#0047FE"/>
</linearGradient>
<clipPath id="clip0_1205_14148">
<rect width="167" height="50" fill="white"/>
</clipPath>
</defs>
</svg>
