<svg width="46" height="28" viewBox="0 0 46 28" fill="none" xmlns="http://www.w3.org/2000/svg">
<path d="M21.6594 25.3868C21.7695 25.4798 21.8887 25.5728 22.0057 25.6635C19.6811 27.189 16.9523 28.0015 14.1621 27.9989C12.3023 28.0003 10.4604 27.6394 8.74177 26.9366C7.02316 26.2338 5.46155 25.2029 4.14624 23.903C2.83093 22.603 1.78772 21.0595 1.07627 19.3607C0.364826 17.6619 -0.000903229 15.841 1.67511e-06 14.0024C-0.000240271 11.47 0.69425 8.98494 2.00952 6.81189C3.32478 4.63884 5.21157 2.85914 7.46896 1.66231C9.72635 0.465487 12.2698 -0.103649 14.8285 0.0155117C17.3872 0.134672 19.8652 0.937668 21.9988 2.33899C21.8842 2.43648 21.7695 2.52491 21.6823 2.62468C20.0291 4.03592 18.7027 5.78257 17.7933 7.74585C16.8839 9.70913 16.4128 11.843 16.412 14.0024C16.412 18.367 18.3224 22.5163 21.6594 25.3868ZM31.6611 0.0035929C28.8734 -0.00176694 26.1468 0.81102 23.8267 2.33899C23.9391 2.43648 24.0538 2.52491 24.1409 2.62468C27.4939 5.48837 29.4136 9.63993 29.4136 14.0024C29.4136 18.3648 27.4985 22.5118 24.1661 25.3868C24.0538 25.4798 23.9345 25.5728 23.8198 25.6635C26.1425 27.1895 28.87 28.0021 31.6589 27.9989C33.5334 28.0226 35.394 27.6781 37.1328 26.9854C38.8715 26.2926 40.4539 25.2655 41.788 23.9634C43.1221 22.6614 44.1814 21.1104 44.9044 19.4005C45.6274 17.6906 45.9998 15.8557 46 14.0024C46.0001 12.149 45.628 10.3141 44.9053 8.60407C44.1825 6.89402 43.1235 5.34287 41.7896 4.04063C40.4557 2.73838 38.8735 1.71095 37.1349 1.01795C35.3962 0.324942 33.5357 -0.0198429 31.6611 0.0035929ZM22.9116 3.00559C21.2255 4.31265 19.8626 5.98219 18.9264 7.88756C17.9902 9.79293 17.5052 11.8841 17.5082 14.0024C17.5038 16.1218 17.9881 18.2144 18.9244 20.1211C19.8607 22.0278 21.2243 23.6984 22.9116 25.0059C24.5984 23.6978 25.9619 22.0272 26.8985 20.1207C27.8351 18.2141 28.3203 16.1218 28.3173 14.0024C28.3204 11.8838 27.8352 9.79245 26.8986 7.88702C25.9619 5.98158 24.5984 4.31219 22.9116 3.00559Z" fill="white"/>
</svg>
