<svg width="54" height="54" viewBox="0 0 54 54" fill="none" xmlns="http://www.w3.org/2000/svg">
<g opacity="0.5">
<path d="M19.5117 32.2421C19.5117 35.1446 21.7392 37.4846 24.5067 37.4846H30.1542C32.5617 37.4846 34.5192 35.4372 34.5192 32.9172C34.5192 30.1721 33.3267 29.2046 31.5492 28.5746L22.4817 25.4246C20.7042 24.7946 19.5117 23.8271 19.5117 21.0821C19.5117 18.5621 21.4692 16.5146 23.8767 16.5146H29.5242C32.2917 16.5146 34.5192 18.8546 34.5192 21.7571" stroke="white" stroke-width="3" stroke-linecap="round" stroke-linejoin="round"/>
<path d="M27 13.5V40.5" stroke="white" stroke-width="3" stroke-linecap="round" stroke-linejoin="round"/>
</g>
<path d="M33.75 49.5H20.25C9 49.5 4.5 45 4.5 33.75V20.25C4.5 9 9 4.5 20.25 4.5H33.75C45 4.5 49.5 9 49.5 20.25V33.75C49.5 45 45 49.5 33.75 49.5Z" stroke="white" stroke-width="3" stroke-linecap="round" stroke-linejoin="round"/>
</svg>
