<svg width="38" height="38" viewBox="0 0 38 38" fill="none" xmlns="http://www.w3.org/2000/svg">
<path d="M11.0833 7.91669C11.0833 5.28835 13.205 3.16669 15.8333 3.16669H22.1667C24.795 3.16669 26.9167 5.28835 26.9167 7.91669C26.9167 8.78752 26.2042 9.50002 25.3333 9.50002H12.6667C11.7958 9.50002 11.0833 8.78752 11.0833 7.91669Z" fill="white"/>
<path d="M28.1042 23.75C28.1042 24.3992 27.5658 24.9375 26.9167 24.9375H25.3333V30.0833C25.3333 32.7117 23.2117 34.8333 20.5833 34.8333H17.4167C14.7883 34.8333 12.6667 32.7117 12.6667 30.0833V24.9375H11.0833C10.4342 24.9375 9.89583 24.3992 9.89583 23.75C9.89583 23.1008 10.4342 22.5625 11.0833 22.5625H26.9167C27.5658 22.5625 28.1042 23.1008 28.1042 23.75Z" fill="white"/>
<path d="M28.5 11.0833H9.5C6.33333 11.0833 4.75 12.6666 4.75 15.8333V23.75C4.75 26.9166 6.33333 28.5 9.5 28.5H10.2833C10.7252 28.5 11.0833 28.1418 11.0833 27.7V27.3208C11.0833 26.879 10.7176 26.5322 10.2945 26.405C9.15359 26.0618 8.3125 24.9964 8.3125 23.75C8.3125 22.23 9.56333 20.9791 11.0833 20.9791H26.9167C28.4367 20.9791 29.6875 22.23 29.6875 23.75C29.6875 24.9964 28.8464 26.0618 27.7055 26.405C27.2824 26.5322 26.9167 26.879 26.9167 27.3208V27.7C26.9167 28.1418 27.2748 28.5 27.7167 28.5H28.5C31.6667 28.5 33.25 26.9166 33.25 23.75V15.8333C33.25 12.6666 31.6667 11.0833 28.5 11.0833ZM15.8333 18.6041H11.0833C10.4342 18.6041 9.89583 18.0658 9.89583 17.4166C9.89583 16.7675 10.4342 16.2291 11.0833 16.2291H15.8333C16.4825 16.2291 17.0208 16.7675 17.0208 17.4166C17.0208 18.0658 16.4825 18.6041 15.8333 18.6041Z" fill="white"/>
</svg>
