<svg width="14" height="15" viewBox="0 0 14 15" fill="none" xmlns="http://www.w3.org/2000/svg">
<path d="M9.771 13.3335H7.146C4.9585 13.3335 4.0835 12.4585 4.0835 10.271V7.646C4.0835 5.4585 4.9585 4.5835 7.146 4.5835H9.771C11.9585 4.5835 12.8335 5.4585 12.8335 7.646V10.271C12.8335 12.4585 11.9585 13.3335 9.771 13.3335Z"/>
<path d="M1.604 6.62484C1.84317 6.62484 2.0415 6.4265 2.0415 6.18734C2.0415 4.46067 3.24317 3.014 4.859 2.63484L4.7015 2.89734C4.579 3.10734 4.64317 3.37567 4.85317 3.49817C5.06317 3.62067 5.3315 3.5565 5.454 3.3465L6.0665 2.32567C6.14817 2.1915 6.14817 2.02234 6.07234 1.88817C5.99067 1.754 5.84484 1.6665 5.68734 1.6665C3.1965 1.6665 1.1665 3.6965 1.1665 6.18734C1.1665 6.4265 1.36484 6.62484 1.604 6.62484Z"/>
</svg>
