<svg width="80" height="80" viewBox="0 0 80 80" fill="none" xmlns="http://www.w3.org/2000/svg">
<path d="M65.6395 0H14.3604C6.42939 0 0 6.42939 0 14.3604V65.6395C0 73.5706 6.42939 80 14.3604 80H65.6395C73.5706 80 80 73.5706 80 65.6395V14.3604C80 6.42939 73.5706 0 65.6395 0Z" fill="#0047FE"/>
<path opacity="0.5" d="M19.1089 56.5248C18.4955 57.504 18.1461 58.6253 18.0949 59.7796C18.0438 60.9339 18.2925 62.0818 18.8169 63.1114C19.3413 64.141 20.1235 65.0171 21.0873 65.6545C22.051 66.2918 23.1635 66.6686 24.3162 66.7482H32.9152V51.4609H27.9755C26.1859 51.4662 24.4282 51.9355 22.8741 52.8231C21.3201 53.7106 20.0228 54.9861 19.1089 56.5248V56.5248Z" fill="white"/>
<path d="M51.3938 15.3545H28.463C25.7136 15.3545 23.0768 16.4467 21.1327 18.3908C19.1885 20.3349 18.0963 22.9717 18.0963 25.7211V60.2798C18.0419 58.9618 18.374 57.6566 19.0518 56.5249C19.9693 54.9838 21.2716 53.7076 22.8311 52.8215C24.3905 51.9354 26.1535 51.4699 27.9471 51.4706H51.3938C52.7568 51.4706 54.1064 51.2018 55.3654 50.6796C56.6244 50.1575 57.7681 49.3922 58.7309 48.4275C59.6938 47.4628 60.457 46.3178 60.9769 45.0578C61.4967 43.7979 61.763 42.4478 61.7605 41.0848V25.7211C61.7605 22.9717 60.6683 20.3349 58.7242 18.3908C56.7801 16.4467 54.1433 15.3545 51.3938 15.3545V15.3545ZM47.3332 36.8999C47.3332 37.5714 47.0664 38.2155 46.5916 38.6903C46.1167 39.1651 45.4727 39.4319 44.8012 39.4319H32.9058V27.3932H44.8012C45.4711 27.3932 46.1137 27.6586 46.5882 28.1314C47.0628 28.6042 47.3306 29.2457 47.3332 29.9156V36.8999Z" fill="url(#paint0_linear_401_2296)"/>
<path opacity="0.6" d="M52.6262 27.3926H44.801C45.4709 27.3926 46.1135 27.658 46.588 28.1308C47.0626 28.6036 47.3304 29.2451 47.333 29.915V36.8993C47.333 37.5708 47.0662 38.2149 46.5914 38.6897C46.1166 39.1645 45.4725 39.4313 44.801 39.4313H52.6262C54.4111 39.4315 56.1569 39.9546 57.6478 40.9361C59.1386 41.9175 60.3093 43.3143 61.015 44.9538C61.5031 43.7385 61.756 42.4416 61.7603 41.132V36.5267C61.7603 34.1042 60.798 31.7809 59.085 30.0679C57.372 28.3549 55.0487 27.3926 52.6262 27.3926V27.3926Z" fill="url(#paint1_linear_401_2296)"/>
<defs>
<linearGradient id="paint0_linear_401_2296" x1="18.0963" y1="37.8458" x2="61.7605" y2="37.8458" gradientUnits="userSpaceOnUse">
<stop offset="0.74" stop-color="white"/>
<stop offset="0.79" stop-color="white" stop-opacity="0.89"/>
<stop offset="0.88" stop-color="white" stop-opacity="0.73"/>
<stop offset="0.96" stop-color="white" stop-opacity="0.64"/>
<stop offset="1" stop-color="white" stop-opacity="0.6"/>
</linearGradient>
<linearGradient id="paint1_linear_401_2296" x1="47.3519" y1="35.4968" x2="62.5395" y2="35.39" gradientUnits="userSpaceOnUse">
<stop offset="0.0001" stop-color="#0047FE" stop-opacity="0.59"/>
<stop offset="1" stop-color="#0047FE"/>
</linearGradient>
</defs>
</svg>
