<svg width="30" height="30" viewBox="0 0 30 30" fill="none" xmlns="http://www.w3.org/2000/svg">
<path d="M24.1252 9.89986V16.3374C24.1252 20.1874 21.9252 21.8373 18.6252 21.8373H7.63769C7.07519 21.8373 6.53769 21.7874 6.03769 21.6749C5.72519 21.6249 5.4252 21.5374 5.1502 21.4374C3.2752 20.7374 2.1377 19.1124 2.1377 16.3374V9.89986C2.1377 6.04986 4.33769 4.3999 7.63769 4.3999H18.6252C21.4252 4.3999 23.4377 5.5874 23.9752 8.2999C24.0627 8.7999 24.1252 9.31236 24.1252 9.89986Z" stroke-width="1.5" stroke-miterlimit="10" stroke-linecap="round" stroke-linejoin="round"/>
<path opacity="0.5" d="M27.8746 13.6498V20.0873C27.8746 23.9373 25.6746 25.5872 22.3746 25.5872H11.3871C10.4621 25.5872 9.62462 25.4623 8.89962 25.1873C7.41212 24.6373 6.39961 23.4998 6.03711 21.6748C6.53711 21.7873 7.07461 21.8372 7.63711 21.8372H18.6246C21.9246 21.8372 24.1246 20.1873 24.1246 16.3373V9.89977C24.1246 9.31227 24.0746 8.7873 23.9746 8.2998C26.3496 8.7998 27.8746 10.4748 27.8746 13.6498Z" stroke-width="1.5" stroke-miterlimit="10" stroke-linecap="round" stroke-linejoin="round"/>
<path d="M13.1252 16.4252C14.9478 16.4252 16.4252 14.9478 16.4252 13.1252C16.4252 11.3027 14.9478 9.8252 13.1252 9.8252C11.3027 9.8252 9.8252 11.3027 9.8252 13.1252C9.8252 14.9478 11.3027 16.4252 13.1252 16.4252Z" stroke-width="1.5" stroke-miterlimit="10" stroke-linecap="round" stroke-linejoin="round"/>
<path opacity="0.5" d="M5.97559 10.375V15.875" stroke-width="1.5" stroke-miterlimit="10" stroke-linecap="round" stroke-linejoin="round"/>
<path opacity="0.5" d="M20.2744 10.375V15.875" stroke-width="1.5" stroke-miterlimit="10" stroke-linecap="round" stroke-linejoin="round"/>
</svg>
