<svg width="42" height="28" viewBox="0 0 42 28" fill="none" xmlns="http://www.w3.org/2000/svg">
<path d="M39.2 28H2.8C2.05739 28 1.3452 27.705 0.820101 27.1799C0.294999 26.6548 0 25.9426 0 25.2V2.8C0 2.05739 0.294999 1.3452 0.820101 0.820101C1.3452 0.294999 2.05739 0 2.8 0H39.2C39.9426 0 40.6548 0.294999 41.1799 0.820101C41.705 1.3452 42 2.05739 42 2.8V25.2C42 25.9426 41.705 26.6548 41.1799 27.1799C40.6548 27.705 39.9426 28 39.2 28ZM16.3707 12.0458C16.3387 12.0463 16.3073 12.0538 16.2786 12.0679C16.2499 12.0821 16.2248 12.1024 16.205 12.1275C16.159 12.1743 16.1327 12.2369 16.1315 12.3025C16.1315 12.327 16.2458 12.6758 16.4908 13.391L17.2667 15.659C17.5428 16.4679 17.6871 16.898 17.6995 16.9493C17.1563 17.6218 16.6653 18.3348 16.2307 19.082L16.1863 19.1637L16.184 19.1928C16.184 19.3095 16.2785 19.4052 16.3963 19.4052L16.4278 19.4028H16.4267H17.8477C17.9139 19.4024 17.979 19.3852 18.0367 19.3527C18.0945 19.3203 18.143 19.2737 18.1778 19.2173L18.179 19.2162L22.883 12.4273C22.9077 12.3948 22.9212 12.3551 22.9215 12.3142L22.9203 12.2967V12.2978C22.9187 12.2323 22.8925 12.1698 22.8468 12.1228C22.8272 12.0978 22.8023 12.0775 22.7738 12.0634C22.7454 12.0493 22.7141 12.0417 22.6823 12.0412H21.2602C21.1938 12.0416 21.1286 12.0588 21.0706 12.0913C21.0127 12.1237 20.9639 12.1703 20.9288 12.2267L20.9277 12.2278L18.9677 15.1048L18.1568 12.3375C18.136 12.2532 18.0877 12.1782 18.0194 12.1245C17.9511 12.0708 17.8669 12.0415 17.78 12.0412L17.7497 12.0423H17.7508L16.3707 12.0458ZM32.6783 11.9163H32.648C31.7637 11.9163 30.9692 12.3002 30.4208 12.9092L30.4185 12.9115C29.8188 13.5317 29.484 14.3611 29.4852 15.2238V15.2553V15.2542C29.4828 15.288 29.4828 15.3288 29.4828 15.3685C29.4828 15.995 29.7267 16.5655 30.1233 16.989L30.1222 16.9878C30.3478 17.2076 30.6164 17.3784 30.9111 17.4897C31.2058 17.6009 31.5203 17.6501 31.8348 17.6342H31.829C32.2222 17.6295 32.5955 17.549 32.9362 17.4043L32.9175 17.4113C33.2617 17.2818 33.5533 17.08 33.7832 16.8233L33.7855 16.821C33.7738 16.8875 33.761 16.9435 33.7458 16.9972L33.7482 16.9855C33.7273 17.0569 33.7148 17.1305 33.7108 17.2048V17.2072C33.7108 17.4032 33.7913 17.5023 33.9512 17.5023H35.224C35.2737 17.5068 35.3238 17.5012 35.3713 17.486C35.4188 17.4708 35.4628 17.4462 35.5007 17.4137C35.5385 17.3811 35.5695 17.3414 35.5917 17.2967C35.6139 17.252 35.6269 17.2033 35.63 17.1535V17.1523L36.386 12.3375C36.3931 12.3012 36.3919 12.2637 36.3824 12.2279C36.3729 12.1921 36.3554 12.159 36.3312 12.131C36.3102 12.1021 36.2826 12.0786 36.2508 12.0623C36.219 12.0461 36.1837 12.0377 36.148 12.0377H34.7445C34.573 12.0377 34.4645 12.2418 34.4295 12.6467C34.2241 12.3832 33.9541 12.1773 33.6456 12.0491C33.3371 11.9209 33.0006 11.8748 32.669 11.9152L32.6783 11.914V11.9163ZM11.7215 11.9163H11.6888C10.8057 11.9163 10.0112 12.3002 9.46517 12.9092L9.46283 12.9115C8.86312 13.5317 8.52837 14.3611 8.5295 15.2238V15.2553V15.2542C8.51404 15.5713 8.5627 15.8883 8.67255 16.1861C8.7824 16.484 8.95119 16.7567 9.16883 16.9878L9.16767 16.9867C9.58067 17.388 10.1453 17.6353 10.7683 17.6353L10.8803 17.633H10.8745C11.2618 17.6272 11.6293 17.5467 11.9642 17.4032L11.9455 17.4102C12.2943 17.2772 12.5907 17.0765 12.8298 16.821L12.831 16.8198C12.7878 16.9342 12.761 17.0672 12.7575 17.2048V17.2072C12.7575 17.4032 12.8392 17.5023 12.9978 17.5023H14.2695C14.3192 17.5068 14.3693 17.5012 14.4168 17.486C14.4643 17.4708 14.5083 17.4462 14.5462 17.4137C14.584 17.3811 14.615 17.3414 14.6372 17.2967C14.6594 17.252 14.6724 17.2033 14.6755 17.1535V17.1523L15.4327 12.3375C15.439 12.3014 15.4373 12.2644 15.4276 12.2291C15.4179 12.1938 15.4005 12.1611 15.3767 12.1333C15.3557 12.1044 15.3281 12.0809 15.2963 12.0647C15.2645 12.0484 15.2292 12.04 15.1935 12.04H13.79C13.6185 12.04 13.51 12.2442 13.4762 12.649C13.2687 12.3876 12.9981 12.1832 12.69 12.0551C12.3818 11.9269 12.0462 11.8792 11.7145 11.9163L11.7238 11.9152L11.7215 11.9163ZM38.0473 9.33333L38.0287 9.33217C37.973 9.33197 37.9192 9.35274 37.8782 9.39036C37.8371 9.42797 37.8117 9.47967 37.807 9.53517L36.6077 17.2107C36.5978 17.2476 36.5977 17.2865 36.6073 17.3235C36.6169 17.3605 36.6359 17.3944 36.6625 17.4218C36.6845 17.448 36.7121 17.4689 36.7431 17.4832C36.7742 17.4975 36.808 17.5049 36.8422 17.5047H38.0672L38.1045 17.507C38.1973 17.507 38.2863 17.4701 38.352 17.4045C38.4176 17.3388 38.4545 17.2498 38.4545 17.157V17.1547L39.6515 9.61217L39.6527 9.5865C39.6526 9.51998 39.6309 9.45528 39.5908 9.40217V9.40333C39.5699 9.38098 39.5446 9.36314 39.5165 9.35091C39.4884 9.33867 39.4581 9.33229 39.4275 9.33217L39.41 9.33333H38.0473ZM24.4323 9.33333C24.3823 9.32676 24.3314 9.33082 24.2829 9.34525C24.2345 9.35968 24.1897 9.38415 24.1514 9.41706C24.1131 9.44998 24.0822 9.4906 24.0606 9.53628C24.0391 9.58196 24.0274 9.63167 24.0263 9.68217L22.8282 17.2095C22.822 17.2453 22.8237 17.282 22.8332 17.3171C22.8426 17.3521 22.8596 17.3847 22.883 17.4125C22.9036 17.4415 22.9309 17.4652 22.9626 17.4814C22.9943 17.4977 23.0294 17.506 23.065 17.5058H24.5875C24.6558 17.5058 24.722 17.482 24.7748 17.4386C24.8275 17.3952 24.8636 17.3349 24.8768 17.2678V17.2655L25.2093 15.1258C25.2193 15.0321 25.2658 14.9462 25.3388 14.8867C25.4184 14.8223 25.5152 14.7808 25.6165 14.7665H25.62C25.7145 14.749 25.823 14.7397 25.9338 14.7385C26.0318 14.7385 26.1497 14.7443 26.285 14.7572C26.4329 14.7742 26.5818 14.782 26.7307 14.7805C27.5854 14.7819 28.4091 14.4597 29.036 13.8787L29.0337 13.881C29.3463 13.5495 29.5877 13.1574 29.743 12.7291C29.8983 12.3007 29.9642 11.845 29.9367 11.3902V11.3995C29.9618 11.0987 29.9102 10.7965 29.7868 10.521C29.6633 10.2456 29.4721 10.0059 29.2308 9.8245L29.2262 9.821C28.6695 9.46896 28.0173 9.29817 27.3595 9.33217H27.3665L24.4323 9.33333ZM3.45333 9.33333C3.40453 9.3281 3.35517 9.33319 3.30846 9.34827C3.26175 9.36335 3.21874 9.38809 3.18221 9.42087C3.14568 9.45366 3.11646 9.49376 3.09644 9.53858C3.07642 9.58339 3.06605 9.63192 3.066 9.681V9.68333L1.86667 17.2107C1.86041 17.2465 1.86208 17.2832 1.87155 17.3183C1.88103 17.3533 1.89808 17.3859 1.9215 17.4137C1.94211 17.4427 1.96941 17.4663 2.00109 17.4826C2.03277 17.4988 2.0679 17.5072 2.1035 17.507H3.50817C3.55825 17.5136 3.60915 17.5095 3.65755 17.4951C3.70596 17.4807 3.75077 17.4562 3.78908 17.4233C3.82739 17.3904 3.85833 17.3497 3.87989 17.3041C3.90144 17.2584 3.91312 17.2087 3.91417 17.1582L4.24667 15.1293C4.25677 15.036 4.30279 14.9502 4.375 14.8902C4.4546 14.8258 4.55133 14.7843 4.65267 14.77H4.65617C4.7594 14.7518 4.864 14.7424 4.96883 14.742H4.97C5.068 14.742 5.18467 14.7478 5.32 14.7607C5.46754 14.7776 5.61599 14.7854 5.7645 14.784C6.65467 14.784 7.46433 14.4422 8.071 13.8822L8.06867 13.8845C8.38117 13.5529 8.6225 13.1608 8.77779 12.7325C8.93309 12.3041 8.99907 11.8485 8.97167 11.3937V11.403C8.99677 11.1022 8.9452 10.8 8.82176 10.5245C8.69832 10.2491 8.50705 10.0094 8.26583 9.828L8.26117 9.8245C7.70687 9.47375 7.05784 9.30263 6.40267 9.3345H6.40967L3.45333 9.33333ZM32.6013 16.1408L32.5453 16.142C32.2472 16.1423 31.9587 16.0369 31.731 15.8445L31.7333 15.8457C31.628 15.7487 31.544 15.6309 31.4866 15.4997C31.4292 15.3686 31.3996 15.227 31.3997 15.0838L31.4008 15.0313V14.9998C31.4008 14.5635 31.577 14.168 31.8628 13.881C32.144 13.5928 32.536 13.4143 32.97 13.4143H33.0085H33.0062L33.0458 13.4132C33.3597 13.4132 33.6455 13.5287 33.8648 13.7188L33.8637 13.7177C33.972 13.818 34.0584 13.9396 34.1174 14.0749C34.1765 14.2103 34.2068 14.3564 34.2067 14.504L34.2055 14.56V14.5577V14.5857C34.2055 15.0162 34.027 15.4058 33.7388 15.6823C33.5933 15.8273 33.4206 15.9423 33.2306 16.0205C33.0406 16.0988 32.8371 16.1389 32.6317 16.1385H32.6025L32.6013 16.1408ZM11.6258 16.1408L11.5675 16.142C11.2618 16.142 10.9807 16.03 10.766 15.8445L10.7672 15.8457C10.6646 15.7476 10.5829 15.6297 10.5272 15.4991C10.4714 15.3686 10.4427 15.2281 10.4428 15.0862L10.444 15.0313V14.9998C10.444 14.5635 10.6202 14.168 10.906 13.881C11.1872 13.5928 11.578 13.4143 12.012 13.4143H12.0528H12.0505L12.0902 13.4132C12.404 13.4132 12.6898 13.5287 12.9092 13.7188L12.908 13.7177C13.016 13.8179 13.1022 13.9394 13.161 14.0745C13.2198 14.2096 13.2501 14.3555 13.2498 14.5028L13.2487 14.56V14.5577V14.5985C13.2487 15.029 13.0702 15.4163 12.782 15.6928C12.483 15.9806 12.084 16.1412 11.669 16.1408H11.6258ZM25.5173 13.1542L25.8312 11.1813C25.8337 11.1523 25.8419 11.124 25.8553 11.0981C25.8687 11.0723 25.8871 11.0493 25.9095 11.0306C25.9318 11.0118 25.9576 10.9977 25.9854 10.9889C26.0132 10.9801 26.0425 10.9769 26.0715 10.9795H26.4028L26.474 10.9783C26.6758 10.9783 26.8753 10.9923 27.0702 11.0192L27.048 11.0168C27.2288 11.0495 27.3863 11.1312 27.51 11.2478C27.5805 11.3144 27.6366 11.3947 27.6749 11.4838C27.7132 11.5729 27.7329 11.6689 27.7328 11.7658L27.7317 11.8102V11.8078C27.7562 12.0027 27.7322 12.2007 27.6617 12.3841C27.5913 12.5675 27.4767 12.7306 27.328 12.859L27.3268 12.8602C26.9551 13.0723 26.5288 13.1698 26.1018 13.1402H26.1088L25.5197 13.1588L25.5173 13.1542ZM4.54183 13.1542L4.85567 11.1813C4.85801 11.1522 4.86611 11.1239 4.8795 11.0979C4.89289 11.072 4.91129 11.049 4.93365 11.0302C4.95601 11.0114 4.98187 10.9973 5.00974 10.9886C5.03761 10.9799 5.06693 10.9768 5.096 10.9795H5.44483C5.81836 10.9521 6.19228 11.0272 6.52633 11.1965L6.51467 11.1907C6.73517 11.3318 6.80983 11.6317 6.73633 12.0843C6.7307 12.2533 6.68452 12.4185 6.60168 12.5659C6.51883 12.7133 6.40176 12.8386 6.26033 12.9313L6.25683 12.9337C5.70386 13.1373 5.11178 13.2123 4.5255 13.153L4.54183 13.1542Z" fill="white"/>
</svg>
