<svg width="14" height="15" viewBox="0 0 14 15" fill="none" xmlns="http://www.w3.org/2000/svg">
<path d="M12.8333 5.46984V2.8215C12.8333 1.999 12.46 1.6665 11.5325 1.6665H9.17583C8.24833 1.6665 7.875 1.999 7.875 2.8215V5.464C7.875 6.29234 8.24833 6.619 9.17583 6.619H11.5325C12.46 6.62484 12.8333 6.29234 12.8333 5.46984Z"/>
<path d="M12.8333 12.0325V9.67583C12.8333 8.74833 12.46 8.375 11.5325 8.375H9.17583C8.24833 8.375 7.875 8.74833 7.875 9.67583V12.0325C7.875 12.96 8.24833 13.3333 9.17583 13.3333H11.5325C12.46 13.3333 12.8333 12.96 12.8333 12.0325Z"/>
<path d="M6.12484 5.46984V2.8215C6.12484 1.999 5.7515 1.6665 4.824 1.6665H2.46734C1.53984 1.6665 1.1665 1.999 1.1665 2.8215V5.464C1.1665 6.29234 1.53984 6.619 2.46734 6.619H4.824C5.7515 6.62484 6.12484 6.29234 6.12484 5.46984Z"/>
<path d="M6.12484 12.0325V9.67583C6.12484 8.74833 5.7515 8.375 4.824 8.375H2.46734C1.53984 8.375 1.1665 8.74833 1.1665 9.67583V12.0325C1.1665 12.96 1.53984 13.3333 2.46734 13.3333H4.824C5.7515 13.3333 6.12484 12.96 6.12484 12.0325Z"/>
</svg>
