<svg width="39" height="39" viewBox="0 0 39 39" fill="none" xmlns="http://www.w3.org/2000/svg">
<path d="M32.7824 6.3681C31.0324 4.60984 28.9483 3.21588 26.6517 2.26745C24.3552 1.31902 21.8919 0.835095 19.4056 0.843867C8.98705 0.843867 0.496214 9.29409 0.486671 19.6681C0.486671 22.9907 1.35985 26.223 3.00839 29.0849L0.333984 38.8438L10.3636 36.2265C13.1382 37.7297 16.2467 38.5176 19.4056 38.5184H19.4151C29.836 38.5184 38.3244 30.0682 38.334 19.6847C38.3364 17.21 37.8468 14.7594 36.8936 12.4739C35.9404 10.1884 34.5447 8.11332 32.7824 6.3681ZM19.4056 35.3311C16.588 35.3321 13.8222 34.5773 11.399 33.1461L10.8264 32.8041L4.87642 34.3574L6.46532 28.579L6.09315 27.9829C4.5181 25.4899 3.6851 22.6036 3.69071 19.6586C3.69071 11.0468 10.7453 4.02161 19.4151 4.02161C21.4805 4.01792 23.5263 4.42126 25.4344 5.20837C27.3425 5.99548 29.0752 7.1508 30.5326 8.60772C31.9952 10.059 33.1546 11.7841 33.944 13.6836C34.7335 15.5832 35.1374 17.6195 35.1323 19.6752C35.1228 28.3178 28.0682 35.3311 19.4056 35.3311ZM28.03 23.6129C27.56 23.3778 25.2387 22.2402 24.8021 22.0787C24.3679 21.9243 24.0506 21.8436 23.7404 22.3138C23.4231 22.7817 22.5166 23.848 22.2446 24.1544C21.9726 24.4703 21.6911 24.5059 21.2187 24.2732C20.7487 24.0357 19.2242 23.5417 17.4206 21.9338C16.013 20.6869 15.0707 19.1432 14.7892 18.6753C14.5172 18.2051 14.7629 17.9533 14.9991 17.7182C15.2067 17.5092 15.4691 17.1672 15.7053 16.8964C15.9438 16.6257 16.0226 16.4262 16.1777 16.1127C16.3327 15.7944 16.2588 15.5237 16.1419 15.2886C16.0226 15.0534 15.0802 12.7331 14.6818 11.7973C14.3001 10.8735 13.9112 11.0017 13.6201 10.9898C13.3482 10.9732 13.0309 10.9732 12.7136 10.9732C12.474 10.9791 12.2382 11.0343 12.021 11.1353C11.8038 11.2362 11.6099 11.3808 11.4515 11.5598C11.0173 12.0301 9.80297 13.1677 9.80297 15.4881C9.80297 17.8084 11.4968 20.0386 11.7354 20.3544C11.9692 20.6703 15.0611 25.4179 19.8064 27.4604C20.9277 27.9473 21.8104 28.2347 22.4999 28.4532C23.6331 28.8142 24.6566 28.7595 25.4725 28.6432C26.3791 28.5054 28.2662 27.5032 28.6646 26.4035C29.0559 25.3015 29.0559 24.361 28.9366 24.1639C28.8197 23.9644 28.5024 23.848 28.03 23.6129Z"/>
</svg>
