<svg width="38" height="38" viewBox="0 0 38 38" fill="none" xmlns="http://www.w3.org/2000/svg">
<path d="M11.0833 7.91663C11.0833 5.28829 13.2049 3.16663 15.8333 3.16663H22.1666C24.7949 3.16663 26.9166 5.28829 26.9166 7.91663C26.9166 8.78746 26.2041 9.49996 25.3333 9.49996H12.6666C11.7958 9.49996 11.0833 8.78746 11.0833 7.91663Z" fill="white"/>
<path d="M28.1041 23.75C28.1041 24.3992 27.5658 24.9375 26.9166 24.9375H25.3333V30.0833C25.3333 32.7117 23.2116 34.8333 20.5833 34.8333H17.4166C14.7883 34.8333 12.6666 32.7117 12.6666 30.0833V24.9375H11.0833C10.4341 24.9375 9.89575 24.3992 9.89575 23.75C9.89575 23.1008 10.4341 22.5625 11.0833 22.5625H26.9166C27.5658 22.5625 28.1041 23.1008 28.1041 23.75Z" fill="white"/>
<path d="M28.5 11.0834H9.5C6.33333 11.0834 4.75 12.6667 4.75 15.8334V23.75C4.75 26.9167 6.33333 28.5 9.5 28.5H10.2833C10.7252 28.5 11.0833 28.1419 11.0833 27.7V27.3209C11.0833 26.879 10.7176 26.5323 10.2945 26.405C9.15359 26.0619 8.3125 24.9965 8.3125 23.75C8.3125 22.23 9.56333 20.9792 11.0833 20.9792H26.9167C28.4367 20.9792 29.6875 22.23 29.6875 23.75C29.6875 24.9965 28.8464 26.0619 27.7055 26.405C27.2824 26.5323 26.9167 26.879 26.9167 27.3209V27.7C26.9167 28.1419 27.2748 28.5 27.7167 28.5H28.5C31.6667 28.5 33.25 26.9167 33.25 23.75V15.8334C33.25 12.6667 31.6667 11.0834 28.5 11.0834ZM15.8333 18.6042H11.0833C10.4342 18.6042 9.89583 18.0659 9.89583 17.4167C9.89583 16.7675 10.4342 16.2292 11.0833 16.2292H15.8333C16.4825 16.2292 17.0208 16.7675 17.0208 17.4167C17.0208 18.0659 16.4825 18.6042 15.8333 18.6042Z" fill="white"/>
</svg>
