<svg width="24" height="24" viewBox="0 0 24 24" fill="none" xmlns="http://www.w3.org/2000/svg">
<path opacity="0.5" d="M7.25 7L16.75 7V5C16.75 3 16 2 13.75 2L10.25 2C8 2 7.25 3 7.25 5L7.25 7Z" stroke-width="1.5" stroke-miterlimit="10" stroke-linecap="round" stroke-linejoin="round"/>
<path d="M16 15V19C16 21 15 22 13 22H11C9 22 8 21 8 19L8 15L16 15Z" stroke-width="1.5" stroke-miterlimit="10" stroke-linecap="round" stroke-linejoin="round"/>
<path d="M21 10V15C21 17 20 18 18 18H16V15L8 15L8 18H6C4 18 3 17 3 15L3 10C3 8 4 7 6 7L18 7C20 7 21 8 21 10Z" stroke-width="1.5" stroke-miterlimit="10" stroke-linecap="round" stroke-linejoin="round"/>
<path d="M17 15H15.79L7 15" stroke-width="1.5" stroke-miterlimit="10" stroke-linecap="round" stroke-linejoin="round"/>
<path opacity="0.5" d="M7 11H10" stroke-width="1.5" stroke-miterlimit="10" stroke-linecap="round" stroke-linejoin="round"/>
</svg>
