<svg width="14" height="15" viewBox="0 0 14 15" fill="none" xmlns="http://www.w3.org/2000/svg">
<path d="M11.9585 6.444H10.2727C8.89016 6.444 7.76433 5.31817 7.76433 3.93567V2.24984C7.76433 1.929 7.50183 1.6665 7.181 1.6665H4.70766C2.911 1.6665 1.4585 2.83317 1.4585 4.91567V10.084C1.4585 12.1665 2.911 13.3332 4.70766 13.3332H9.29266C11.0893 13.3332 12.5418 12.1665 12.5418 10.084V7.02734C12.5418 6.7065 12.2793 6.444 11.9585 6.444Z"/>
<path d="M9.21681 1.78896C8.97764 1.54979 8.56348 1.71313 8.56348 2.04563V4.08146C8.56348 4.93313 9.28681 5.63896 10.1676 5.63896C10.7218 5.64479 11.4918 5.64479 12.151 5.64479C12.4835 5.64479 12.6585 5.25396 12.4251 5.02063C11.5851 4.17479 10.0801 2.65229 9.21681 1.78896Z"/>
</svg>
