<svg width="38" height="39" viewBox="0 0 38 39" fill="none" xmlns="http://www.w3.org/2000/svg">
<path opacity="0.4" d="M19.0004 22.6045H20.5838C22.3254 22.6045 23.7504 21.1795 23.7504 19.4378V3.60449H9.50043C7.12543 3.60449 5.05128 4.91864 3.97461 6.85031" stroke-width="2" stroke-linecap="round" stroke-linejoin="round"/>
<path d="M3.16602 27.3545C3.16602 29.9828 5.28768 32.1045 7.91602 32.1045H9.49935C9.49935 30.3628 10.9243 28.9378 12.666 28.9378C14.4077 28.9378 15.8327 30.3628 15.8327 32.1045H22.166C22.166 30.3628 23.591 28.9378 25.3327 28.9378C27.0744 28.9378 28.4994 30.3628 28.4994 32.1045H30.0827C32.711 32.1045 34.8327 29.9828 34.8327 27.3545V22.6045H30.0827C29.2119 22.6045 28.4994 21.892 28.4994 21.0212V16.2712C28.4994 15.4003 29.2119 14.6878 30.0827 14.6878H32.1252L29.4177 9.95367C28.8477 8.97201 27.8027 8.35449 26.6627 8.35449H23.7494V19.4378C23.7494 21.1795 22.3244 22.6045 20.5827 22.6045H18.9994" stroke-width="2" stroke-linecap="round" stroke-linejoin="round"/>
<path d="M12.6667 35.2708C14.4156 35.2708 15.8333 33.8531 15.8333 32.1042C15.8333 30.3553 14.4156 28.9375 12.6667 28.9375C10.9178 28.9375 9.5 30.3553 9.5 32.1042C9.5 33.8531 10.9178 35.2708 12.6667 35.2708Z" stroke-width="2" stroke-linecap="round" stroke-linejoin="round"/>
<path d="M25.3327 35.2708C27.0816 35.2708 28.4993 33.8531 28.4993 32.1042C28.4993 30.3553 27.0816 28.9375 25.3327 28.9375C23.5838 28.9375 22.166 30.3553 22.166 32.1042C22.166 33.8531 23.5838 35.2708 25.3327 35.2708Z" stroke-width="2" stroke-linecap="round" stroke-linejoin="round"/>
<path d="M34.8333 19.4375V22.6042H30.0833C29.2125 22.6042 28.5 21.8917 28.5 21.0208V16.2708C28.5 15.4 29.2125 14.6875 30.0833 14.6875H32.1258L34.8333 19.4375Z" stroke-width="2" stroke-linecap="round" stroke-linejoin="round"/>
<path d="M3.16602 13.1045H12.666" stroke-width="2" stroke-linecap="round" stroke-linejoin="round"/>
<path d="M3.16602 17.8545H9.49935" stroke-width="2" stroke-linecap="round" stroke-linejoin="round"/>
<path d="M3.16602 22.6045H6.33268" stroke-width="2" stroke-linecap="round" stroke-linejoin="round"/>
</svg>
