<svg width="12" height="12" viewBox="0 0 12 12" fill="none" xmlns="http://www.w3.org/2000/svg">
<path d="M8.44352 0.166992H3.55518C1.43185 0.166992 0.166016 1.43283 0.166016 3.55616V8.43866C0.166016 10.5678 1.43185 11.8337 3.55518 11.8337H8.43768C10.561 11.8337 11.8268 10.5678 11.8268 8.44449V3.55616C11.8327 1.43283 10.5668 0.166992 8.44352 0.166992ZM5.72518 6.89283L3.55518 9.06283H4.83268C5.07185 9.06283 5.27018 9.26116 5.27018 9.50033C5.27018 9.73949 5.07185 9.93783 4.83268 9.93783H2.49935C2.44102 9.93783 2.38268 9.92616 2.33018 9.90283C2.22518 9.85616 2.13768 9.77449 2.09102 9.66366C2.07352 9.61116 2.06185 9.55866 2.06185 9.50033V7.16699C2.06185 6.92783 2.26018 6.72949 2.49935 6.72949C2.73852 6.72949 2.93685 6.92783 2.93685 7.16699V8.44449L5.10685 6.27449C5.27602 6.10533 5.55602 6.10533 5.72518 6.27449C5.89435 6.44366 5.89435 6.72366 5.72518 6.89283ZM9.93685 4.83366C9.93685 5.07283 9.73852 5.27116 9.49935 5.27116C9.26018 5.27116 9.06185 5.07283 9.06185 4.83366V3.55616L6.89185 5.72616C6.80435 5.81366 6.69352 5.85449 6.58268 5.85449C6.47185 5.85449 6.36102 5.81366 6.27352 5.72616C6.10435 5.55699 6.10435 5.27699 6.27352 5.10783L8.44352 2.93783H7.16602C6.92685 2.93783 6.72852 2.73949 6.72852 2.50033C6.72852 2.26116 6.92685 2.06283 7.16602 2.06283H9.49935C9.55768 2.06283 9.61018 2.07449 9.66852 2.09783C9.77352 2.14449 9.86102 2.22616 9.90768 2.33699C9.92518 2.38949 9.93685 2.44199 9.93685 2.50033V4.83366Z"/>
</svg>
