<svg width="33" height="28" viewBox="0 0 33 28" fill="none" xmlns="http://www.w3.org/2000/svg">
<path d="M25.7972 12.0129C25.7972 12.851 22.8133 13.5524 18.8133 13.7294L18.816 13.7308C18.15 13.767 17.4829 13.7818 16.816 13.775C15.7773 13.775 15.0427 13.7442 14.784 13.7308C10.7761 13.5537 7.78409 12.8524 7.78409 12.0129C7.78409 11.1734 10.7761 10.4707 14.784 10.2909V13.0321C15.0453 13.0522 15.796 13.0964 16.8333 13.0964C18.0773 13.0964 18.7 13.0428 18.8133 13.0334V10.2936C22.8133 10.472 25.7972 11.1747 25.7972 12.0129ZM32.7172 12.7451L16.9573 27.9339C16.9126 27.977 16.8532 28.001 16.7913 28.001C16.7295 28.001 16.67 27.977 16.6253 27.9339L0.86683 12.7451C0.829849 12.7101 0.804975 12.6642 0.795857 12.614C0.786738 12.5638 0.793855 12.512 0.816164 12.4661L6.65077 0.137792C6.67004 0.0963512 6.7008 0.0613939 6.73936 0.0371262C6.77791 0.0128585 6.82262 0.000314453 6.8681 0.0010035H26.7186C26.7635 0.00120514 26.8074 0.0143116 26.8452 0.0387813C26.883 0.063251 26.9131 0.0980664 26.9319 0.139133L32.7678 12.4661C32.7901 12.512 32.7972 12.5638 32.7881 12.614C32.779 12.6642 32.7541 12.7101 32.7172 12.7451ZM26.7466 12.2033C26.7466 11.1224 23.3439 10.2185 18.8173 10.008V7.55653H24.3986V3.81498H9.20274V7.55653H14.7827V10.0093C10.2467 10.2185 6.8361 11.1224 6.8361 12.2046C6.8361 13.2882 10.2467 14.1894 14.7827 14.4013V22.2626H18.816V14.3986C23.3413 14.1881 26.7466 13.2855 26.7466 12.2033Z" fill="white"/>
</svg>
