<svg width="14" height="15" viewBox="0 0 14 15" fill="none" xmlns="http://www.w3.org/2000/svg">
<path d="M11.299 3.35232L7.88065 1.82982C7.37898 1.60816 6.62065 1.60816 6.11898 1.82982L2.70065 3.35232C1.83732 3.73732 1.70898 4.26232 1.70898 4.54232C1.70898 4.82232 1.83732 5.34732 2.70065 5.73232L6.11898 7.25482C6.36982 7.36566 6.68482 7.42399 6.99982 7.42399C7.31482 7.42399 7.62982 7.36566 7.88065 7.25482L11.299 5.73232C12.1623 5.34732 12.2907 4.82232 12.2907 4.54232C12.2907 4.26232 12.1682 3.73732 11.299 3.35232Z"/>
<path d="M7.00018 10.4398C6.77852 10.4398 6.55685 10.3932 6.35268 10.3057L2.42102 8.55567C1.82018 8.28734 1.35352 7.56984 1.35352 6.91067C1.35352 6.6715 1.54602 6.479 1.78518 6.479C2.02435 6.479 2.21685 6.6715 2.21685 6.91067C2.21685 7.22567 2.47935 7.634 2.77102 7.76234L6.70268 9.51234C6.88935 9.594 7.10518 9.594 7.29185 9.51234L11.2235 7.76234C11.5152 7.634 11.7777 7.2315 11.7777 6.91067C11.7777 6.6715 11.9702 6.479 12.2093 6.479C12.4485 6.479 12.641 6.6715 12.641 6.91067C12.641 7.564 12.1743 8.28734 11.5735 8.55567L7.64185 10.3057C7.44352 10.3932 7.22185 10.4398 7.00018 10.4398Z"/>
<path d="M7.00018 13.3334C6.77852 13.3334 6.55685 13.2867 6.35268 13.1992L2.42102 11.4492C1.77352 11.1634 1.35352 10.5159 1.35352 9.80423C1.35352 9.56506 1.54602 9.37256 1.78518 9.37256C2.02435 9.37256 2.21685 9.56506 2.21685 9.80423C2.21685 10.1717 2.43268 10.5042 2.77102 10.6559L6.70268 12.4059C6.88935 12.4876 7.10518 12.4876 7.29185 12.4059L11.2235 10.6559C11.556 10.5101 11.7777 10.1717 11.7777 9.80423C11.7777 9.56506 11.9702 9.37256 12.2093 9.37256C12.4485 9.37256 12.641 9.56506 12.641 9.80423C12.641 10.5159 12.221 11.1576 11.5735 11.4492L7.64185 13.1992C7.44352 13.2867 7.22185 13.3334 7.00018 13.3334Z"/>
</svg>
