<svg width="38" height="38" viewBox="0 0 38 38" fill="none" xmlns="http://www.w3.org/2000/svg">
<path d="M34.8333 7.679V26.5048C34.8333 28.0407 33.5825 29.4498 32.0467 29.6398L31.5558 29.7032C28.9592 30.0515 25.3017 31.1282 22.3567 32.3632C21.3275 32.7907 20.1875 32.0148 20.1875 30.8907V8.8665C20.1875 8.28066 20.52 7.74233 21.0425 7.45733C23.94 5.88983 28.3258 4.4965 31.3025 4.24316H31.3975C33.2975 4.24316 34.8333 5.779 34.8333 7.679Z" fill="white"/>
<path d="M16.9575 7.45733C14.06 5.88983 9.67421 4.4965 6.69755 4.24316H6.58671C4.68671 4.24316 3.15088 5.779 3.15088 7.679V26.5048C3.15088 28.0407 4.40171 29.4498 5.93755 29.6398L6.42838 29.7032C9.02505 30.0515 12.6825 31.1282 15.6275 32.3632C16.6567 32.7907 17.7967 32.0148 17.7967 30.8907V8.8665C17.7967 8.26483 17.48 7.74233 16.9575 7.45733ZM7.91671 12.2548H11.4792C12.1284 12.2548 12.6667 12.7932 12.6667 13.4423C12.6667 14.1073 12.1284 14.6298 11.4792 14.6298H7.91671C7.26755 14.6298 6.72921 14.1073 6.72921 13.4423C6.72921 12.7932 7.26755 12.2548 7.91671 12.2548ZM12.6667 19.3798H7.91671C7.26755 19.3798 6.72921 18.8573 6.72921 18.1923C6.72921 17.5432 7.26755 17.0048 7.91671 17.0048H12.6667C13.3159 17.0048 13.8542 17.5432 13.8542 18.1923C13.8542 18.8573 13.3159 19.3798 12.6667 19.3798Z" fill="white"/>
</svg>
