<svg width="100" height="100" viewBox="0 0 100 100" fill="none" xmlns="http://www.w3.org/2000/svg">
<path d="M85.4167 42.4583H73.3751C63.5001 42.4583 55.4584 34.4166 55.4584 24.5416V12.4999C55.4584 10.2083 53.5834 8.33325 51.2917 8.33325H33.6251C20.7917 8.33325 10.4167 16.6666 10.4167 31.5416V68.4583C10.4167 83.3333 20.7917 91.6666 33.6251 91.6666H66.3751C79.2084 91.6666 89.5834 83.3333 89.5834 68.4583V46.6249C89.5834 44.3333 87.7084 42.4583 85.4167 42.4583ZM51.1667 65.7499L42.8334 74.0833C42.5417 74.3749 42.1667 74.6249 41.7917 74.7499C41.4167 74.9166 41.0417 74.9999 40.6251 74.9999C40.2084 74.9999 39.8334 74.9166 39.4584 74.7499C39.1251 74.6249 38.7917 74.3749 38.5417 74.1249C38.5001 74.0833 38.4584 74.0833 38.4584 74.0416L30.1251 65.7083C28.9167 64.4999 28.9167 62.4999 30.1251 61.2916C31.3334 60.0833 33.3334 60.0833 34.5417 61.2916L37.5001 64.3333V46.8749C37.5001 45.1666 38.9167 43.7499 40.6251 43.7499C42.3334 43.7499 43.7501 45.1666 43.7501 46.8749V64.3333L46.7501 61.3333C47.9584 60.1249 49.9584 60.1249 51.1667 61.3333C52.3751 62.5416 52.3751 64.5416 51.1667 65.7499Z"/>
<path d="M72.6251 36.7084C76.5834 36.7501 82.0834 36.75 86.7917 36.75C89.1667 36.75 90.4167 33.9584 88.7501 32.2917C82.7501 26.2501 72.0001 15.3751 65.8334 9.20839C64.1251 7.50005 61.1667 8.66672 61.1667 11.0417V25.5834C61.1667 31.6667 66.3334 36.7084 72.6251 36.7084Z"/>
</svg>
