<svg width="24" height="18" viewBox="0 0 24 18" fill="none" xmlns="http://www.w3.org/2000/svg">
<path fill-rule="evenodd" clip-rule="evenodd" d="M0 0H24V1.38517H0V0ZM0 2.77031H24V4.15549H0V2.77031ZM0 5.5371H24V6.92576H0V5.5371ZM0 8.30741H24V9.69259H0V8.30741ZM0 11.0777H24V12.4629H0V11.0777ZM0 13.8445H24V15.2297H0V13.8445ZM0 16.6148H24V18H0V16.6148Z" fill="#D1333C"/>
<path fill-rule="evenodd" clip-rule="evenodd" d="M0 1.38516H24V2.7703H0V1.38516ZM0 4.15544H24V5.53709H0V4.15544ZM0 6.92226H24V8.3074H0V6.92226ZM0 9.69258H24V11.0777H0V9.69258ZM0 12.4629H24V13.848H0V12.4629ZM0 15.2297H24V16.6149H0V15.2297Z" fill="white"/>
<path fill-rule="evenodd" clip-rule="evenodd" d="M0 0H13.6793V9.69259H0V0Z" fill="#192F5D"/>
<path fill-rule="evenodd" clip-rule="evenodd" d="M1.13914 0.414856L1.2657 0.797994H1.6665L1.34303 1.03357L1.4661 1.42027L1.13914 1.18121L0.815704 1.41674L0.938741 1.03357L0.611816 0.797994H1.01963L1.13914 0.414856ZM3.42079 0.414856L3.54383 0.797994H3.94812L3.62115 1.03357L3.74423 1.42027L3.42079 1.18121L3.09383 1.41674L3.21687 1.03357L2.89343 0.797994H3.29423L3.42079 0.414856ZM5.69892 0.414856L5.82548 0.798031H6.22275L5.89932 1.03361L6.02232 1.42031L5.69539 1.18124L5.37195 1.41678L5.49499 1.03361L5.16803 0.798031H5.57235L5.69892 0.414856ZM7.98057 0.414856L8.10357 0.798031H8.50789L8.18093 1.03361L8.30749 1.42031L7.98053 1.18124L7.6536 1.41678L7.78017 1.03361L7.4532 0.798031H7.854L7.98057 0.414856ZM10.2587 0.414856L10.3853 0.798031H10.786L10.4626 1.03361L10.5856 1.42031L10.2587 1.18124L9.93522 1.41678L10.0583 1.03361L9.73485 0.798031H10.1356L10.2587 0.414856ZM12.5403 0.414856L12.6633 0.798031H13.0677L12.7407 1.03361L12.8673 1.42031L12.5403 1.18124L12.2133 1.41678L12.3399 1.03361L12.013 0.798031H12.4173L12.5403 0.414856ZM2.28173 1.38509L2.40477 1.76834H2.80905L2.48209 2.00384L2.60164 2.38709L2.28522 2.15152L1.95829 2.38706L2.07428 2.00388L1.75789 1.76831H2.15869L2.28173 1.38509ZM4.55985 1.38509L4.68642 1.76834H5.08718L4.76022 2.00384L4.88682 2.38709L4.55982 2.15152L4.23289 2.38706L4.35945 2.00388L4.03249 1.76831H4.43678L4.55985 1.38509ZM6.8415 1.38509L6.9645 1.76834H7.36883L7.04187 2.00384L7.1649 2.38709L6.84147 2.15152L6.51454 2.38706L6.63758 2.00392L6.31414 1.76834H6.71494L6.8415 1.38509ZM9.11963 1.38509L9.24619 1.76834H9.64696L9.31999 2.00384L9.44656 2.38709L9.11959 2.15152L8.79615 2.38706L8.91923 2.00388L8.59227 1.76831H9.00008L9.11963 1.38509ZM11.4012 1.38509L11.5243 1.76834H11.9286L11.6016 2.00384L11.7247 2.38709L11.4012 2.15152L11.0743 2.38706L11.1974 2.00388L10.8739 1.76831H11.2747L11.4012 1.38509ZM1.13914 2.35199L1.2657 2.74222H1.6665L1.34303 2.97776L1.4661 3.36097L1.13914 3.12191L0.815704 3.36097L0.938741 2.97423L0.611816 2.73873H1.01963L1.13914 2.35199ZM3.42079 2.35199L3.54383 2.73862H3.94812L3.62115 2.97416L3.74423 3.35741L3.42079 3.11831L3.09383 3.35737L3.21687 2.97067L2.89343 2.73513H3.29423L3.42079 2.35199ZM5.69892 2.35199L5.82548 2.73869H6.22275L5.89932 2.97423L6.02232 3.35748L5.69539 3.11838L5.37195 3.35744L5.49499 2.97074L5.16803 2.73521H5.57235L5.69892 2.35199ZM7.98057 2.35199L8.10357 2.73869H8.50789L8.18093 2.97423L8.30749 3.35748L7.98053 3.11838L7.6536 3.35744L7.78017 2.97074L7.4532 2.73521H7.854L7.98057 2.35199ZM10.2587 2.35199L10.3853 2.73869H10.786L10.4626 2.97419L10.5856 3.35744L10.2587 3.11834L9.93522 3.35741L10.0583 2.97071L9.73485 2.73517H10.1356L10.2587 2.35199ZM12.5403 2.35199L12.6633 2.73869H13.0677L12.7407 2.97423L12.8673 3.35748L12.5403 3.11838L12.2133 3.35744L12.3399 2.97074L12.013 2.73521H12.4173L12.5403 2.35199ZM2.28173 3.32227L2.40477 3.70548H2.80905L2.48209 3.94098L2.60517 4.32772L2.28173 4.08866L1.95477 4.32419L2.0778 3.94102L1.75437 3.70548H2.1552L2.28173 3.32227ZM4.55985 3.32227L4.68642 3.70548H5.08718L4.76022 3.94098L4.88682 4.32772L4.55982 4.08866L4.23289 4.32419L4.35945 3.94102L4.03249 3.70548H4.43678L4.55985 3.32227ZM6.8415 3.32227L6.9645 3.70548H7.36883L7.04187 3.94098L7.1649 4.32772L6.84147 4.08866L6.51454 4.32419L6.63758 3.94102L6.31414 3.70548H6.71494L6.8415 3.32227ZM9.11963 3.32227L9.24619 3.70548H9.64696L9.32352 3.94098L9.44656 4.32772L9.11959 4.08866L8.79615 4.32419L8.91923 3.94102L8.59227 3.70548H9.00008L9.11963 3.32227ZM11.4012 3.32227L11.5243 3.70548H11.9286L11.6016 3.94098L11.7247 4.32772L11.4012 4.08866L11.0743 4.32419L11.1974 3.94102L10.8739 3.70548H11.2747L11.4012 3.32227ZM1.13914 4.29258L1.2657 4.67579H1.6665L1.34303 4.91129L1.4661 5.29803L1.13914 5.05897L0.815704 5.29451L0.938741 4.91133L0.611816 4.67579H1.01963L1.13914 4.29258ZM3.42079 4.29258L3.54383 4.67579H3.94812L3.62115 4.91129L3.74423 5.29454L3.42079 5.05897L3.09383 5.29451L3.21687 4.91133L2.89343 4.67579H3.29423L3.42079 4.29258ZM5.69892 4.29258L5.82548 4.67579H6.22275L5.89932 4.91129L6.02232 5.29803L5.69539 5.05897L5.37195 5.29451L5.49499 4.91133L5.16803 4.67579H5.57235L5.69892 4.29258ZM7.98057 4.29258L8.10357 4.67579H8.50789L8.18093 4.91129L8.30749 5.29803L7.98053 5.05897L7.6536 5.29451L7.78017 4.91133L7.4532 4.67579H7.854L7.98057 4.29258ZM10.2587 4.29258L10.3853 4.67579H10.786L10.4626 4.91129L10.5856 5.29803L10.2587 5.05897L9.93522 5.29451L10.0583 4.91133L9.73485 4.67579H10.1356L10.2587 4.29258ZM12.5403 4.29258L12.6633 4.67579H13.0677L12.7407 4.91129L12.8673 5.29803L12.5403 5.05897L12.2133 5.29451L12.3399 4.91133L12.013 4.67579H12.4173L12.5403 4.29258ZM2.28173 5.26289L2.40477 5.64611H2.80905L2.48209 5.88161L2.60517 6.26486L2.28173 6.02579L1.95477 6.26486L2.0778 5.87812L1.75437 5.64258H2.1552L2.28173 5.26289ZM4.55985 5.26289L4.68642 5.64611H5.08718L4.76022 5.88161L4.88682 6.26486L4.55982 6.02579L4.23289 6.26486L4.35945 5.87812L4.03249 5.64258H4.43678L4.55985 5.26289ZM6.8415 5.26289L6.9645 5.64611H7.36883L7.04187 5.88161L7.1649 6.26486L6.84147 6.02579L6.51454 6.26486L6.63758 5.87812L6.31414 5.64258H6.71494L6.8415 5.26289ZM9.11963 5.26289L9.24619 5.64611H9.64696L9.32352 5.88161L9.44656 6.26486L9.11959 6.02579L8.79615 6.26486L8.91923 5.87812L8.59227 5.64258H9.00008L9.11963 5.26289ZM11.4012 5.26289L11.5243 5.64611H11.9286L11.6016 5.88161L11.7247 6.26486L11.4012 6.02579L11.0743 6.26486L11.1974 5.87812L10.8739 5.64258H11.2747L11.4012 5.26289ZM1.13914 6.22968L1.2657 6.61642H1.6665L1.34303 6.85192L1.4661 7.23164L1.13914 6.99611L0.815704 7.23161L0.938741 6.84843L0.611816 6.61289H1.01963L1.13914 6.22968ZM3.42079 6.22968L3.54383 6.61642H3.94812L3.62115 6.85192L3.74775 7.23164L3.42075 6.99611L3.09383 7.23161L3.22039 6.84843L2.89343 6.61289H3.29423L3.42079 6.22968ZM5.69892 6.22968L5.82548 6.61642H6.22275L5.89932 6.85192L6.02232 7.23164L5.69539 6.99611L5.37195 7.23161L5.49499 6.84843L5.16803 6.61289H5.57235L5.69892 6.22968ZM7.98057 6.22968L8.10357 6.61642H8.50789L8.18093 6.85192L8.30749 7.23164L7.98053 6.99611L7.6536 7.23161L7.78017 6.84843L7.4532 6.61289H7.854L7.98057 6.22968ZM10.2587 6.22968L10.3853 6.61642H10.786L10.4626 6.85192L10.5856 7.23164L10.2587 6.99611L9.93522 7.23161L10.0583 6.84843L9.73485 6.61289H10.1356L10.2587 6.22968ZM12.5403 6.22968L12.6633 6.61642H13.0677L12.7407 6.85192L12.8673 7.23164L12.5403 6.99611L12.2133 7.23161L12.3399 6.84843L12.013 6.61289H12.4173L12.5403 6.22968ZM2.28173 7.19999L2.40477 7.58321H2.80905L2.48209 7.81874L2.60517 8.20548L2.28173 7.96642L1.95477 8.20192L2.0778 7.81874L1.75437 7.58321H2.1552L2.28173 7.19999ZM4.55985 7.19999L4.68642 7.58321H5.08718L4.76022 7.81874L4.88682 8.20548L4.55982 7.96642L4.23289 8.20192L4.35945 7.81874L4.03249 7.58321H4.43678L4.55985 7.19999ZM6.8415 7.19999L6.9645 7.58321H7.36883L7.04187 7.81874L7.1649 8.20548L6.84147 7.96642L6.51454 8.20192L6.63758 7.81874L6.31414 7.58321H6.71494L6.8415 7.19999ZM9.11963 7.19999L9.24619 7.58321H9.64696L9.32352 7.81874L9.44656 8.20548L9.11959 7.96642L8.79615 8.20192L8.91923 7.81874L8.59227 7.58321H9.00008L9.11963 7.19999ZM11.4012 7.19999L11.5243 7.58321H11.9286L11.6016 7.81874L11.7247 8.20548L11.4012 7.96642L11.0743 8.20192L11.1974 7.81874L10.8739 7.58321H11.2747L11.4012 7.19999ZM1.13914 8.17031L1.2657 8.55352H1.6665L1.34303 8.78906L1.4661 9.17227L1.13914 8.93673L0.815704 9.17223L0.938741 8.78553L0.611816 8.54999H1.01963L1.13914 8.17031ZM3.42079 8.17031L3.54383 8.55352H3.94812L3.62115 8.78906L3.74775 9.17227L3.42075 8.93673L3.09383 9.17223L3.22039 8.78553L2.89343 8.54999H3.29423L3.42079 8.17031ZM5.69892 8.17031L5.82548 8.55352H6.22275L5.90633 8.78906L6.02937 9.17227L5.7024 8.93673L5.37897 9.17223L5.50204 8.78553L5.17508 8.54999H5.57937L5.69892 8.17031ZM7.98057 8.17031L8.10357 8.55352H8.50789L8.18093 8.78906L8.30749 9.17227L7.98053 8.93673L7.6536 9.17223L7.78017 8.78553L7.4532 8.54999H7.854L7.98057 8.17031ZM10.2587 8.17031L10.3853 8.55352H10.786L10.4626 8.78906L10.5856 9.17227L10.2587 8.93673L9.93522 9.17223L10.0583 8.78553L9.73485 8.54999H10.1356L10.2587 8.17031ZM12.5403 8.17031L12.6633 8.55352H13.0677L12.7407 8.78906L12.8673 9.17227L12.5403 8.93673L12.2133 9.17223L12.3399 8.78553L12.013 8.54999H12.4173L12.5403 8.17031Z" fill="white"/>
</svg>
