<svg width="66" height="20" viewBox="0 0 66 20" fill="none" xmlns="http://www.w3.org/2000/svg">
<path d="M47.9738 0.817448C46.4377 0.268761 44.8158 -0.00790313 43.1826 0.000171784C37.9088 0.000171784 34.1818 2.63339 34.1591 6.40183C34.1158 9.1716 36.8012 10.7328 38.8307 11.6662C40.9159 12.6221 41.613 13.2172 41.6027 14.0651C41.5924 15.3715 39.9362 15.9544 38.412 15.9544C36.2938 15.9544 35.145 15.6691 33.3733 14.9353L32.7154 14.6276L31.9646 18.981C33.2537 19.5007 35.5637 19.9572 37.9479 20C43.5662 20 47.2292 17.3892 47.2704 13.364C47.3138 11.1567 45.8762 9.48139 42.8134 8.09956C40.9654 7.20891 39.8083 6.60156 39.8083 5.6885C39.8083 4.88141 40.7963 4.03356 42.8588 4.03356C44.2275 3.99968 45.5883 4.2489 46.8538 4.76524L47.3591 4.98739L48.0996 0.79503L47.9738 0.817448ZM61.6832 0.360915H57.5582C56.2691 0.360915 55.3121 0.701276 54.7429 1.9649L46.8146 19.7228H52.4226L53.5528 16.8145L60.3941 16.8246C60.5653 17.5033 61.0479 19.7208 61.0479 19.7208H66L61.6832 0.360915ZM26.565 0.201943H31.9048L28.5636 19.572H23.2238L26.565 0.191752V0.201943ZM12.9876 10.8693L13.5341 13.5657L18.7646 0.360915H24.4262L16.0029 19.6902H10.3661L5.74613 3.32227C5.71073 3.1863 5.64767 3.05889 5.56079 2.94781C5.47391 2.83673 5.36504 2.74431 5.24081 2.67619C3.58129 1.82326 1.82083 1.17767 0 0.754267L0.0639375 0.348687H8.679C9.84019 0.391487 10.7848 0.754267 11.1066 1.98528L12.9876 10.8795V10.8693ZM55.0749 12.8544L57.2137 7.43107C57.1807 7.48202 57.6531 6.31623 57.9212 5.58252L58.2863 7.24764L59.5238 12.8422H55.0749V12.8544Z" fill="white"/>
</svg>
