<svg width="39" height="39" viewBox="0 0 39 39" fill="none" xmlns="http://www.w3.org/2000/svg">
<path d="M33.8766 14.0229V24.8528C33.8766 26.6262 32.9266 28.2729 31.3908 29.1754L21.9858 34.6062C20.4499 35.4929 18.5499 35.4929 16.9983 34.6062L7.59326 29.1754C6.05742 28.2887 5.10742 26.642 5.10742 24.8528V14.0229C5.10742 12.2495 6.05742 10.6028 7.59326 9.70031L16.9983 4.26949C18.5341 3.38283 20.4341 3.38283 21.9858 4.26949L31.3908 9.70031C32.9266 10.6028 33.8766 12.2337 33.8766 14.0229Z" stroke-width="2" stroke-linecap="round" stroke-linejoin="round"/>
<path opacity="0.4" d="M19.4997 17.8539C21.5372 17.8539 23.1889 16.2022 23.1889 14.1647C23.1889 12.1272 21.5372 10.4756 19.4997 10.4756C17.4622 10.4756 15.8105 12.1272 15.8105 14.1647C15.8105 16.2022 17.4622 17.8539 19.4997 17.8539Z" stroke-width="2" stroke-linecap="round" stroke-linejoin="round"/>
<path opacity="0.4" d="M25.8327 26.8159C25.8327 23.9659 22.9985 21.6543 19.4993 21.6543C16.0002 21.6543 13.166 23.9659 13.166 26.8159" stroke-width="2" stroke-linecap="round" stroke-linejoin="round"/>
</svg>
