<svg width="28" height="18" viewBox="0 0 28 18" fill="none" xmlns="http://www.w3.org/2000/svg">
<path d="M27.4137 2.8242C27.2552 2.27917 26.9464 1.78573 26.5202 1.39634C26.0819 0.994965 25.5447 0.707855 24.9594 0.562105C22.7687 0.00557517 13.9918 0.00557529 13.9918 0.00557529C10.3329 -0.0345481 6.67482 0.141925 3.03831 0.533997C2.45295 0.690515 1.91679 0.984041 1.47752 1.38847C1.04591 1.78872 0.733288 2.28229 0.569977 2.82308C0.177671 4.86002 -0.0129375 6.92829 0.00071995 8.99999C-0.0132782 11.0698 0.176863 13.1374 0.569977 15.1769C0.729789 15.7155 1.04125 16.2068 1.47402 16.6037C1.9068 17.0005 2.44572 17.2872 3.03831 17.439C5.25818 17.9944 13.9918 17.9944 13.9918 17.9944C17.6555 18.0346 21.3182 17.8581 24.9594 17.466C25.5447 17.3202 26.0819 17.0331 26.5202 16.6318C26.9518 16.2349 27.2586 15.7413 27.4125 15.2039C27.8151 13.1677 28.0108 11.0986 27.997 9.02585C28.0272 6.94432 27.8318 4.86657 27.4137 2.8242ZM11.2015 12.8496V5.15151L18.5039 9.00112L11.2015 12.8496Z" fill="white"/>
</svg>
