<svg width="380" height="90" viewBox="0 0 380 90" fill="none" xmlns="http://www.w3.org/2000/svg">
<rect width="380" height="90" rx="12" fill="white"/>
<path d="M89.802 40L95.634 27.31H97.956L103.86 40H101.016L99.486 36.472L100.584 37.246H93.042L94.158 36.472L92.628 40H89.802ZM96.786 30.262L94.464 35.77L93.978 35.086H99.648L99.234 35.77L96.858 30.262H96.786ZM104.774 43.888V33.25C104.774 32.866 104.762 32.476 104.738 32.08C104.714 31.672 104.678 31.27 104.63 30.874H107.24L107.456 32.656H107.258C107.438 32.056 107.816 31.582 108.392 31.234C108.968 30.874 109.628 30.694 110.372 30.694C111.164 30.694 111.86 30.886 112.46 31.27C113.06 31.642 113.528 32.182 113.864 32.89C114.212 33.598 114.386 34.444 114.386 35.428C114.386 36.424 114.212 37.276 113.864 37.984C113.528 38.692 113.06 39.238 112.46 39.622C111.86 40.006 111.164 40.198 110.372 40.198C109.64 40.198 108.986 40.024 108.41 39.676C107.846 39.328 107.468 38.866 107.276 38.29H107.492V43.888H104.774ZM109.544 38.146C110.18 38.146 110.69 37.924 111.074 37.48C111.458 37.036 111.65 36.352 111.65 35.428C111.65 34.504 111.458 33.826 111.074 33.394C110.69 32.962 110.18 32.746 109.544 32.746C108.92 32.746 108.41 32.962 108.014 33.394C107.63 33.826 107.438 34.504 107.438 35.428C107.438 36.352 107.63 37.036 108.014 37.48C108.41 37.924 108.92 38.146 109.544 38.146ZM116.147 43.888V33.25C116.147 32.866 116.135 32.476 116.111 32.08C116.087 31.672 116.051 31.27 116.003 30.874H118.613L118.829 32.656H118.631C118.811 32.056 119.189 31.582 119.765 31.234C120.341 30.874 121.001 30.694 121.745 30.694C122.537 30.694 123.233 30.886 123.833 31.27C124.433 31.642 124.901 32.182 125.237 32.89C125.585 33.598 125.759 34.444 125.759 35.428C125.759 36.424 125.585 37.276 125.237 37.984C124.901 38.692 124.433 39.238 123.833 39.622C123.233 40.006 122.537 40.198 121.745 40.198C121.013 40.198 120.359 40.024 119.783 39.676C119.219 39.328 118.841 38.866 118.649 38.29H118.865V43.888H116.147ZM120.917 38.146C121.553 38.146 122.063 37.924 122.447 37.48C122.831 37.036 123.023 36.352 123.023 35.428C123.023 34.504 122.831 33.826 122.447 33.394C122.063 32.962 121.553 32.746 120.917 32.746C120.293 32.746 119.783 32.962 119.387 33.394C119.003 33.826 118.811 34.504 118.811 35.428C118.811 36.352 119.003 37.036 119.387 37.48C119.783 37.924 120.293 38.146 120.917 38.146ZM127.52 40V26.752H130.238V40H127.52ZM132.46 40V30.874H135.178V40H132.46ZM132.352 29.38V26.842H135.268V29.38H132.352ZM141.791 40.198C140.819 40.198 139.967 40.006 139.235 39.622C138.503 39.238 137.939 38.686 137.543 37.966C137.147 37.246 136.949 36.394 136.949 35.41C136.949 34.414 137.147 33.568 137.543 32.872C137.951 32.164 138.515 31.624 139.235 31.252C139.967 30.88 140.819 30.694 141.791 30.694C142.403 30.694 142.997 30.784 143.573 30.964C144.161 31.144 144.641 31.396 145.013 31.72L144.221 33.592C143.921 33.316 143.573 33.112 143.177 32.98C142.793 32.836 142.421 32.764 142.061 32.764C141.329 32.764 140.759 32.992 140.351 33.448C139.943 33.904 139.739 34.564 139.739 35.428C139.739 36.292 139.943 36.952 140.351 37.408C140.759 37.864 141.329 38.092 142.061 38.092C142.409 38.092 142.775 38.026 143.159 37.894C143.555 37.762 143.909 37.564 144.221 37.3L145.013 39.154C144.629 39.478 144.143 39.736 143.555 39.928C142.979 40.108 142.391 40.198 141.791 40.198ZM150.068 40.198C149.276 40.198 148.58 40.006 147.98 39.622C147.38 39.238 146.912 38.692 146.576 37.984C146.24 37.276 146.072 36.424 146.072 35.428C146.072 34.444 146.24 33.598 146.576 32.89C146.912 32.182 147.38 31.642 147.98 31.27C148.58 30.886 149.276 30.694 150.068 30.694C150.8 30.694 151.454 30.874 152.03 31.234C152.618 31.582 153.002 32.056 153.182 32.656H152.984L153.2 30.874H155.81C155.774 31.27 155.738 31.672 155.702 32.08C155.678 32.476 155.666 32.866 155.666 33.25V40H152.966L152.948 38.29H153.164C152.972 38.866 152.588 39.328 152.012 39.676C151.436 40.024 150.788 40.198 150.068 40.198ZM150.896 38.146C151.52 38.146 152.024 37.924 152.408 37.48C152.792 37.036 152.984 36.352 152.984 35.428C152.984 34.504 152.792 33.826 152.408 33.394C152.024 32.962 151.52 32.746 150.896 32.746C150.272 32.746 149.768 32.962 149.384 33.394C149 33.826 148.808 34.504 148.808 35.428C148.808 36.352 148.994 37.036 149.366 37.48C149.75 37.924 150.26 38.146 150.896 38.146ZM162.161 40.198C160.973 40.198 160.079 39.904 159.479 39.316C158.879 38.716 158.579 37.822 158.579 36.634V32.908H156.851V30.874H158.579V28.642L161.297 27.976V30.874H163.637V32.908H161.297V36.49C161.297 37.066 161.417 37.462 161.657 37.678C161.897 37.894 162.203 38.002 162.575 38.002C162.803 38.002 162.989 37.99 163.133 37.966C163.289 37.93 163.451 37.882 163.619 37.822V39.928C163.391 40.024 163.151 40.09 162.899 40.126C162.647 40.174 162.401 40.198 162.161 40.198ZM165.032 40V30.874H167.75V40H165.032ZM164.924 29.38V26.842H167.84V29.38H164.924ZM174.291 40.198C173.319 40.198 172.473 40.006 171.753 39.622C171.045 39.226 170.493 38.674 170.097 37.966C169.713 37.258 169.521 36.412 169.521 35.428C169.521 34.456 169.713 33.616 170.097 32.908C170.493 32.2 171.045 31.654 171.753 31.27C172.473 30.886 173.319 30.694 174.291 30.694C175.263 30.694 176.109 30.886 176.829 31.27C177.549 31.654 178.101 32.2 178.485 32.908C178.881 33.616 179.079 34.456 179.079 35.428C179.079 36.412 178.881 37.258 178.485 37.966C178.101 38.674 177.549 39.226 176.829 39.622C176.109 40.006 175.263 40.198 174.291 40.198ZM174.291 38.146C174.915 38.146 175.407 37.924 175.767 37.48C176.139 37.036 176.325 36.352 176.325 35.428C176.325 34.504 176.139 33.826 175.767 33.394C175.407 32.962 174.915 32.746 174.291 32.746C173.667 32.746 173.169 32.962 172.797 33.394C172.437 33.826 172.257 34.504 172.257 35.428C172.257 36.352 172.437 37.036 172.797 37.48C173.169 37.924 173.667 38.146 174.291 38.146ZM180.835 40V33.25C180.835 32.866 180.823 32.476 180.799 32.08C180.775 31.672 180.739 31.27 180.691 30.874H183.301L183.499 32.566H183.283C183.583 31.966 184.009 31.504 184.561 31.18C185.113 30.856 185.755 30.694 186.487 30.694C187.555 30.694 188.353 31.006 188.881 31.63C189.421 32.242 189.691 33.196 189.691 34.492V40H186.973V34.618C186.973 33.958 186.853 33.49 186.613 33.214C186.373 32.938 186.013 32.8 185.533 32.8C184.933 32.8 184.453 32.992 184.093 33.376C183.733 33.748 183.553 34.252 183.553 34.888V40H180.835ZM197.638 40V32.908H195.91V30.874H198.412L197.638 31.576V30.262C197.638 29.074 197.944 28.18 198.556 27.58C199.18 26.98 200.11 26.68 201.346 26.68C201.622 26.68 201.916 26.698 202.228 26.734C202.552 26.77 202.834 26.842 203.074 26.95V29.038C202.906 28.978 202.714 28.936 202.498 28.912C202.282 28.876 202.072 28.858 201.868 28.858C201.592 28.858 201.334 28.906 201.094 29.002C200.866 29.098 200.68 29.26 200.536 29.488C200.404 29.704 200.338 29.998 200.338 30.37V31.324L199.96 30.874H202.642V32.908H200.356V40H197.638ZM208.006 40.198C207.034 40.198 206.188 40.006 205.468 39.622C204.76 39.226 204.208 38.674 203.812 37.966C203.428 37.258 203.236 36.412 203.236 35.428C203.236 34.456 203.428 33.616 203.812 32.908C204.208 32.2 204.76 31.654 205.468 31.27C206.188 30.886 207.034 30.694 208.006 30.694C208.978 30.694 209.824 30.886 210.544 31.27C211.264 31.654 211.816 32.2 212.2 32.908C212.596 33.616 212.794 34.456 212.794 35.428C212.794 36.412 212.596 37.258 212.2 37.966C211.816 38.674 211.264 39.226 210.544 39.622C209.824 40.006 208.978 40.198 208.006 40.198ZM208.006 38.146C208.63 38.146 209.122 37.924 209.482 37.48C209.854 37.036 210.04 36.352 210.04 35.428C210.04 34.504 209.854 33.826 209.482 33.394C209.122 32.962 208.63 32.746 208.006 32.746C207.382 32.746 206.884 32.962 206.512 33.394C206.152 33.826 205.972 34.504 205.972 35.428C205.972 36.352 206.152 37.036 206.512 37.48C206.884 37.924 207.382 38.146 208.006 38.146ZM214.532 40V33.286C214.532 32.89 214.52 32.488 214.496 32.08C214.484 31.672 214.454 31.27 214.406 30.874H217.016L217.322 33.538H216.908C217.028 32.89 217.22 32.356 217.484 31.936C217.76 31.516 218.096 31.204 218.492 31C218.9 30.796 219.362 30.694 219.878 30.694C220.106 30.694 220.286 30.706 220.418 30.73C220.55 30.742 220.682 30.772 220.814 30.82L220.796 33.214C220.544 33.106 220.328 33.04 220.148 33.016C219.98 32.98 219.764 32.962 219.5 32.962C218.996 32.962 218.576 33.058 218.24 33.25C217.916 33.442 217.67 33.724 217.502 34.096C217.346 34.468 217.268 34.918 217.268 35.446V40H214.532ZM227.03 43.888V33.25C227.03 32.866 227.018 32.476 226.994 32.08C226.97 31.672 226.934 31.27 226.886 30.874H229.496L229.712 32.656H229.514C229.694 32.056 230.072 31.582 230.648 31.234C231.224 30.874 231.884 30.694 232.628 30.694C233.42 30.694 234.116 30.886 234.716 31.27C235.316 31.642 235.784 32.182 236.12 32.89C236.468 33.598 236.642 34.444 236.642 35.428C236.642 36.424 236.468 37.276 236.12 37.984C235.784 38.692 235.316 39.238 234.716 39.622C234.116 40.006 233.42 40.198 232.628 40.198C231.896 40.198 231.242 40.024 230.666 39.676C230.102 39.328 229.724 38.866 229.532 38.29H229.748V43.888H227.03ZM231.8 38.146C232.436 38.146 232.946 37.924 233.33 37.48C233.714 37.036 233.906 36.352 233.906 35.428C233.906 34.504 233.714 33.826 233.33 33.394C232.946 32.962 232.436 32.746 231.8 32.746C231.176 32.746 230.666 32.962 230.27 33.394C229.886 33.826 229.694 34.504 229.694 35.428C229.694 36.352 229.886 37.036 230.27 37.48C230.666 37.924 231.176 38.146 231.8 38.146ZM238.385 40V33.286C238.385 32.89 238.373 32.488 238.349 32.08C238.337 31.672 238.307 31.27 238.259 30.874H240.869L241.175 33.538H240.761C240.881 32.89 241.073 32.356 241.337 31.936C241.613 31.516 241.949 31.204 242.345 31C242.753 30.796 243.215 30.694 243.731 30.694C243.959 30.694 244.139 30.706 244.271 30.73C244.403 30.742 244.535 30.772 244.667 30.82L244.649 33.214C244.397 33.106 244.181 33.04 244.001 33.016C243.833 32.98 243.617 32.962 243.353 32.962C242.849 32.962 242.429 33.058 242.093 33.25C241.769 33.442 241.523 33.724 241.355 34.096C241.199 34.468 241.121 34.918 241.121 35.446V40H238.385ZM245.804 40V30.874H248.522V40H245.804ZM245.696 29.38V26.842H248.612V29.38H245.696ZM250.743 40V33.25C250.743 32.866 250.731 32.476 250.707 32.08C250.683 31.672 250.647 31.27 250.599 30.874H253.209L253.407 32.566H253.191C253.491 31.966 253.917 31.504 254.469 31.18C255.021 30.856 255.663 30.694 256.395 30.694C257.463 30.694 258.261 31.006 258.789 31.63C259.329 32.242 259.599 33.196 259.599 34.492V40H256.881V34.618C256.881 33.958 256.761 33.49 256.521 33.214C256.281 32.938 255.921 32.8 255.441 32.8C254.841 32.8 254.361 32.992 254.001 33.376C253.641 33.748 253.461 34.252 253.461 34.888V40H250.743ZM266.048 40.198C264.86 40.198 263.966 39.904 263.366 39.316C262.766 38.716 262.466 37.822 262.466 36.634V32.908H260.738V30.874H262.466V28.642L265.184 27.976V30.874H267.524V32.908H265.184V36.49C265.184 37.066 265.304 37.462 265.544 37.678C265.784 37.894 266.09 38.002 266.462 38.002C266.69 38.002 266.876 37.99 267.02 37.966C267.176 37.93 267.338 37.882 267.506 37.822V39.928C267.278 40.024 267.038 40.09 266.786 40.126C266.534 40.174 266.288 40.198 266.048 40.198ZM268.919 40V30.874H271.637V40H268.919ZM268.811 29.38V26.842H271.727V29.38H268.811ZM273.858 40V33.25C273.858 32.866 273.846 32.476 273.822 32.08C273.798 31.672 273.762 31.27 273.714 30.874H276.324L276.522 32.566H276.306C276.606 31.966 277.032 31.504 277.584 31.18C278.136 30.856 278.778 30.694 279.51 30.694C280.578 30.694 281.376 31.006 281.904 31.63C282.444 32.242 282.714 33.196 282.714 34.492V40H279.996V34.618C279.996 33.958 279.876 33.49 279.636 33.214C279.396 32.938 279.036 32.8 278.556 32.8C277.956 32.8 277.476 32.992 277.116 33.376C276.756 33.748 276.576 34.252 276.576 34.888V40H273.858ZM289.235 44.032C288.359 44.032 287.579 43.942 286.895 43.762C286.211 43.594 285.599 43.336 285.059 42.988L285.581 41.044C285.917 41.26 286.271 41.434 286.643 41.566C287.027 41.71 287.417 41.812 287.813 41.872C288.221 41.944 288.623 41.98 289.019 41.98C289.823 41.98 290.423 41.788 290.819 41.404C291.215 41.02 291.413 40.474 291.413 39.766V37.876H291.593C291.401 38.452 291.017 38.914 290.441 39.262C289.865 39.61 289.217 39.784 288.497 39.784C287.681 39.784 286.967 39.598 286.355 39.226C285.755 38.854 285.287 38.326 284.951 37.642C284.615 36.958 284.447 36.154 284.447 35.23C284.447 34.306 284.615 33.502 284.951 32.818C285.287 32.134 285.755 31.612 286.355 31.252C286.967 30.88 287.681 30.694 288.497 30.694C289.229 30.694 289.871 30.868 290.423 31.216C290.987 31.552 291.365 32.002 291.557 32.566L291.413 32.494L291.593 30.874H294.221C294.173 31.27 294.137 31.672 294.113 32.08C294.089 32.476 294.077 32.866 294.077 33.25V39.46C294.077 40.936 293.663 42.064 292.835 42.844C292.007 43.636 290.807 44.032 289.235 44.032ZM289.307 37.732C289.943 37.732 290.447 37.516 290.819 37.084C291.191 36.652 291.377 36.034 291.377 35.23C291.377 34.426 291.191 33.814 290.819 33.394C290.447 32.962 289.943 32.746 289.307 32.746C288.647 32.746 288.125 32.962 287.741 33.394C287.369 33.814 287.183 34.426 287.183 35.23C287.183 36.034 287.369 36.652 287.741 37.084C288.125 37.516 288.647 37.732 289.307 37.732ZM91.098 63V56.286C91.098 55.89 91.086 55.488 91.062 55.08C91.05 54.672 91.02 54.27 90.972 53.874H93.582L93.888 56.538H93.474C93.594 55.89 93.786 55.356 94.05 54.936C94.326 54.516 94.662 54.204 95.058 54C95.466 53.796 95.928 53.694 96.444 53.694C96.672 53.694 96.852 53.706 96.984 53.73C97.116 53.742 97.248 53.772 97.38 53.82L97.362 56.214C97.11 56.106 96.894 56.04 96.714 56.016C96.546 55.98 96.33 55.962 96.066 55.962C95.562 55.962 95.142 56.058 94.806 56.25C94.482 56.442 94.236 56.724 94.068 57.096C93.912 57.468 93.834 57.918 93.834 58.446V63H91.098ZM102.948 63.198C101.364 63.198 100.128 62.772 99.2402 61.92C98.3522 61.068 97.9082 59.91 97.9082 58.446C97.9082 57.498 98.0942 56.67 98.4662 55.962C98.8502 55.254 99.3782 54.702 100.05 54.306C100.734 53.898 101.532 53.694 102.444 53.694C103.344 53.694 104.094 53.886 104.694 54.27C105.306 54.654 105.762 55.194 106.062 55.89C106.374 56.574 106.53 57.372 106.53 58.284V58.914H100.14V57.564H104.55L104.244 57.816C104.244 57.06 104.088 56.49 103.776 56.106C103.476 55.71 103.038 55.512 102.462 55.512C101.826 55.512 101.334 55.746 100.986 56.214C100.65 56.682 100.482 57.354 100.482 58.23V58.518C100.482 59.406 100.698 60.066 101.13 60.498C101.574 60.93 102.21 61.146 103.038 61.146C103.53 61.146 103.992 61.086 104.424 60.966C104.868 60.834 105.288 60.63 105.684 60.354L106.44 62.154C105.984 62.49 105.456 62.748 104.856 62.928C104.268 63.108 103.632 63.198 102.948 63.198ZM112.647 63.198C111.675 63.198 110.823 63.006 110.091 62.622C109.359 62.238 108.795 61.686 108.399 60.966C108.003 60.246 107.805 59.394 107.805 58.41C107.805 57.414 108.003 56.568 108.399 55.872C108.807 55.164 109.371 54.624 110.091 54.252C110.823 53.88 111.675 53.694 112.647 53.694C113.259 53.694 113.853 53.784 114.429 53.964C115.017 54.144 115.497 54.396 115.869 54.72L115.077 56.592C114.777 56.316 114.429 56.112 114.033 55.98C113.649 55.836 113.277 55.764 112.917 55.764C112.185 55.764 111.615 55.992 111.207 56.448C110.799 56.904 110.595 57.564 110.595 58.428C110.595 59.292 110.799 59.952 111.207 60.408C111.615 60.864 112.185 61.092 112.917 61.092C113.265 61.092 113.631 61.026 114.015 60.894C114.411 60.762 114.765 60.564 115.077 60.3L115.869 62.154C115.485 62.478 114.999 62.736 114.411 62.928C113.835 63.108 113.247 63.198 112.647 63.198ZM121.827 63.198C120.243 63.198 119.007 62.772 118.119 61.92C117.231 61.068 116.787 59.91 116.787 58.446C116.787 57.498 116.973 56.67 117.345 55.962C117.729 55.254 118.257 54.702 118.929 54.306C119.613 53.898 120.411 53.694 121.323 53.694C122.223 53.694 122.973 53.886 123.573 54.27C124.185 54.654 124.641 55.194 124.941 55.89C125.253 56.574 125.409 57.372 125.409 58.284V58.914H119.019V57.564H123.429L123.123 57.816C123.123 57.06 122.967 56.49 122.655 56.106C122.355 55.71 121.917 55.512 121.341 55.512C120.705 55.512 120.213 55.746 119.865 56.214C119.529 56.682 119.361 57.354 119.361 58.23V58.518C119.361 59.406 119.577 60.066 120.009 60.498C120.453 60.93 121.089 61.146 121.917 61.146C122.409 61.146 122.871 61.086 123.303 60.966C123.747 60.834 124.167 60.63 124.563 60.354L125.319 62.154C124.863 62.49 124.335 62.748 123.735 62.928C123.147 63.108 122.511 63.198 121.827 63.198ZM127.134 63V53.874H129.852V63H127.134ZM127.026 52.38V49.842H129.942V52.38H127.026ZM134.719 63L130.777 53.874H133.639L136.249 60.498H135.655L138.355 53.874H141.037L137.059 63H134.719ZM146.366 63.198C144.782 63.198 143.546 62.772 142.658 61.92C141.77 61.068 141.326 59.91 141.326 58.446C141.326 57.498 141.512 56.67 141.884 55.962C142.268 55.254 142.796 54.702 143.468 54.306C144.152 53.898 144.95 53.694 145.862 53.694C146.762 53.694 147.512 53.886 148.112 54.27C148.724 54.654 149.18 55.194 149.48 55.89C149.792 56.574 149.948 57.372 149.948 58.284V58.914H143.558V57.564H147.968L147.662 57.816C147.662 57.06 147.506 56.49 147.194 56.106C146.894 55.71 146.456 55.512 145.88 55.512C145.244 55.512 144.752 55.746 144.404 56.214C144.068 56.682 143.9 57.354 143.9 58.23V58.518C143.9 59.406 144.116 60.066 144.548 60.498C144.992 60.93 145.628 61.146 146.456 61.146C146.948 61.146 147.41 61.086 147.842 60.966C148.286 60.834 148.706 60.63 149.102 60.354L149.858 62.154C149.402 62.49 148.874 62.748 148.274 62.928C147.686 63.108 147.05 63.198 146.366 63.198ZM155.255 63.198C154.463 63.198 153.761 63.006 153.149 62.622C152.549 62.238 152.075 61.692 151.727 60.984C151.391 60.276 151.223 59.424 151.223 58.428C151.223 57.444 151.391 56.598 151.727 55.89C152.063 55.182 152.537 54.642 153.149 54.27C153.761 53.886 154.463 53.694 155.255 53.694C155.975 53.694 156.617 53.868 157.181 54.216C157.757 54.552 158.141 55.008 158.333 55.584H158.099V49.752H160.817V63H158.135V61.218H158.369C158.177 61.818 157.793 62.298 157.217 62.658C156.641 63.018 155.987 63.198 155.255 63.198ZM156.065 61.146C156.689 61.146 157.193 60.924 157.577 60.48C157.961 60.036 158.153 59.352 158.153 58.428C158.153 57.504 157.961 56.826 157.577 56.394C157.193 55.962 156.689 55.746 156.065 55.746C155.441 55.746 154.931 55.962 154.535 56.394C154.151 56.826 153.959 57.504 153.959 58.428C153.959 59.352 154.151 60.036 154.535 60.48C154.931 60.924 155.441 61.146 156.065 61.146Z" fill="#12A801"/>
<circle cx="45" cy="45" r="25" fill="#23C301"/>
<path d="M44.9993 58.3334C52.3327 58.3334 58.3327 52.3334 58.3327 45.0001C58.3327 37.6667 52.3327 31.6667 44.9993 31.6667C37.666 31.6667 31.666 37.6667 31.666 45.0001C31.666 52.3334 37.666 58.3334 44.9993 58.3334Z" fill="white"/>
<path d="M39.334 44.9999L43.1073 48.7732L50.6673 41.2266" stroke="#23C301" stroke-width="2" stroke-linecap="round" stroke-linejoin="round"/>
</svg>
