<svg width="380" height="90" viewBox="0 0 380 90" fill="none" xmlns="http://www.w3.org/2000/svg">
<rect width="380" height="90" rx="12" fill="white"/>
<path d="M94.86 40L90.36 27.31H93.258L96.48 37.102H95.706L99.216 27.31H101.268L104.49 37.102H103.77L107.19 27.31H109.908L105.372 40H103.086L99.972 30.982H100.386L97.164 40H94.86ZM114.813 40.198C113.229 40.198 111.993 39.772 111.105 38.92C110.217 38.068 109.773 36.91 109.773 35.446C109.773 34.498 109.959 33.67 110.331 32.962C110.715 32.254 111.243 31.702 111.915 31.306C112.599 30.898 113.397 30.694 114.309 30.694C115.209 30.694 115.959 30.886 116.559 31.27C117.171 31.654 117.627 32.194 117.927 32.89C118.239 33.574 118.395 34.372 118.395 35.284V35.914H112.005V34.564H116.415L116.109 34.816C116.109 34.06 115.953 33.49 115.641 33.106C115.341 32.71 114.903 32.512 114.327 32.512C113.691 32.512 113.199 32.746 112.851 33.214C112.515 33.682 112.347 34.354 112.347 35.23V35.518C112.347 36.406 112.563 37.066 112.995 37.498C113.439 37.93 114.075 38.146 114.903 38.146C115.395 38.146 115.857 38.086 116.289 37.966C116.733 37.834 117.153 37.63 117.549 37.354L118.305 39.154C117.849 39.49 117.321 39.748 116.721 39.928C116.133 40.108 115.497 40.198 114.813 40.198ZM125.884 40V32.908H124.156V30.874H126.658L125.884 31.576V30.262C125.884 29.074 126.19 28.18 126.802 27.58C127.426 26.98 128.356 26.68 129.592 26.68C129.868 26.68 130.162 26.698 130.474 26.734C130.798 26.77 131.08 26.842 131.32 26.95V29.038C131.152 28.978 130.96 28.936 130.744 28.912C130.528 28.876 130.318 28.858 130.114 28.858C129.838 28.858 129.58 28.906 129.34 29.002C129.112 29.098 128.926 29.26 128.782 29.488C128.65 29.704 128.584 29.998 128.584 30.37V31.324L128.206 30.874H130.888V32.908H128.602V40H125.884ZM135.455 40.198C134.315 40.198 133.469 39.886 132.917 39.262C132.365 38.626 132.089 37.666 132.089 36.382V30.874H134.807V36.382C134.807 36.958 134.921 37.384 135.149 37.66C135.389 37.936 135.755 38.074 136.247 38.074C136.787 38.074 137.231 37.888 137.579 37.516C137.939 37.132 138.119 36.622 138.119 35.986V30.874H140.837V40H138.191V38.254H138.443C138.167 38.866 137.771 39.346 137.255 39.694C136.751 40.03 136.151 40.198 135.455 40.198ZM143.077 40V26.752H145.795V40H143.077ZM148.7 40V32.908H146.972V30.874H149.474L148.7 31.576V30.262C148.7 29.074 149 28.18 149.6 27.58C150.212 26.98 151.106 26.68 152.282 26.68C152.57 26.68 152.87 26.698 153.182 26.734C153.494 26.77 153.77 26.842 154.01 26.95V29.038C153.854 28.978 153.668 28.936 153.452 28.912C153.236 28.876 153.026 28.858 152.822 28.858C152.402 28.858 152.06 28.972 151.796 29.2C151.532 29.428 151.4 29.818 151.4 30.37V31.324L151.022 30.874H157.646V40H154.928V32.908H151.418V40H148.7ZM154.82 29.38V26.842H157.736V29.38H154.82ZM159.864 40V26.752H162.582V40H159.864ZM164.804 40V26.752H167.522V40H164.804ZM179.143 40.198C178.171 40.198 177.325 40.006 176.605 39.622C175.897 39.226 175.345 38.674 174.949 37.966C174.565 37.258 174.373 36.412 174.373 35.428C174.373 34.456 174.565 33.616 174.949 32.908C175.345 32.2 175.897 31.654 176.605 31.27C177.325 30.886 178.171 30.694 179.143 30.694C180.115 30.694 180.961 30.886 181.681 31.27C182.401 31.654 182.953 32.2 183.337 32.908C183.733 33.616 183.931 34.456 183.931 35.428C183.931 36.412 183.733 37.258 183.337 37.966C182.953 38.674 182.401 39.226 181.681 39.622C180.961 40.006 180.115 40.198 179.143 40.198ZM179.143 38.146C179.767 38.146 180.259 37.924 180.619 37.48C180.991 37.036 181.177 36.352 181.177 35.428C181.177 34.504 180.991 33.826 180.619 33.394C180.259 32.962 179.767 32.746 179.143 32.746C178.519 32.746 178.021 32.962 177.649 33.394C177.289 33.826 177.109 34.504 177.109 35.428C177.109 36.352 177.289 37.036 177.649 37.48C178.021 37.924 178.519 38.146 179.143 38.146ZM185.668 40V33.286C185.668 32.89 185.656 32.488 185.632 32.08C185.62 31.672 185.59 31.27 185.542 30.874H188.152L188.458 33.538H188.044C188.164 32.89 188.356 32.356 188.62 31.936C188.896 31.516 189.232 31.204 189.628 31C190.036 30.796 190.498 30.694 191.014 30.694C191.242 30.694 191.422 30.706 191.554 30.73C191.686 30.742 191.818 30.772 191.95 30.82L191.932 33.214C191.68 33.106 191.464 33.04 191.284 33.016C191.116 32.98 190.9 32.962 190.636 32.962C190.132 32.962 189.712 33.058 189.376 33.25C189.052 33.442 188.806 33.724 188.638 34.096C188.482 34.468 188.404 34.918 188.404 35.446V40H185.668ZM196.511 40.198C195.719 40.198 195.017 40.006 194.405 39.622C193.805 39.238 193.331 38.692 192.983 37.984C192.647 37.276 192.479 36.424 192.479 35.428C192.479 34.444 192.647 33.598 192.983 32.89C193.319 32.182 193.793 31.642 194.405 31.27C195.017 30.886 195.719 30.694 196.511 30.694C197.231 30.694 197.873 30.868 198.437 31.216C199.013 31.552 199.397 32.008 199.589 32.584H199.355V26.752H202.073V40H199.391V38.218H199.625C199.433 38.818 199.049 39.298 198.473 39.658C197.897 40.018 197.243 40.198 196.511 40.198ZM197.321 38.146C197.945 38.146 198.449 37.924 198.833 37.48C199.217 37.036 199.409 36.352 199.409 35.428C199.409 34.504 199.217 33.826 198.833 33.394C198.449 32.962 197.945 32.746 197.321 32.746C196.697 32.746 196.187 32.962 195.791 33.394C195.407 33.826 195.215 34.504 195.215 35.428C195.215 36.352 195.407 37.036 195.791 37.48C196.187 37.924 196.697 38.146 197.321 38.146ZM208.892 40.198C207.308 40.198 206.072 39.772 205.184 38.92C204.296 38.068 203.852 36.91 203.852 35.446C203.852 34.498 204.038 33.67 204.41 32.962C204.794 32.254 205.322 31.702 205.994 31.306C206.678 30.898 207.476 30.694 208.388 30.694C209.288 30.694 210.038 30.886 210.638 31.27C211.25 31.654 211.706 32.194 212.006 32.89C212.318 33.574 212.474 34.372 212.474 35.284V35.914H206.084V34.564H210.494L210.188 34.816C210.188 34.06 210.032 33.49 209.72 33.106C209.42 32.71 208.982 32.512 208.406 32.512C207.77 32.512 207.278 32.746 206.93 33.214C206.594 33.682 206.426 34.354 206.426 35.23V35.518C206.426 36.406 206.642 37.066 207.074 37.498C207.518 37.93 208.154 38.146 208.982 38.146C209.474 38.146 209.936 38.086 210.368 37.966C210.812 37.834 211.232 37.63 211.628 37.354L212.384 39.154C211.928 39.49 211.4 39.748 210.8 39.928C210.212 40.108 209.576 40.198 208.892 40.198ZM214.18 40V33.286C214.18 32.89 214.168 32.488 214.144 32.08C214.132 31.672 214.102 31.27 214.054 30.874H216.664L216.97 33.538H216.556C216.676 32.89 216.868 32.356 217.132 31.936C217.408 31.516 217.744 31.204 218.14 31C218.548 30.796 219.01 30.694 219.526 30.694C219.754 30.694 219.934 30.706 220.066 30.73C220.198 30.742 220.33 30.772 220.462 30.82L220.444 33.214C220.192 33.106 219.976 33.04 219.796 33.016C219.628 32.98 219.412 32.962 219.148 32.962C218.644 32.962 218.224 33.058 217.888 33.25C217.564 33.442 217.318 33.724 217.15 34.096C216.994 34.468 216.916 34.918 216.916 35.446V40H214.18ZM224.877 40.198C224.061 40.198 223.317 40.108 222.645 39.928C221.973 39.748 221.403 39.496 220.935 39.172L221.637 37.372C222.105 37.66 222.621 37.888 223.185 38.056C223.761 38.224 224.331 38.308 224.895 38.308C225.423 38.308 225.813 38.224 226.065 38.056C226.317 37.888 226.443 37.66 226.443 37.372C226.443 37.132 226.359 36.946 226.191 36.814C226.035 36.682 225.789 36.586 225.453 36.526L223.599 36.184C222.819 36.028 222.225 35.74 221.817 35.32C221.409 34.9 221.205 34.354 221.205 33.682C221.205 33.094 221.361 32.578 221.673 32.134C221.997 31.678 222.459 31.324 223.059 31.072C223.659 30.82 224.361 30.694 225.165 30.694C225.849 30.694 226.497 30.778 227.109 30.946C227.721 31.114 228.243 31.372 228.675 31.72L227.937 33.466C227.565 33.19 227.133 32.968 226.641 32.8C226.161 32.632 225.699 32.548 225.255 32.548C224.679 32.548 224.265 32.644 224.013 32.836C223.761 33.016 223.635 33.25 223.635 33.538C223.635 33.754 223.707 33.934 223.851 34.078C224.007 34.222 224.241 34.33 224.553 34.402L226.425 34.744C227.229 34.888 227.841 35.158 228.261 35.554C228.681 35.95 228.891 36.496 228.891 37.192C228.891 37.828 228.723 38.368 228.387 38.812C228.051 39.256 227.577 39.598 226.965 39.838C226.365 40.078 225.669 40.198 224.877 40.198ZM239.207 40.198C238.415 40.198 237.719 40.006 237.119 39.622C236.519 39.238 236.051 38.692 235.715 37.984C235.379 37.276 235.211 36.424 235.211 35.428C235.211 34.444 235.379 33.598 235.715 32.89C236.051 32.182 236.519 31.642 237.119 31.27C237.719 30.886 238.415 30.694 239.207 30.694C239.939 30.694 240.593 30.874 241.169 31.234C241.757 31.582 242.141 32.056 242.321 32.656H242.123L242.339 30.874H244.949C244.913 31.27 244.877 31.672 244.841 32.08C244.817 32.476 244.805 32.866 244.805 33.25V40H242.105L242.087 38.29H242.303C242.111 38.866 241.727 39.328 241.151 39.676C240.575 40.024 239.927 40.198 239.207 40.198ZM240.035 38.146C240.659 38.146 241.163 37.924 241.547 37.48C241.931 37.036 242.123 36.352 242.123 35.428C242.123 34.504 241.931 33.826 241.547 33.394C241.163 32.962 240.659 32.746 240.035 32.746C239.411 32.746 238.907 32.962 238.523 33.394C238.139 33.826 237.947 34.504 237.947 35.428C237.947 36.352 238.133 37.036 238.505 37.48C238.889 37.924 239.399 38.146 240.035 38.146ZM250.4 40.198C249.584 40.198 248.84 40.108 248.168 39.928C247.496 39.748 246.926 39.496 246.458 39.172L247.16 37.372C247.628 37.66 248.144 37.888 248.708 38.056C249.284 38.224 249.854 38.308 250.418 38.308C250.946 38.308 251.336 38.224 251.588 38.056C251.84 37.888 251.966 37.66 251.966 37.372C251.966 37.132 251.882 36.946 251.714 36.814C251.558 36.682 251.312 36.586 250.976 36.526L249.122 36.184C248.342 36.028 247.748 35.74 247.34 35.32C246.932 34.9 246.728 34.354 246.728 33.682C246.728 33.094 246.884 32.578 247.196 32.134C247.52 31.678 247.982 31.324 248.582 31.072C249.182 30.82 249.884 30.694 250.688 30.694C251.372 30.694 252.02 30.778 252.632 30.946C253.244 31.114 253.766 31.372 254.198 31.72L253.46 33.466C253.088 33.19 252.656 32.968 252.164 32.8C251.684 32.632 251.222 32.548 250.778 32.548C250.202 32.548 249.788 32.644 249.536 32.836C249.284 33.016 249.158 33.25 249.158 33.538C249.158 33.754 249.23 33.934 249.374 34.078C249.53 34.222 249.764 34.33 250.076 34.402L251.948 34.744C252.752 34.888 253.364 35.158 253.784 35.554C254.204 35.95 254.414 36.496 254.414 37.192C254.414 37.828 254.246 38.368 253.91 38.812C253.574 39.256 253.1 39.598 252.488 39.838C251.888 40.078 251.192 40.198 250.4 40.198ZM264.55 40.198C263.734 40.198 262.99 40.108 262.318 39.928C261.646 39.748 261.076 39.496 260.608 39.172L261.31 37.372C261.778 37.66 262.294 37.888 262.858 38.056C263.434 38.224 264.004 38.308 264.568 38.308C265.096 38.308 265.486 38.224 265.738 38.056C265.99 37.888 266.116 37.66 266.116 37.372C266.116 37.132 266.032 36.946 265.864 36.814C265.708 36.682 265.462 36.586 265.126 36.526L263.272 36.184C262.492 36.028 261.898 35.74 261.49 35.32C261.082 34.9 260.878 34.354 260.878 33.682C260.878 33.094 261.034 32.578 261.346 32.134C261.67 31.678 262.132 31.324 262.732 31.072C263.332 30.82 264.034 30.694 264.838 30.694C265.522 30.694 266.17 30.778 266.782 30.946C267.394 31.114 267.916 31.372 268.348 31.72L267.61 33.466C267.238 33.19 266.806 32.968 266.314 32.8C265.834 32.632 265.372 32.548 264.928 32.548C264.352 32.548 263.938 32.644 263.686 32.836C263.434 33.016 263.308 33.25 263.308 33.538C263.308 33.754 263.38 33.934 263.524 34.078C263.68 34.222 263.914 34.33 264.226 34.402L266.098 34.744C266.902 34.888 267.514 35.158 267.934 35.554C268.354 35.95 268.564 36.496 268.564 37.192C268.564 37.828 268.396 38.368 268.06 38.812C267.724 39.256 267.25 39.598 266.638 39.838C266.038 40.078 265.342 40.198 264.55 40.198ZM274.575 40.198C273.603 40.198 272.757 40.006 272.037 39.622C271.329 39.226 270.777 38.674 270.381 37.966C269.997 37.258 269.805 36.412 269.805 35.428C269.805 34.456 269.997 33.616 270.381 32.908C270.777 32.2 271.329 31.654 272.037 31.27C272.757 30.886 273.603 30.694 274.575 30.694C275.547 30.694 276.393 30.886 277.113 31.27C277.833 31.654 278.385 32.2 278.769 32.908C279.165 33.616 279.363 34.456 279.363 35.428C279.363 36.412 279.165 37.258 278.769 37.966C278.385 38.674 277.833 39.226 277.113 39.622C276.393 40.006 275.547 40.198 274.575 40.198ZM274.575 38.146C275.199 38.146 275.691 37.924 276.051 37.48C276.423 37.036 276.609 36.352 276.609 35.428C276.609 34.504 276.423 33.826 276.051 33.394C275.691 32.962 275.199 32.746 274.575 32.746C273.951 32.746 273.453 32.962 273.081 33.394C272.721 33.826 272.541 34.504 272.541 35.428C272.541 36.352 272.721 37.036 273.081 37.48C273.453 37.924 273.951 38.146 274.575 38.146ZM285.438 40.198C284.466 40.198 283.62 40.006 282.9 39.622C282.192 39.226 281.64 38.674 281.244 37.966C280.86 37.258 280.668 36.412 280.668 35.428C280.668 34.456 280.86 33.616 281.244 32.908C281.64 32.2 282.192 31.654 282.9 31.27C283.62 30.886 284.466 30.694 285.438 30.694C286.41 30.694 287.256 30.886 287.976 31.27C288.696 31.654 289.248 32.2 289.632 32.908C290.028 33.616 290.226 34.456 290.226 35.428C290.226 36.412 290.028 37.258 289.632 37.966C289.248 38.674 288.696 39.226 287.976 39.622C287.256 40.006 286.41 40.198 285.438 40.198ZM285.438 38.146C286.062 38.146 286.554 37.924 286.914 37.48C287.286 37.036 287.472 36.352 287.472 35.428C287.472 34.504 287.286 33.826 286.914 33.394C286.554 32.962 286.062 32.746 285.438 32.746C284.814 32.746 284.316 32.962 283.944 33.394C283.584 33.826 283.404 34.504 283.404 35.428C283.404 36.352 283.584 37.036 283.944 37.48C284.316 37.924 284.814 38.146 285.438 38.146ZM291.981 40V33.25C291.981 32.866 291.969 32.476 291.945 32.08C291.921 31.672 291.885 31.27 291.837 30.874H294.447L294.645 32.566H294.429C294.729 31.966 295.155 31.504 295.707 31.18C296.259 30.856 296.901 30.694 297.633 30.694C298.701 30.694 299.499 31.006 300.027 31.63C300.567 32.242 300.837 33.196 300.837 34.492V40H298.119V34.618C298.119 33.958 297.999 33.49 297.759 33.214C297.519 32.938 297.159 32.8 296.679 32.8C296.079 32.8 295.599 32.992 295.239 33.376C294.879 33.748 294.699 34.252 294.699 34.888V40H291.981ZM311.646 40.198C310.854 40.198 310.158 40.006 309.558 39.622C308.958 39.238 308.49 38.692 308.154 37.984C307.818 37.276 307.65 36.424 307.65 35.428C307.65 34.444 307.818 33.598 308.154 32.89C308.49 32.182 308.958 31.642 309.558 31.27C310.158 30.886 310.854 30.694 311.646 30.694C312.378 30.694 313.032 30.874 313.608 31.234C314.196 31.582 314.58 32.056 314.76 32.656H314.562L314.778 30.874H317.388C317.352 31.27 317.316 31.672 317.28 32.08C317.256 32.476 317.244 32.866 317.244 33.25V40H314.544L314.526 38.29H314.742C314.55 38.866 314.166 39.328 313.59 39.676C313.014 40.024 312.366 40.198 311.646 40.198ZM312.474 38.146C313.098 38.146 313.602 37.924 313.986 37.48C314.37 37.036 314.562 36.352 314.562 35.428C314.562 34.504 314.37 33.826 313.986 33.394C313.602 32.962 313.098 32.746 312.474 32.746C311.85 32.746 311.346 32.962 310.962 33.394C310.578 33.826 310.386 34.504 310.386 35.428C310.386 36.352 310.572 37.036 310.944 37.48C311.328 37.924 311.838 38.146 312.474 38.146ZM322.839 40.198C322.023 40.198 321.279 40.108 320.607 39.928C319.935 39.748 319.365 39.496 318.897 39.172L319.599 37.372C320.067 37.66 320.583 37.888 321.147 38.056C321.723 38.224 322.293 38.308 322.857 38.308C323.385 38.308 323.775 38.224 324.027 38.056C324.279 37.888 324.405 37.66 324.405 37.372C324.405 37.132 324.321 36.946 324.153 36.814C323.997 36.682 323.751 36.586 323.415 36.526L321.561 36.184C320.781 36.028 320.187 35.74 319.779 35.32C319.371 34.9 319.167 34.354 319.167 33.682C319.167 33.094 319.323 32.578 319.635 32.134C319.959 31.678 320.421 31.324 321.021 31.072C321.621 30.82 322.323 30.694 323.127 30.694C323.811 30.694 324.459 30.778 325.071 30.946C325.683 31.114 326.205 31.372 326.637 31.72L325.899 33.466C325.527 33.19 325.095 32.968 324.603 32.8C324.123 32.632 323.661 32.548 323.217 32.548C322.641 32.548 322.227 32.644 321.975 32.836C321.723 33.016 321.597 33.25 321.597 33.538C321.597 33.754 321.669 33.934 321.813 34.078C321.969 34.222 322.203 34.33 322.515 34.402L324.387 34.744C325.191 34.888 325.803 35.158 326.223 35.554C326.643 35.95 326.853 36.496 326.853 37.192C326.853 37.828 326.685 38.368 326.349 38.812C326.013 39.256 325.539 39.598 324.927 39.838C324.327 40.078 323.631 40.198 322.839 40.198ZM91.116 66.888V56.25C91.116 55.866 91.104 55.476 91.08 55.08C91.056 54.672 91.02 54.27 90.972 53.874H93.582L93.798 55.656H93.6C93.78 55.056 94.158 54.582 94.734 54.234C95.31 53.874 95.97 53.694 96.714 53.694C97.506 53.694 98.202 53.886 98.802 54.27C99.402 54.642 99.87 55.182 100.206 55.89C100.554 56.598 100.728 57.444 100.728 58.428C100.728 59.424 100.554 60.276 100.206 60.984C99.87 61.692 99.402 62.238 98.802 62.622C98.202 63.006 97.506 63.198 96.714 63.198C95.982 63.198 95.328 63.024 94.752 62.676C94.188 62.328 93.81 61.866 93.618 61.29H93.834V66.888H91.116ZM95.886 61.146C96.522 61.146 97.032 60.924 97.416 60.48C97.8 60.036 97.992 59.352 97.992 58.428C97.992 57.504 97.8 56.826 97.416 56.394C97.032 55.962 96.522 55.746 95.886 55.746C95.262 55.746 94.752 55.962 94.356 56.394C93.972 56.826 93.78 57.504 93.78 58.428C93.78 59.352 93.972 60.036 94.356 60.48C94.752 60.924 95.262 61.146 95.886 61.146ZM106.809 63.198C105.837 63.198 104.991 63.006 104.271 62.622C103.563 62.226 103.011 61.674 102.615 60.966C102.231 60.258 102.039 59.412 102.039 58.428C102.039 57.456 102.231 56.616 102.615 55.908C103.011 55.2 103.563 54.654 104.271 54.27C104.991 53.886 105.837 53.694 106.809 53.694C107.781 53.694 108.627 53.886 109.347 54.27C110.067 54.654 110.619 55.2 111.003 55.908C111.399 56.616 111.597 57.456 111.597 58.428C111.597 59.412 111.399 60.258 111.003 60.966C110.619 61.674 110.067 62.226 109.347 62.622C108.627 63.006 107.781 63.198 106.809 63.198ZM106.809 61.146C107.433 61.146 107.925 60.924 108.285 60.48C108.657 60.036 108.843 59.352 108.843 58.428C108.843 57.504 108.657 56.826 108.285 56.394C107.925 55.962 107.433 55.746 106.809 55.746C106.185 55.746 105.687 55.962 105.315 56.394C104.955 56.826 104.775 57.504 104.775 58.428C104.775 59.352 104.955 60.036 105.315 60.48C105.687 60.924 106.185 61.146 106.809 61.146ZM116.718 63.198C115.902 63.198 115.158 63.108 114.486 62.928C113.814 62.748 113.244 62.496 112.776 62.172L113.478 60.372C113.946 60.66 114.462 60.888 115.026 61.056C115.602 61.224 116.172 61.308 116.736 61.308C117.264 61.308 117.654 61.224 117.906 61.056C118.158 60.888 118.284 60.66 118.284 60.372C118.284 60.132 118.2 59.946 118.032 59.814C117.876 59.682 117.63 59.586 117.294 59.526L115.44 59.184C114.66 59.028 114.066 58.74 113.658 58.32C113.25 57.9 113.046 57.354 113.046 56.682C113.046 56.094 113.202 55.578 113.514 55.134C113.838 54.678 114.3 54.324 114.9 54.072C115.5 53.82 116.202 53.694 117.006 53.694C117.69 53.694 118.338 53.778 118.95 53.946C119.562 54.114 120.084 54.372 120.516 54.72L119.778 56.466C119.406 56.19 118.974 55.968 118.482 55.8C118.002 55.632 117.54 55.548 117.096 55.548C116.52 55.548 116.106 55.644 115.854 55.836C115.602 56.016 115.476 56.25 115.476 56.538C115.476 56.754 115.548 56.934 115.692 57.078C115.848 57.222 116.082 57.33 116.394 57.402L118.266 57.744C119.07 57.888 119.682 58.158 120.102 58.554C120.522 58.95 120.732 59.496 120.732 60.192C120.732 60.828 120.564 61.368 120.228 61.812C119.892 62.256 119.418 62.598 118.806 62.838C118.206 63.078 117.51 63.198 116.718 63.198ZM125.789 63.198C124.973 63.198 124.229 63.108 123.557 62.928C122.885 62.748 122.315 62.496 121.847 62.172L122.549 60.372C123.017 60.66 123.533 60.888 124.097 61.056C124.673 61.224 125.243 61.308 125.807 61.308C126.335 61.308 126.725 61.224 126.977 61.056C127.229 60.888 127.355 60.66 127.355 60.372C127.355 60.132 127.271 59.946 127.103 59.814C126.947 59.682 126.701 59.586 126.365 59.526L124.511 59.184C123.731 59.028 123.137 58.74 122.729 58.32C122.321 57.9 122.117 57.354 122.117 56.682C122.117 56.094 122.273 55.578 122.585 55.134C122.909 54.678 123.371 54.324 123.971 54.072C124.571 53.82 125.273 53.694 126.077 53.694C126.761 53.694 127.409 53.778 128.021 53.946C128.633 54.114 129.155 54.372 129.587 54.72L128.849 56.466C128.477 56.19 128.045 55.968 127.553 55.8C127.073 55.632 126.611 55.548 126.167 55.548C125.591 55.548 125.177 55.644 124.925 55.836C124.673 56.016 124.547 56.25 124.547 56.538C124.547 56.754 124.619 56.934 124.763 57.078C124.919 57.222 125.153 57.33 125.465 57.402L127.337 57.744C128.141 57.888 128.753 58.158 129.173 58.554C129.593 58.95 129.803 59.496 129.803 60.192C129.803 60.828 129.635 61.368 129.299 61.812C128.963 62.256 128.489 62.598 127.877 62.838C127.277 63.078 126.581 63.198 125.789 63.198ZM131.493 63V53.874H134.211V63H131.493ZM131.385 52.38V49.842H134.301V52.38H131.385ZM142.012 63.198C141.28 63.198 140.626 63.018 140.05 62.658C139.486 62.298 139.108 61.818 138.916 61.218H139.114V63H136.432V49.752H139.15V55.584H138.916C139.12 55.008 139.504 54.552 140.068 54.216C140.644 53.868 141.292 53.694 142.012 53.694C142.816 53.694 143.518 53.886 144.118 54.27C144.718 54.654 145.186 55.2 145.522 55.908C145.87 56.616 146.044 57.468 146.044 58.464C146.044 59.448 145.87 60.294 145.522 61.002C145.186 61.71 144.712 62.256 144.1 62.64C143.5 63.012 142.804 63.198 142.012 63.198ZM141.202 61.146C141.814 61.146 142.318 60.93 142.714 60.498C143.11 60.066 143.308 59.388 143.308 58.464C143.308 57.54 143.11 56.856 142.714 56.412C142.318 55.968 141.814 55.746 141.202 55.746C140.578 55.746 140.068 55.962 139.672 56.394C139.288 56.826 139.096 57.504 139.096 58.428C139.096 59.352 139.288 60.036 139.672 60.48C140.068 60.924 140.578 61.146 141.202 61.146ZM147.805 63V49.752H150.523V63H147.805ZM157.335 63.198C155.751 63.198 154.515 62.772 153.627 61.92C152.739 61.068 152.295 59.91 152.295 58.446C152.295 57.498 152.481 56.67 152.853 55.962C153.237 55.254 153.765 54.702 154.437 54.306C155.121 53.898 155.919 53.694 156.831 53.694C157.731 53.694 158.481 53.886 159.081 54.27C159.693 54.654 160.149 55.194 160.449 55.89C160.761 56.574 160.917 57.372 160.917 58.284V58.914H154.527V57.564H158.937L158.631 57.816C158.631 57.06 158.475 56.49 158.163 56.106C157.863 55.71 157.425 55.512 156.849 55.512C156.213 55.512 155.721 55.746 155.373 56.214C155.037 56.682 154.869 57.354 154.869 58.23V58.518C154.869 59.406 155.085 60.066 155.517 60.498C155.961 60.93 156.597 61.146 157.425 61.146C157.917 61.146 158.379 61.086 158.811 60.966C159.255 60.834 159.675 60.63 160.071 60.354L160.827 62.154C160.371 62.49 159.843 62.748 159.243 62.928C158.655 63.108 158.019 63.198 157.335 63.198Z" fill="#0047FE"/>
<circle cx="45" cy="45" r="25" fill="#0047FE"/>
<path opacity="0.5" d="M38.666 38.3334H51.3327V35.6667C51.3327 33.0001 50.3327 31.6667 47.3327 31.6667H42.666C39.666 31.6667 38.666 33.0001 38.666 35.6667V38.3334Z" fill="white"/>
<path d="M50.3327 49V54.3333C50.3327 57 48.9993 58.3333 46.3327 58.3333H43.666C40.9993 58.3333 39.666 57 39.666 54.3333V49H50.3327Z" stroke="white" stroke-width="2" stroke-miterlimit="10" stroke-linecap="round" stroke-linejoin="round"/>
<path d="M57 42.3333V48.9999C57 51.6666 55.6667 52.9999 53 52.9999H50.3333V48.9999H39.6667V52.9999H37C34.3333 52.9999 33 51.6666 33 48.9999V42.3333C33 39.6666 34.3333 38.3333 37 38.3333H53C55.6667 38.3333 57 39.6666 57 42.3333Z" stroke="white" stroke-width="1.5" stroke-miterlimit="10" stroke-linecap="round" stroke-linejoin="round"/>
<path d="M51.6673 49H50.054H38.334" stroke="white" stroke-width="1.5" stroke-miterlimit="10" stroke-linecap="round" stroke-linejoin="round"/>
<path opacity="0.5" d="M38.334 43.6667H42.334" stroke="white" stroke-width="1.5" stroke-miterlimit="10" stroke-linecap="round" stroke-linejoin="round"/>
</svg>
